%TF.GenerationSoftware,KiCad,Pcbnew,7.0.5*%
%TF.CreationDate,2023-07-11T16:18:17+08:00*%
%TF.ProjectId,press-beta,70726573-732d-4626-9574-612e6b696361,rev?*%
%TF.SameCoordinates,Original*%
%TF.FileFunction,Copper,L1,Top*%
%TF.FilePolarity,Positive*%
%FSLAX46Y46*%
G04 Gerber Fmt 4.6, Leading zero omitted, Abs format (unit mm)*
G04 Created by KiCad (PCBNEW 7.0.5) date 2023-07-11 16:18:17*
%MOMM*%
%LPD*%
G01*
G04 APERTURE LIST*
G04 Aperture macros list*
%AMRoundRect*
0 Rectangle with rounded corners*
0 $1 Rounding radius*
0 $2 $3 $4 $5 $6 $7 $8 $9 X,Y pos of 4 corners*
0 Add a 4 corners polygon primitive as box body*
4,1,4,$2,$3,$4,$5,$6,$7,$8,$9,$2,$3,0*
0 Add four circle primitives for the rounded corners*
1,1,$1+$1,$2,$3*
1,1,$1+$1,$4,$5*
1,1,$1+$1,$6,$7*
1,1,$1+$1,$8,$9*
0 Add four rect primitives between the rounded corners*
20,1,$1+$1,$2,$3,$4,$5,0*
20,1,$1+$1,$4,$5,$6,$7,0*
20,1,$1+$1,$6,$7,$8,$9,0*
20,1,$1+$1,$8,$9,$2,$3,0*%
G04 Aperture macros list end*
%TA.AperFunction,SMDPad,CuDef*%
%ADD10RoundRect,0.200000X-0.800000X-0.800000X0.800000X-0.800000X0.800000X0.800000X-0.800000X0.800000X0*%
%TD*%
%TA.AperFunction,ComponentPad*%
%ADD11O,1.600000X3.000000*%
%TD*%
%TA.AperFunction,ComponentPad*%
%ADD12O,1.700000X1.700000*%
%TD*%
%TA.AperFunction,SMDPad,CuDef*%
%ADD13R,3.500000X1.700000*%
%TD*%
%TA.AperFunction,ComponentPad*%
%ADD14R,1.700000X1.700000*%
%TD*%
%TA.AperFunction,SMDPad,CuDef*%
%ADD15R,1.700000X3.500000*%
%TD*%
%TA.AperFunction,ComponentPad*%
%ADD16RoundRect,0.249999X1.025001X1.025001X-1.025001X1.025001X-1.025001X-1.025001X1.025001X-1.025001X0*%
%TD*%
%TA.AperFunction,ComponentPad*%
%ADD17C,2.550000*%
%TD*%
%TA.AperFunction,ViaPad*%
%ADD18C,0.800000*%
%TD*%
%TA.AperFunction,Conductor*%
%ADD19C,0.250000*%
%TD*%
G04 APERTURE END LIST*
D10*
%TO.P,SW20,1,1*%
%TO.N,/col4*%
X129080000Y-129580000D03*
%TO.P,SW20,2,2*%
%TO.N,Net-(U1-GPIO20)*%
X135080000Y-129580000D03*
%TD*%
%TO.P,SW14,1,1*%
%TO.N,/col3*%
X108760000Y-129580000D03*
%TO.P,SW14,2,2*%
%TO.N,Net-(U1-GPIO20)*%
X114760000Y-129580000D03*
%TD*%
%TO.P,SW21,1,1*%
%TO.N,/col4*%
X129080000Y-142280000D03*
%TO.P,SW21,2,2*%
%TO.N,Net-(U1-GPIO19)*%
X135080000Y-142280000D03*
%TD*%
D11*
%TO.P,U2,1,ROM_IN*%
%TO.N,/mosi*%
X99500000Y-67610000D03*
%TO.P,U2,2,ROM_OUT*%
%TO.N,/miso*%
X96960000Y-67610000D03*
%TO.P,U2,3,ROM_SCK*%
%TO.N,/clk*%
X94420000Y-67610000D03*
%TO.P,U2,4,~ROM_CS*%
%TO.N,Net-(U1-GPIO13)*%
X91880000Y-67610000D03*
%TO.P,U2,5,LEDA*%
%TO.N,Net-(Q1-S)*%
X89340000Y-67610000D03*
%TO.P,U2,6,VSS*%
%TO.N,GND*%
X86800000Y-67610000D03*
%TO.P,U2,7,VDD*%
%TO.N,+3V3*%
X84260000Y-67610000D03*
%TO.P,U2,8,SCLK*%
%TO.N,/clk*%
X81720000Y-67610000D03*
%TO.P,U2,9,SDA*%
%TO.N,/mosi*%
X79180000Y-67610000D03*
%TO.P,U2,10,RS*%
%TO.N,Net-(U1-GPIO1)*%
X76640000Y-67610000D03*
%TO.P,U2,11,~RESET*%
%TO.N,Net-(U1-GPIO0)*%
X74100000Y-67610000D03*
%TO.P,U2,12,~CS*%
%TO.N,Net-(U1-GPIO5)*%
X71560000Y-67610000D03*
%TO.P,U2,NC*%
%TO.N,N/C*%
X70730000Y-105410000D03*
X73270000Y-105410000D03*
X97790000Y-105410000D03*
X100330000Y-105410000D03*
%TD*%
D10*
%TO.P,SW12,1,1*%
%TO.N,/col2*%
X88440000Y-180380000D03*
%TO.P,SW12,2,2*%
%TO.N,Net-(U1-GPIO16)*%
X94440000Y-180380000D03*
%TD*%
%TO.P,SW6,1,1*%
%TO.N,Net-(U1-GPIO15)*%
X68120000Y-180380000D03*
%TO.P,SW6,2,2*%
%TO.N,GND*%
X74120000Y-180380000D03*
%TD*%
D12*
%TO.P,U1,1,GPIO0*%
%TO.N,Net-(U1-GPIO0)*%
X116840000Y-57150000D03*
D13*
X115940000Y-57150000D03*
D12*
%TO.P,U1,2,GPIO1*%
%TO.N,Net-(U1-GPIO1)*%
X116840000Y-59690000D03*
D13*
X115940000Y-59690000D03*
D14*
%TO.P,U1,3,GND*%
%TO.N,unconnected-(U1-GND-Pad3)*%
X116840000Y-62230000D03*
D13*
X115940000Y-62230000D03*
D12*
%TO.P,U1,4,GPIO2*%
%TO.N,/clk*%
X116840000Y-64770000D03*
D13*
X115940000Y-64770000D03*
D12*
%TO.P,U1,5,GPIO3*%
%TO.N,/mosi*%
X116840000Y-67310000D03*
D13*
X115940000Y-67310000D03*
D12*
%TO.P,U1,6,GPIO4*%
%TO.N,/miso*%
X116840000Y-69850000D03*
D13*
X115940000Y-69850000D03*
D12*
%TO.P,U1,7,GPIO5*%
%TO.N,Net-(U1-GPIO5)*%
X116840000Y-72390000D03*
D13*
X115940000Y-72390000D03*
D14*
%TO.P,U1,8,GND*%
%TO.N,GND*%
X116840000Y-74930000D03*
D13*
X115940000Y-74930000D03*
D12*
%TO.P,U1,9,GPIO6*%
%TO.N,/col1*%
X116840000Y-77470000D03*
D13*
X115940000Y-77470000D03*
D12*
%TO.P,U1,10,GPIO7*%
%TO.N,/col2*%
X116840000Y-80010000D03*
D13*
X115940000Y-80010000D03*
D12*
%TO.P,U1,11,GPIO8*%
%TO.N,/col3*%
X116840000Y-82550000D03*
D13*
X115940000Y-82550000D03*
D12*
%TO.P,U1,12,GPIO9*%
%TO.N,/col4*%
X116840000Y-85090000D03*
D13*
X115940000Y-85090000D03*
D14*
%TO.P,U1,13,GND*%
%TO.N,GND*%
X116840000Y-87630000D03*
D13*
X115940000Y-87630000D03*
D12*
%TO.P,U1,14,GPIO10*%
%TO.N,unconnected-(U1-GPIO10-Pad14)*%
X116840000Y-90170000D03*
D13*
X115940000Y-90170000D03*
D12*
%TO.P,U1,15,GPIO11*%
%TO.N,unconnected-(U1-GPIO11-Pad15)*%
X116840000Y-92710000D03*
D13*
X115940000Y-92710000D03*
D12*
%TO.P,U1,16,GPIO12*%
%TO.N,unconnected-(U1-GPIO12-Pad16)*%
X116840000Y-95250000D03*
D13*
X115940000Y-95250000D03*
D12*
%TO.P,U1,17,GPIO13*%
%TO.N,Net-(U1-GPIO13)*%
X116840000Y-97790000D03*
D13*
X115940000Y-97790000D03*
D14*
%TO.P,U1,18,GND*%
%TO.N,GND*%
X116840000Y-100330000D03*
D13*
X115940000Y-100330000D03*
D12*
%TO.P,U1,19,GPIO14*%
%TO.N,Net-(U1-GPIO14)*%
X116840000Y-102870000D03*
D13*
X115940000Y-102870000D03*
D12*
%TO.P,U1,20,GPIO15*%
%TO.N,Net-(U1-GPIO15)*%
X116840000Y-105410000D03*
D13*
X115940000Y-105410000D03*
D12*
%TO.P,U1,21,GPIO16*%
%TO.N,Net-(U1-GPIO16)*%
X134620000Y-105410000D03*
D13*
X135520000Y-105410000D03*
D12*
%TO.P,U1,22,GPIO17*%
%TO.N,Net-(U1-GPIO17)*%
X134620000Y-102870000D03*
D13*
X135520000Y-102870000D03*
D14*
%TO.P,U1,23,GND*%
%TO.N,GND*%
X134620000Y-100330000D03*
D13*
X135520000Y-100330000D03*
D12*
%TO.P,U1,24,GPIO18*%
%TO.N,Net-(U1-GPIO18)*%
X134620000Y-97790000D03*
D13*
X135520000Y-97790000D03*
D12*
%TO.P,U1,25,GPIO19*%
%TO.N,Net-(U1-GPIO19)*%
X134620000Y-95250000D03*
D13*
X135520000Y-95250000D03*
D12*
%TO.P,U1,26,GPIO20*%
%TO.N,Net-(U1-GPIO20)*%
X134620000Y-92710000D03*
D13*
X135520000Y-92710000D03*
D12*
%TO.P,U1,27,GPIO21*%
%TO.N,Net-(U1-GPIO21)*%
X134620000Y-90170000D03*
D13*
X135520000Y-90170000D03*
D14*
%TO.P,U1,28,GND*%
%TO.N,GND*%
X134620000Y-87630000D03*
D13*
X135520000Y-87630000D03*
D12*
%TO.P,U1,29,GPIO22*%
%TO.N,Net-(Q1-G)*%
X134620000Y-85090000D03*
D13*
X135520000Y-85090000D03*
D12*
%TO.P,U1,30,RUN*%
%TO.N,unconnected-(U1-RUN-Pad30)*%
X134620000Y-82550000D03*
D13*
X135520000Y-82550000D03*
D12*
%TO.P,U1,31,GPIO26_ADC0*%
%TO.N,Net-(U1-GPIO26_ADC0)*%
X134620000Y-80010000D03*
D13*
X135520000Y-80010000D03*
D12*
%TO.P,U1,32,GPIO27_ADC1*%
%TO.N,Net-(U1-GPIO27_ADC1)*%
X134620000Y-77470000D03*
D13*
X135520000Y-77470000D03*
D14*
%TO.P,U1,33,AGND*%
%TO.N,Net-(U1-AGND)*%
X134620000Y-74930000D03*
D13*
X135520000Y-74930000D03*
D12*
%TO.P,U1,34,GPIO28_ADC2*%
%TO.N,Net-(U1-GPIO28_ADC2)*%
X134620000Y-72390000D03*
D13*
X135520000Y-72390000D03*
D12*
%TO.P,U1,35,ADC_VREF*%
%TO.N,unconnected-(U1-ADC_VREF-Pad35)*%
X134620000Y-69850000D03*
D13*
X135520000Y-69850000D03*
D12*
%TO.P,U1,36,3V3*%
%TO.N,+3V3*%
X134620000Y-67310000D03*
D13*
X135520000Y-67310000D03*
D12*
%TO.P,U1,37,3V3_EN*%
%TO.N,unconnected-(U1-3V3_EN-Pad37)*%
X134620000Y-64770000D03*
D13*
X135520000Y-64770000D03*
D14*
%TO.P,U1,38,GND*%
%TO.N,GND*%
X134620000Y-62230000D03*
D13*
X135520000Y-62230000D03*
D12*
%TO.P,U1,39,VSYS*%
%TO.N,Net-(D1-K)*%
X134620000Y-59690000D03*
D13*
X135520000Y-59690000D03*
D12*
%TO.P,U1,40,VBUS*%
%TO.N,unconnected-(U1-VBUS-Pad40)*%
X134620000Y-57150000D03*
D13*
X135520000Y-57150000D03*
D12*
%TO.P,U1,41,SWCLK*%
%TO.N,unconnected-(U1-SWCLK-Pad41)*%
X123190000Y-105180000D03*
D15*
X123190000Y-106080000D03*
D14*
%TO.P,U1,42,GND*%
%TO.N,GND*%
X125730000Y-105180000D03*
D15*
X125730000Y-106080000D03*
D12*
%TO.P,U1,43,SWDIO*%
%TO.N,unconnected-(U1-SWDIO-Pad43)*%
X128270000Y-105180000D03*
D15*
X128270000Y-106080000D03*
%TD*%
D16*
%TO.P,BT1,1,+*%
%TO.N,Net-(BT1-+)*%
X97790000Y-76200000D03*
D17*
%TO.P,BT1,2,-*%
%TO.N,GND*%
X92990000Y-76200000D03*
%TD*%
D10*
%TO.P,SW3,1,1*%
%TO.N,/col1*%
X68120000Y-142280000D03*
%TO.P,SW3,2,2*%
%TO.N,Net-(U1-GPIO19)*%
X74120000Y-142280000D03*
%TD*%
%TO.P,SW8,1,1*%
%TO.N,/col2*%
X88440000Y-129580000D03*
%TO.P,SW8,2,2*%
%TO.N,Net-(U1-GPIO20)*%
X94440000Y-129580000D03*
%TD*%
%TO.P,SW10,1,1*%
%TO.N,/col2*%
X88440000Y-154980000D03*
%TO.P,SW10,2,2*%
%TO.N,Net-(U1-GPIO18)*%
X94440000Y-154980000D03*
%TD*%
%TO.P,SW23,1,1*%
%TO.N,/col4*%
X129080000Y-167680000D03*
%TO.P,SW23,2,2*%
%TO.N,Net-(U1-GPIO17)*%
X135080000Y-167680000D03*
%TD*%
%TO.P,SW11,1,1*%
%TO.N,/col2*%
X88440000Y-167680000D03*
%TO.P,SW11,2,2*%
%TO.N,Net-(U1-GPIO17)*%
X94440000Y-167680000D03*
%TD*%
%TO.P,SW17,1,1*%
%TO.N,/col3*%
X108760000Y-167680000D03*
%TO.P,SW17,2,2*%
%TO.N,Net-(U1-GPIO17)*%
X114760000Y-167680000D03*
%TD*%
%TO.P,SW2,1,1*%
%TO.N,/col1*%
X68120000Y-129580000D03*
%TO.P,SW2,2,2*%
%TO.N,Net-(U1-GPIO20)*%
X74120000Y-129580000D03*
%TD*%
%TO.P,SW7,1,1*%
%TO.N,/col2*%
X88440000Y-116880000D03*
%TO.P,SW7,2,2*%
%TO.N,Net-(U1-GPIO21)*%
X94440000Y-116880000D03*
%TD*%
%TO.P,SW18,1,1*%
%TO.N,/col3*%
X108760000Y-180380000D03*
%TO.P,SW18,2,2*%
%TO.N,Net-(U1-GPIO16)*%
X114760000Y-180380000D03*
%TD*%
%TO.P,SW22,1,1*%
%TO.N,/col4*%
X129080000Y-154980000D03*
%TO.P,SW22,2,2*%
%TO.N,Net-(U1-GPIO18)*%
X135080000Y-154980000D03*
%TD*%
%TO.P,SW24,1,1*%
%TO.N,/col4*%
X129080000Y-180380000D03*
%TO.P,SW24,2,2*%
%TO.N,Net-(U1-GPIO16)*%
X135080000Y-180380000D03*
%TD*%
%TO.P,SW13,1,1*%
%TO.N,/col3*%
X108760000Y-116880000D03*
%TO.P,SW13,2,2*%
%TO.N,Net-(U1-GPIO21)*%
X114760000Y-116880000D03*
%TD*%
%TO.P,SW9,1,1*%
%TO.N,/col2*%
X88440000Y-142280000D03*
%TO.P,SW9,2,2*%
%TO.N,Net-(U1-GPIO19)*%
X94440000Y-142280000D03*
%TD*%
%TO.P,SW19,1,1*%
%TO.N,/col4*%
X129080000Y-116880000D03*
%TO.P,SW19,2,2*%
%TO.N,Net-(U1-GPIO21)*%
X135080000Y-116880000D03*
%TD*%
%TO.P,SW5,1,1*%
%TO.N,Net-(U1-GPIO14)*%
X68120000Y-167680000D03*
%TO.P,SW5,2,2*%
%TO.N,GND*%
X74120000Y-167680000D03*
%TD*%
%TO.P,SW1,1,1*%
%TO.N,/col1*%
X68120000Y-116880000D03*
%TO.P,SW1,2,2*%
%TO.N,Net-(U1-GPIO21)*%
X74120000Y-116880000D03*
%TD*%
%TO.P,SW16,1,1*%
%TO.N,/col3*%
X108760000Y-154980000D03*
%TO.P,SW16,2,2*%
%TO.N,Net-(U1-GPIO18)*%
X114760000Y-154980000D03*
%TD*%
%TO.P,SW4,1,1*%
%TO.N,/col1*%
X68120000Y-154980000D03*
%TO.P,SW4,2,2*%
%TO.N,Net-(U1-GPIO18)*%
X74120000Y-154980000D03*
%TD*%
%TO.P,SW15,1,1*%
%TO.N,/col3*%
X108760000Y-142280000D03*
%TO.P,SW15,2,2*%
%TO.N,Net-(U1-GPIO19)*%
X114760000Y-142280000D03*
%TD*%
D18*
%TO.N,Net-(Q1-G)*%
X118122393Y-71120136D03*
%TO.N,Net-(U1-GPIO26_ADC0)*%
X109220000Y-58420000D03*
X124460000Y-69850000D03*
%TO.N,Net-(U1-GPIO27_ADC1)*%
X107950000Y-60960000D03*
X120650000Y-67310000D03*
%TO.N,Net-(U1-AGND)*%
X106680000Y-60960000D03*
X121920000Y-67310000D03*
%TO.N,/col2*%
X91440000Y-167640000D03*
X91440000Y-116840000D03*
X91440000Y-180340000D03*
X91440000Y-129540000D03*
X91440000Y-154940000D03*
X91440000Y-142240000D03*
%TO.N,/col3*%
X111760000Y-116840000D03*
X111760000Y-154940000D03*
X111760000Y-180340000D03*
X111760000Y-142240000D03*
X111760000Y-129540000D03*
X111760000Y-167640000D03*
%TO.N,/col4*%
X132080000Y-154940000D03*
X132080000Y-142240000D03*
X132080000Y-180340000D03*
X132080000Y-167640000D03*
X132080000Y-116840000D03*
X132080000Y-129540000D03*
%TO.N,Net-(D1-K)*%
X124460000Y-66040000D03*
%TO.N,Net-(U1-GPIO14)*%
X110299500Y-105981500D03*
X71120000Y-167640000D03*
%TO.N,Net-(U1-GPIO15)*%
X110236000Y-107315000D03*
X71120000Y-180340000D03*
%TO.N,Net-(U1-GPIO13)*%
X93980000Y-81280000D03*
%TD*%
D19*
%TO.N,Net-(U1-GPIO13)*%
X93980000Y-81280000D02*
X90170000Y-77470000D01*
X90170000Y-77470000D02*
X90170000Y-69320000D01*
X90170000Y-69320000D02*
X91880000Y-67610000D01*
%TO.N,+3V3*%
X134620000Y-67310000D02*
X131351800Y-70578200D01*
X131351800Y-70578200D02*
X120651400Y-70578200D01*
X120651400Y-70578200D02*
X118745000Y-68671800D01*
X118745000Y-68671800D02*
X112303200Y-68671800D01*
X112303200Y-68671800D02*
X97790000Y-83185000D01*
X97790000Y-83185000D02*
X92315169Y-83185000D01*
X92315169Y-83185000D02*
X84260000Y-75129831D01*
X84260000Y-75129831D02*
X84260000Y-67610000D01*
%TO.N,/col2*%
X91440000Y-116840000D02*
X92710000Y-115570000D01*
X95458788Y-115551800D02*
X95461459Y-115549129D01*
X92710000Y-115570000D02*
X93403012Y-115570000D01*
X93403012Y-115570000D02*
X93421212Y-115551800D01*
X93421212Y-115551800D02*
X95458788Y-115551800D01*
X95461459Y-115549129D02*
X104160871Y-115549129D01*
X104160871Y-115549129D02*
X107950000Y-111760000D01*
X107950000Y-111760000D02*
X107950000Y-86360000D01*
X107950000Y-86360000D02*
X114300000Y-80010000D01*
X114300000Y-80010000D02*
X116840000Y-80010000D01*
%TO.N,Net-(Q1-G)*%
X120650136Y-71120136D02*
X134620000Y-85090000D01*
X118122393Y-71120136D02*
X120650136Y-71120136D01*
%TO.N,Net-(U1-GPIO26_ADC0)*%
X123190000Y-68580000D02*
X123190000Y-63683600D01*
X123190000Y-63683600D02*
X117926400Y-58420000D01*
X124460000Y-69850000D02*
X123190000Y-68580000D01*
X117926400Y-58420000D02*
X109220000Y-58420000D01*
%TO.N,Net-(U1-GPIO27_ADC1)*%
X110490000Y-63500000D02*
X107950000Y-60960000D01*
X117926400Y-63500000D02*
X110490000Y-63500000D01*
X120650000Y-67310000D02*
X120650000Y-66223600D01*
X120650000Y-66223600D02*
X117926400Y-63500000D01*
%TO.N,Net-(U1-AGND)*%
X121920000Y-67310000D02*
X121920000Y-64953600D01*
X107705000Y-59935000D02*
X106680000Y-60960000D01*
X117926400Y-60960000D02*
X114055000Y-60960000D01*
X114055000Y-60960000D02*
X113030000Y-59935000D01*
X113030000Y-59935000D02*
X107705000Y-59935000D01*
X121920000Y-64953600D02*
X117926400Y-60960000D01*
%TO.N,/col1*%
X68120000Y-142280000D02*
X68120000Y-129580000D01*
X68120000Y-129580000D02*
X68120000Y-116880000D01*
X103895516Y-114300000D02*
X106680000Y-111515516D01*
X68120000Y-154980000D02*
X68120000Y-142280000D01*
X70700000Y-114300000D02*
X103895516Y-114300000D01*
X106680000Y-111515516D02*
X106680000Y-86013600D01*
X68120000Y-116880000D02*
X70700000Y-114300000D01*
X106680000Y-86013600D02*
X115223600Y-77470000D01*
%TO.N,Net-(U1-GPIO16)*%
X132580000Y-182880000D02*
X117260000Y-182880000D01*
X134620000Y-107938156D02*
X134620000Y-105410000D01*
X117260000Y-182880000D02*
X114760000Y-180380000D01*
X135080000Y-180380000D02*
X132580000Y-182880000D01*
X139700000Y-175760000D02*
X139700000Y-113018156D01*
X139700000Y-113018156D02*
X134620000Y-107938156D01*
X135080000Y-180380000D02*
X139700000Y-175760000D01*
X114760000Y-180380000D02*
X112260000Y-182880000D01*
X96940000Y-182880000D02*
X94440000Y-180380000D01*
X112260000Y-182880000D02*
X96940000Y-182880000D01*
%TO.N,Net-(U1-GPIO18)*%
X94440000Y-154980000D02*
X91940000Y-157480000D01*
X138793600Y-113393600D02*
X132533200Y-107133200D01*
X138793600Y-151266400D02*
X138793600Y-113393600D01*
X132533200Y-99876800D02*
X134620000Y-97790000D01*
X132580000Y-157480000D02*
X117260000Y-157480000D01*
X76620000Y-157480000D02*
X74120000Y-154980000D01*
X132533200Y-107133200D02*
X132533200Y-99876800D01*
X117260000Y-157480000D02*
X114760000Y-154980000D01*
X96520000Y-157480000D02*
X112260000Y-157480000D01*
X135080000Y-154980000D02*
X132580000Y-157480000D01*
X112260000Y-157480000D02*
X114760000Y-154980000D01*
X135080000Y-154980000D02*
X138793600Y-151266400D01*
X91940000Y-157480000D02*
X76620000Y-157480000D01*
X94440000Y-155400000D02*
X96520000Y-157480000D01*
%TO.N,Net-(U1-GPIO17)*%
X114760000Y-168100000D02*
X116840000Y-170180000D01*
X132986400Y-104503600D02*
X132986400Y-106945478D01*
X132580000Y-170180000D02*
X135080000Y-167680000D01*
X96940000Y-170180000D02*
X112260000Y-170180000D01*
X134620000Y-102870000D02*
X132986400Y-104503600D01*
X112260000Y-170180000D02*
X114760000Y-167680000D01*
X139246800Y-163513200D02*
X135080000Y-167680000D01*
X139246800Y-113205878D02*
X139246800Y-163513200D01*
X132986400Y-106945478D02*
X139246800Y-113205878D01*
X94440000Y-167680000D02*
X96940000Y-170180000D01*
X116840000Y-170180000D02*
X132580000Y-170180000D01*
%TO.N,/col2*%
X91440000Y-116840000D02*
X88480000Y-116840000D01*
X91440000Y-180340000D02*
X88480000Y-180340000D01*
X91440000Y-154940000D02*
X88480000Y-154940000D01*
X91440000Y-129540000D02*
X88480000Y-129540000D01*
X91440000Y-167640000D02*
X88480000Y-167640000D01*
X91440000Y-142240000D02*
X88480000Y-142240000D01*
%TO.N,Net-(U1-GPIO20)*%
X112260000Y-132080000D02*
X96940000Y-132080000D01*
X137887200Y-113769044D02*
X131626800Y-107508644D01*
X114760000Y-129580000D02*
X112260000Y-132080000D01*
X94440000Y-129580000D02*
X91940000Y-132080000D01*
X135080000Y-129580000D02*
X137887200Y-126772800D01*
X135080000Y-129580000D02*
X132580000Y-132080000D01*
X117260000Y-132080000D02*
X114760000Y-129580000D01*
X131626800Y-95703200D02*
X134620000Y-92710000D01*
X76620000Y-132080000D02*
X74120000Y-129580000D01*
X131626800Y-107508644D02*
X131626800Y-95703200D01*
X137887200Y-126772800D02*
X137887200Y-113769044D01*
X96940000Y-132080000D02*
X94440000Y-129580000D01*
X91940000Y-132080000D02*
X76620000Y-132080000D01*
X132580000Y-132080000D02*
X117260000Y-132080000D01*
%TO.N,Net-(U1-GPIO19)*%
X138340400Y-139019600D02*
X138340400Y-113581322D01*
X132080000Y-97790000D02*
X134620000Y-95250000D01*
X138340400Y-113581322D02*
X132080000Y-107320922D01*
X135080000Y-142280000D02*
X138340400Y-139019600D01*
X96940000Y-144780000D02*
X94440000Y-142280000D01*
X74120000Y-142700000D02*
X76200000Y-144780000D01*
X112260000Y-144780000D02*
X96940000Y-144780000D01*
X114760000Y-142700000D02*
X116840000Y-144780000D01*
X114760000Y-142280000D02*
X112260000Y-144780000D01*
X132580000Y-144780000D02*
X135080000Y-142280000D01*
X132080000Y-107320922D02*
X132080000Y-97790000D01*
X91940000Y-144780000D02*
X94440000Y-142280000D01*
X76200000Y-144780000D02*
X91940000Y-144780000D01*
X116840000Y-144780000D02*
X132580000Y-144780000D01*
%TO.N,/col3*%
X113578400Y-82550000D02*
X116840000Y-82550000D01*
X111760000Y-129540000D02*
X108800000Y-129540000D01*
X111760000Y-116840000D02*
X109507800Y-114587800D01*
X109507800Y-86620600D02*
X113578400Y-82550000D01*
X111760000Y-116840000D02*
X108800000Y-116840000D01*
X111760000Y-167640000D02*
X108800000Y-167640000D01*
X108760000Y-142280000D02*
X111720000Y-142280000D01*
X109507800Y-114587800D02*
X109507800Y-86620600D01*
X111760000Y-154940000D02*
X108800000Y-154940000D01*
X111760000Y-180340000D02*
X108800000Y-180340000D01*
X111720000Y-142280000D02*
X111760000Y-142240000D01*
%TO.N,/col4*%
X132040000Y-154980000D02*
X129080000Y-154980000D01*
X129080000Y-116880000D02*
X119380000Y-107180000D01*
X132080000Y-167640000D02*
X132040000Y-167680000D01*
X132040000Y-180380000D02*
X129080000Y-180380000D01*
X119380000Y-87630000D02*
X116840000Y-85090000D01*
X132080000Y-154940000D02*
X132040000Y-154980000D01*
X132080000Y-129540000D02*
X132040000Y-129580000D01*
X132040000Y-142280000D02*
X129080000Y-142280000D01*
X132080000Y-116840000D02*
X132040000Y-116880000D01*
X132040000Y-167680000D02*
X129080000Y-167680000D01*
X132080000Y-142240000D02*
X132040000Y-142280000D01*
X132040000Y-116880000D02*
X129080000Y-116880000D01*
X119380000Y-107180000D02*
X119380000Y-87630000D01*
X132080000Y-180340000D02*
X132040000Y-180380000D01*
X132040000Y-129580000D02*
X129080000Y-129580000D01*
%TO.N,Net-(U1-GPIO21)*%
X135080000Y-111602766D02*
X131173600Y-107696366D01*
X112260000Y-119380000D02*
X114760000Y-116880000D01*
X96520000Y-119380000D02*
X112260000Y-119380000D01*
X135080000Y-116880000D02*
X135080000Y-111602766D01*
X132580000Y-119380000D02*
X135080000Y-116880000D01*
X131173600Y-107696366D02*
X131173600Y-93616400D01*
X116840000Y-119380000D02*
X132580000Y-119380000D01*
X74120000Y-116880000D02*
X76620000Y-119380000D01*
X114760000Y-117300000D02*
X116840000Y-119380000D01*
X131173600Y-93616400D02*
X134620000Y-90170000D01*
X91940000Y-119380000D02*
X94440000Y-116880000D01*
X94440000Y-117300000D02*
X96520000Y-119380000D01*
X76620000Y-119380000D02*
X91940000Y-119380000D01*
%TO.N,Net-(D1-K)*%
X133350000Y-59690000D02*
X134620000Y-59690000D01*
X124460000Y-66040000D02*
X127000000Y-66040000D01*
X127000000Y-66040000D02*
X133350000Y-59690000D01*
%TO.N,Net-(U1-GPIO14)*%
X68120000Y-167680000D02*
X71080000Y-167680000D01*
X110299500Y-105981500D02*
X113411000Y-102870000D01*
X71080000Y-167680000D02*
X71120000Y-167640000D01*
X113411000Y-102870000D02*
X116840000Y-102870000D01*
%TO.N,Net-(U1-GPIO15)*%
X68120000Y-180380000D02*
X71080000Y-180380000D01*
X112666000Y-104885000D02*
X116315000Y-104885000D01*
X71080000Y-180380000D02*
X71120000Y-180340000D01*
X110236000Y-107315000D02*
X112666000Y-104885000D01*
%TO.N,/clk*%
X96520000Y-69850000D02*
X110143600Y-69850000D01*
X110143600Y-69850000D02*
X115223600Y-64770000D01*
X94420000Y-67750000D02*
X96520000Y-69850000D01*
%TD*%
%TA.AperFunction,Conductor*%
%TO.N,GND*%
G36*
X113632539Y-56154185D02*
G01*
X113678294Y-56206989D01*
X113689500Y-56258500D01*
X113689500Y-57018198D01*
X113689501Y-57670500D01*
X113669816Y-57737539D01*
X113617013Y-57783294D01*
X113565501Y-57794500D01*
X109923748Y-57794500D01*
X109856709Y-57774815D01*
X109831600Y-57753474D01*
X109825873Y-57747114D01*
X109825869Y-57747110D01*
X109672734Y-57635851D01*
X109672729Y-57635848D01*
X109499807Y-57558857D01*
X109499802Y-57558855D01*
X109354000Y-57527865D01*
X109314646Y-57519500D01*
X109125354Y-57519500D01*
X109092897Y-57526398D01*
X108940197Y-57558855D01*
X108940192Y-57558857D01*
X108767270Y-57635848D01*
X108767265Y-57635851D01*
X108614129Y-57747111D01*
X108487466Y-57887785D01*
X108392821Y-58051715D01*
X108392818Y-58051722D01*
X108334327Y-58231740D01*
X108334326Y-58231744D01*
X108314540Y-58420000D01*
X108334326Y-58608256D01*
X108334327Y-58608259D01*
X108392818Y-58788277D01*
X108392821Y-58788284D01*
X108487467Y-58952216D01*
X108614129Y-59092888D01*
X108614136Y-59092893D01*
X108614643Y-59093350D01*
X108614855Y-59093694D01*
X108618478Y-59097718D01*
X108617742Y-59098380D01*
X108651291Y-59152837D01*
X108649960Y-59222694D01*
X108611073Y-59280742D01*
X108546977Y-59308552D01*
X108531670Y-59309500D01*
X108054358Y-59309500D01*
X107987319Y-59289815D01*
X107941564Y-59237011D01*
X107931620Y-59167853D01*
X107934316Y-59154419D01*
X107938693Y-59137514D01*
X107984063Y-58962285D01*
X107994369Y-58759064D01*
X107963556Y-58557929D01*
X107903189Y-58394932D01*
X107892888Y-58367118D01*
X107892887Y-58367117D01*
X107892886Y-58367113D01*
X107785252Y-58194429D01*
X107645059Y-58046947D01*
X107546587Y-57978409D01*
X107478050Y-57930705D01*
X107291056Y-57850459D01*
X107091741Y-57809500D01*
X106939258Y-57809500D01*
X106939257Y-57809500D01*
X106787560Y-57824925D01*
X106593420Y-57885837D01*
X106593405Y-57885844D01*
X106415500Y-57984589D01*
X106415495Y-57984592D01*
X106261106Y-58117132D01*
X106261104Y-58117134D01*
X106136554Y-58278037D01*
X106136553Y-58278040D01*
X106046940Y-58460728D01*
X105995937Y-58657714D01*
X105985631Y-58860936D01*
X106016442Y-59062063D01*
X106016445Y-59062075D01*
X106087111Y-59252881D01*
X106087113Y-59252884D01*
X106087114Y-59252887D01*
X106122401Y-59309500D01*
X106194745Y-59425567D01*
X106194747Y-59425569D01*
X106194748Y-59425571D01*
X106334941Y-59573053D01*
X106418235Y-59631027D01*
X106501949Y-59689294D01*
X106501950Y-59689294D01*
X106501951Y-59689295D01*
X106688942Y-59769540D01*
X106709731Y-59773812D01*
X106771436Y-59806587D01*
X106805626Y-59867520D01*
X106801446Y-59937264D01*
X106772454Y-59982954D01*
X106732229Y-60023180D01*
X106670907Y-60056666D01*
X106644547Y-60059500D01*
X106585354Y-60059500D01*
X106567759Y-60063240D01*
X106400197Y-60098855D01*
X106400192Y-60098857D01*
X106227270Y-60175848D01*
X106227265Y-60175851D01*
X106074129Y-60287111D01*
X105947466Y-60427785D01*
X105852821Y-60591715D01*
X105852818Y-60591722D01*
X105810223Y-60722818D01*
X105794326Y-60771744D01*
X105774540Y-60960000D01*
X105794326Y-61148256D01*
X105794327Y-61148259D01*
X105852818Y-61328277D01*
X105852821Y-61328284D01*
X105947467Y-61492216D01*
X106013252Y-61565277D01*
X106074129Y-61632888D01*
X106227265Y-61744148D01*
X106227270Y-61744151D01*
X106400192Y-61821142D01*
X106400197Y-61821144D01*
X106585354Y-61860500D01*
X106585355Y-61860500D01*
X106774644Y-61860500D01*
X106774646Y-61860500D01*
X106959803Y-61821144D01*
X107132730Y-61744151D01*
X107242117Y-61664676D01*
X107307920Y-61641198D01*
X107375974Y-61657023D01*
X107387871Y-61664668D01*
X107464029Y-61720000D01*
X107497270Y-61744151D01*
X107670192Y-61821142D01*
X107670197Y-61821144D01*
X107855354Y-61860500D01*
X107914548Y-61860500D01*
X107981587Y-61880185D01*
X108002229Y-61896819D01*
X109989197Y-63883788D01*
X109999022Y-63896051D01*
X109999243Y-63895869D01*
X110004211Y-63901874D01*
X110053932Y-63948566D01*
X110055332Y-63949923D01*
X110075523Y-63970115D01*
X110075527Y-63970118D01*
X110075529Y-63970120D01*
X110081011Y-63974373D01*
X110085443Y-63978157D01*
X110119418Y-64010062D01*
X110136976Y-64019714D01*
X110153235Y-64030395D01*
X110169064Y-64042673D01*
X110211838Y-64061182D01*
X110217056Y-64063738D01*
X110257908Y-64086197D01*
X110277316Y-64091180D01*
X110295717Y-64097480D01*
X110314104Y-64105437D01*
X110357488Y-64112308D01*
X110360119Y-64112725D01*
X110365839Y-64113909D01*
X110410981Y-64125500D01*
X110431016Y-64125500D01*
X110450414Y-64127026D01*
X110470194Y-64130159D01*
X110470195Y-64130160D01*
X110470195Y-64130159D01*
X110470196Y-64130160D01*
X110516583Y-64125775D01*
X110522422Y-64125500D01*
X113565500Y-64125500D01*
X113632539Y-64145185D01*
X113678294Y-64197989D01*
X113689500Y-64249500D01*
X113689500Y-65368146D01*
X113669815Y-65435185D01*
X113653181Y-65455827D01*
X109920828Y-69188181D01*
X109859505Y-69221666D01*
X109833147Y-69224500D01*
X100685479Y-69224500D01*
X100618440Y-69204815D01*
X100572685Y-69152011D01*
X100562741Y-69082853D01*
X100583904Y-69029377D01*
X100630568Y-68962734D01*
X100726739Y-68756496D01*
X100785635Y-68536692D01*
X100800500Y-68366784D01*
X100800500Y-66853216D01*
X100785635Y-66683308D01*
X100726739Y-66463504D01*
X100630568Y-66257266D01*
X100500047Y-66070861D01*
X100500045Y-66070858D01*
X100339141Y-65909954D01*
X100269135Y-65860936D01*
X105985631Y-65860936D01*
X106016442Y-66062063D01*
X106016445Y-66062075D01*
X106087111Y-66252881D01*
X106087113Y-66252884D01*
X106087114Y-66252887D01*
X106133005Y-66326513D01*
X106194745Y-66425567D01*
X106194747Y-66425569D01*
X106194748Y-66425571D01*
X106334941Y-66573053D01*
X106446448Y-66650664D01*
X106501949Y-66689294D01*
X106501950Y-66689294D01*
X106501951Y-66689295D01*
X106688942Y-66769540D01*
X106888259Y-66810500D01*
X107040743Y-66810500D01*
X107192439Y-66795074D01*
X107386579Y-66734162D01*
X107386580Y-66734161D01*
X107386588Y-66734159D01*
X107564502Y-66635409D01*
X107718895Y-66502866D01*
X107843448Y-66341958D01*
X107933060Y-66159271D01*
X107984063Y-65962285D01*
X107994369Y-65759064D01*
X107963556Y-65557929D01*
X107892886Y-65367113D01*
X107785252Y-65194429D01*
X107645059Y-65046947D01*
X107546587Y-64978409D01*
X107478050Y-64930705D01*
X107291056Y-64850459D01*
X107091741Y-64809500D01*
X106939258Y-64809500D01*
X106939257Y-64809500D01*
X106787560Y-64824925D01*
X106593420Y-64885837D01*
X106593405Y-64885844D01*
X106415500Y-64984589D01*
X106415495Y-64984592D01*
X106261106Y-65117132D01*
X106261104Y-65117134D01*
X106136554Y-65278037D01*
X106136553Y-65278040D01*
X106046940Y-65460728D01*
X105995937Y-65657714D01*
X105985631Y-65860936D01*
X100269135Y-65860936D01*
X100152734Y-65779432D01*
X100152732Y-65779431D01*
X99946497Y-65683261D01*
X99946488Y-65683258D01*
X99726697Y-65624366D01*
X99726693Y-65624365D01*
X99726692Y-65624365D01*
X99726691Y-65624364D01*
X99726686Y-65624364D01*
X99500002Y-65604532D01*
X99499998Y-65604532D01*
X99273313Y-65624364D01*
X99273302Y-65624366D01*
X99053511Y-65683258D01*
X99053502Y-65683261D01*
X98847267Y-65779431D01*
X98847265Y-65779432D01*
X98660858Y-65909954D01*
X98499954Y-66070858D01*
X98369432Y-66257265D01*
X98369431Y-66257267D01*
X98342382Y-66315275D01*
X98296209Y-66367714D01*
X98229016Y-66386866D01*
X98162135Y-66366650D01*
X98117618Y-66315275D01*
X98107067Y-66292649D01*
X98090568Y-66257266D01*
X97960047Y-66070861D01*
X97960045Y-66070858D01*
X97799141Y-65909954D01*
X97612734Y-65779432D01*
X97612732Y-65779431D01*
X97406497Y-65683261D01*
X97406488Y-65683258D01*
X97186697Y-65624366D01*
X97186693Y-65624365D01*
X97186692Y-65624365D01*
X97186691Y-65624364D01*
X97186686Y-65624364D01*
X96960002Y-65604532D01*
X96959998Y-65604532D01*
X96733313Y-65624364D01*
X96733302Y-65624366D01*
X96513511Y-65683258D01*
X96513502Y-65683261D01*
X96307267Y-65779431D01*
X96307265Y-65779432D01*
X96120858Y-65909954D01*
X95959954Y-66070858D01*
X95829432Y-66257265D01*
X95829431Y-66257267D01*
X95802382Y-66315275D01*
X95756209Y-66367714D01*
X95689016Y-66386866D01*
X95622135Y-66366650D01*
X95577618Y-66315275D01*
X95567067Y-66292649D01*
X95550568Y-66257266D01*
X95420047Y-66070861D01*
X95420045Y-66070858D01*
X95259141Y-65909954D01*
X95072734Y-65779432D01*
X95072732Y-65779431D01*
X94866497Y-65683261D01*
X94866488Y-65683258D01*
X94646697Y-65624366D01*
X94646693Y-65624365D01*
X94646692Y-65624365D01*
X94646691Y-65624364D01*
X94646686Y-65624364D01*
X94420002Y-65604532D01*
X94419998Y-65604532D01*
X94193313Y-65624364D01*
X94193302Y-65624366D01*
X93973511Y-65683258D01*
X93973502Y-65683261D01*
X93767267Y-65779431D01*
X93767265Y-65779432D01*
X93580858Y-65909954D01*
X93419954Y-66070858D01*
X93289432Y-66257265D01*
X93289431Y-66257267D01*
X93262382Y-66315275D01*
X93216209Y-66367714D01*
X93149016Y-66386866D01*
X93082135Y-66366650D01*
X93037618Y-66315275D01*
X93027067Y-66292649D01*
X93010568Y-66257266D01*
X92880047Y-66070861D01*
X92880045Y-66070858D01*
X92719141Y-65909954D01*
X92532734Y-65779432D01*
X92532732Y-65779431D01*
X92326497Y-65683261D01*
X92326488Y-65683258D01*
X92106697Y-65624366D01*
X92106693Y-65624365D01*
X92106692Y-65624365D01*
X92106691Y-65624364D01*
X92106686Y-65624364D01*
X91880002Y-65604532D01*
X91879998Y-65604532D01*
X91653313Y-65624364D01*
X91653302Y-65624366D01*
X91433511Y-65683258D01*
X91433502Y-65683261D01*
X91227267Y-65779431D01*
X91227265Y-65779432D01*
X91040858Y-65909954D01*
X90879954Y-66070858D01*
X90749432Y-66257265D01*
X90749431Y-66257267D01*
X90722382Y-66315275D01*
X90676209Y-66367714D01*
X90609016Y-66386866D01*
X90542135Y-66366650D01*
X90497618Y-66315275D01*
X90487067Y-66292649D01*
X90470568Y-66257266D01*
X90340047Y-66070861D01*
X90340045Y-66070858D01*
X90179141Y-65909954D01*
X89992734Y-65779432D01*
X89992732Y-65779431D01*
X89786497Y-65683261D01*
X89786488Y-65683258D01*
X89566697Y-65624366D01*
X89566693Y-65624365D01*
X89566692Y-65624365D01*
X89566691Y-65624364D01*
X89566686Y-65624364D01*
X89340002Y-65604532D01*
X89339998Y-65604532D01*
X89113313Y-65624364D01*
X89113302Y-65624366D01*
X88893511Y-65683258D01*
X88893502Y-65683261D01*
X88687267Y-65779431D01*
X88687265Y-65779432D01*
X88500858Y-65909954D01*
X88339954Y-66070858D01*
X88237156Y-66217671D01*
X88209432Y-66257266D01*
X88209315Y-66257518D01*
X88182106Y-66315867D01*
X88135933Y-66368306D01*
X88068739Y-66387457D01*
X88001858Y-66367241D01*
X87957342Y-66315865D01*
X87930135Y-66257520D01*
X87930134Y-66257518D01*
X87799657Y-66071179D01*
X87638820Y-65910342D01*
X87452482Y-65779865D01*
X87246328Y-65683734D01*
X87050000Y-65631127D01*
X87050000Y-67174498D01*
X86942315Y-67125320D01*
X86835763Y-67110000D01*
X86764237Y-67110000D01*
X86657685Y-67125320D01*
X86550000Y-67174498D01*
X86550000Y-65631127D01*
X86353671Y-65683734D01*
X86147517Y-65779865D01*
X85961179Y-65910342D01*
X85800342Y-66071179D01*
X85669867Y-66257515D01*
X85642657Y-66315867D01*
X85596484Y-66368306D01*
X85529290Y-66387457D01*
X85462409Y-66367241D01*
X85417893Y-66315865D01*
X85402536Y-66282933D01*
X85390568Y-66257266D01*
X85260047Y-66070861D01*
X85260045Y-66070858D01*
X85099141Y-65909954D01*
X84912734Y-65779432D01*
X84912732Y-65779431D01*
X84706497Y-65683261D01*
X84706488Y-65683258D01*
X84486697Y-65624366D01*
X84486693Y-65624365D01*
X84486692Y-65624365D01*
X84486691Y-65624364D01*
X84486686Y-65624364D01*
X84260002Y-65604532D01*
X84259998Y-65604532D01*
X84033313Y-65624364D01*
X84033302Y-65624366D01*
X83813511Y-65683258D01*
X83813502Y-65683261D01*
X83607267Y-65779431D01*
X83607265Y-65779432D01*
X83420858Y-65909954D01*
X83259954Y-66070858D01*
X83129432Y-66257265D01*
X83129431Y-66257267D01*
X83102382Y-66315275D01*
X83056209Y-66367714D01*
X82989016Y-66386866D01*
X82922135Y-66366650D01*
X82877618Y-66315275D01*
X82867067Y-66292649D01*
X82850568Y-66257266D01*
X82720047Y-66070861D01*
X82720045Y-66070858D01*
X82559141Y-65909954D01*
X82372734Y-65779432D01*
X82372732Y-65779431D01*
X82166497Y-65683261D01*
X82166488Y-65683258D01*
X81946697Y-65624366D01*
X81946693Y-65624365D01*
X81946692Y-65624365D01*
X81946691Y-65624364D01*
X81946686Y-65624364D01*
X81720002Y-65604532D01*
X81719998Y-65604532D01*
X81493313Y-65624364D01*
X81493302Y-65624366D01*
X81273511Y-65683258D01*
X81273502Y-65683261D01*
X81067267Y-65779431D01*
X81067265Y-65779432D01*
X80880858Y-65909954D01*
X80719954Y-66070858D01*
X80589432Y-66257265D01*
X80589431Y-66257267D01*
X80562382Y-66315275D01*
X80516209Y-66367714D01*
X80449016Y-66386866D01*
X80382135Y-66366650D01*
X80337618Y-66315275D01*
X80327067Y-66292649D01*
X80310568Y-66257266D01*
X80180047Y-66070861D01*
X80180045Y-66070858D01*
X80019141Y-65909954D01*
X79832734Y-65779432D01*
X79832732Y-65779431D01*
X79626497Y-65683261D01*
X79626488Y-65683258D01*
X79406697Y-65624366D01*
X79406693Y-65624365D01*
X79406692Y-65624365D01*
X79406691Y-65624364D01*
X79406686Y-65624364D01*
X79180002Y-65604532D01*
X79179998Y-65604532D01*
X78953313Y-65624364D01*
X78953302Y-65624366D01*
X78733511Y-65683258D01*
X78733502Y-65683261D01*
X78527267Y-65779431D01*
X78527265Y-65779432D01*
X78340858Y-65909954D01*
X78179954Y-66070858D01*
X78049432Y-66257265D01*
X78049431Y-66257267D01*
X78022382Y-66315275D01*
X77976209Y-66367714D01*
X77909016Y-66386866D01*
X77842135Y-66366650D01*
X77797618Y-66315275D01*
X77787067Y-66292649D01*
X77770568Y-66257266D01*
X77640047Y-66070861D01*
X77640045Y-66070858D01*
X77479141Y-65909954D01*
X77292734Y-65779432D01*
X77292732Y-65779431D01*
X77086497Y-65683261D01*
X77086488Y-65683258D01*
X76866697Y-65624366D01*
X76866693Y-65624365D01*
X76866692Y-65624365D01*
X76866691Y-65624364D01*
X76866686Y-65624364D01*
X76640002Y-65604532D01*
X76639998Y-65604532D01*
X76413313Y-65624364D01*
X76413302Y-65624366D01*
X76193511Y-65683258D01*
X76193502Y-65683261D01*
X75987267Y-65779431D01*
X75987265Y-65779432D01*
X75800858Y-65909954D01*
X75639954Y-66070858D01*
X75509432Y-66257265D01*
X75509431Y-66257267D01*
X75482382Y-66315275D01*
X75436209Y-66367714D01*
X75369016Y-66386866D01*
X75302135Y-66366650D01*
X75257618Y-66315275D01*
X75247067Y-66292649D01*
X75230568Y-66257266D01*
X75100047Y-66070861D01*
X75100045Y-66070858D01*
X74939141Y-65909954D01*
X74752734Y-65779432D01*
X74752732Y-65779431D01*
X74546497Y-65683261D01*
X74546488Y-65683258D01*
X74326697Y-65624366D01*
X74326693Y-65624365D01*
X74326692Y-65624365D01*
X74326691Y-65624364D01*
X74326686Y-65624364D01*
X74100002Y-65604532D01*
X74099998Y-65604532D01*
X73873313Y-65624364D01*
X73873302Y-65624366D01*
X73653511Y-65683258D01*
X73653502Y-65683261D01*
X73447267Y-65779431D01*
X73447265Y-65779432D01*
X73260858Y-65909954D01*
X73099954Y-66070858D01*
X72969432Y-66257265D01*
X72969431Y-66257267D01*
X72942382Y-66315275D01*
X72896209Y-66367714D01*
X72829016Y-66386866D01*
X72762135Y-66366650D01*
X72717618Y-66315275D01*
X72707067Y-66292649D01*
X72690568Y-66257266D01*
X72560047Y-66070861D01*
X72560045Y-66070858D01*
X72399141Y-65909954D01*
X72212734Y-65779432D01*
X72212732Y-65779431D01*
X72006497Y-65683261D01*
X72006488Y-65683258D01*
X71786697Y-65624366D01*
X71786693Y-65624365D01*
X71786692Y-65624365D01*
X71786691Y-65624364D01*
X71786686Y-65624364D01*
X71560002Y-65604532D01*
X71559998Y-65604532D01*
X71333313Y-65624364D01*
X71333302Y-65624366D01*
X71113511Y-65683258D01*
X71113502Y-65683261D01*
X70907267Y-65779431D01*
X70907265Y-65779432D01*
X70720858Y-65909954D01*
X70559954Y-66070858D01*
X70429432Y-66257265D01*
X70429431Y-66257267D01*
X70333261Y-66463502D01*
X70333258Y-66463511D01*
X70274366Y-66683302D01*
X70274364Y-66683312D01*
X70259500Y-66853214D01*
X70259500Y-68366785D01*
X70274364Y-68536687D01*
X70274366Y-68536697D01*
X70333258Y-68756488D01*
X70333261Y-68756497D01*
X70429431Y-68962732D01*
X70429432Y-68962734D01*
X70559954Y-69149141D01*
X70720858Y-69310045D01*
X70731911Y-69317784D01*
X70907266Y-69440568D01*
X71113504Y-69536739D01*
X71333308Y-69595635D01*
X71490300Y-69609370D01*
X71559998Y-69615468D01*
X71560000Y-69615468D01*
X71560002Y-69615468D01*
X71629700Y-69609370D01*
X71786692Y-69595635D01*
X72006496Y-69536739D01*
X72212734Y-69440568D01*
X72399139Y-69310047D01*
X72560047Y-69149139D01*
X72690568Y-68962734D01*
X72717618Y-68904724D01*
X72763790Y-68852285D01*
X72830983Y-68833133D01*
X72897865Y-68853348D01*
X72942382Y-68904725D01*
X72969429Y-68962728D01*
X72969432Y-68962734D01*
X73099954Y-69149141D01*
X73260858Y-69310045D01*
X73271911Y-69317784D01*
X73447266Y-69440568D01*
X73653504Y-69536739D01*
X73873308Y-69595635D01*
X74030300Y-69609370D01*
X74099998Y-69615468D01*
X74100000Y-69615468D01*
X74100002Y-69615468D01*
X74169700Y-69609370D01*
X74326692Y-69595635D01*
X74546496Y-69536739D01*
X74752734Y-69440568D01*
X74939139Y-69310047D01*
X75100047Y-69149139D01*
X75230568Y-68962734D01*
X75257618Y-68904724D01*
X75303790Y-68852285D01*
X75370983Y-68833133D01*
X75437865Y-68853348D01*
X75482382Y-68904725D01*
X75509429Y-68962728D01*
X75509432Y-68962734D01*
X75639954Y-69149141D01*
X75800858Y-69310045D01*
X75811911Y-69317784D01*
X75987266Y-69440568D01*
X76193504Y-69536739D01*
X76413308Y-69595635D01*
X76570300Y-69609370D01*
X76639998Y-69615468D01*
X76640000Y-69615468D01*
X76640002Y-69615468D01*
X76709700Y-69609370D01*
X76866692Y-69595635D01*
X77086496Y-69536739D01*
X77292734Y-69440568D01*
X77479139Y-69310047D01*
X77640047Y-69149139D01*
X77770568Y-68962734D01*
X77797618Y-68904724D01*
X77843790Y-68852285D01*
X77910983Y-68833133D01*
X77977865Y-68853348D01*
X78022382Y-68904725D01*
X78049429Y-68962728D01*
X78049432Y-68962734D01*
X78179954Y-69149141D01*
X78340858Y-69310045D01*
X78351911Y-69317784D01*
X78527266Y-69440568D01*
X78733504Y-69536739D01*
X78953308Y-69595635D01*
X79110300Y-69609370D01*
X79179998Y-69615468D01*
X79180000Y-69615468D01*
X79180002Y-69615468D01*
X79249700Y-69609370D01*
X79406692Y-69595635D01*
X79626496Y-69536739D01*
X79832734Y-69440568D01*
X80019139Y-69310047D01*
X80180047Y-69149139D01*
X80310568Y-68962734D01*
X80337619Y-68904721D01*
X80383788Y-68852286D01*
X80450981Y-68833133D01*
X80517862Y-68853348D01*
X80562380Y-68904722D01*
X80589432Y-68962734D01*
X80592013Y-68966420D01*
X80719954Y-69149141D01*
X80880858Y-69310045D01*
X80891911Y-69317784D01*
X81067266Y-69440568D01*
X81273504Y-69536739D01*
X81493308Y-69595635D01*
X81650300Y-69609370D01*
X81719998Y-69615468D01*
X81720000Y-69615468D01*
X81720002Y-69615468D01*
X81789700Y-69609370D01*
X81946692Y-69595635D01*
X82166496Y-69536739D01*
X82372734Y-69440568D01*
X82559139Y-69310047D01*
X82720047Y-69149139D01*
X82850568Y-68962734D01*
X82877619Y-68904721D01*
X82923788Y-68852286D01*
X82990981Y-68833133D01*
X83057862Y-68853348D01*
X83102380Y-68904722D01*
X83129432Y-68962734D01*
X83132013Y-68966420D01*
X83259954Y-69149141D01*
X83420858Y-69310045D01*
X83581623Y-69422613D01*
X83625248Y-69477189D01*
X83634500Y-69524188D01*
X83634500Y-75047086D01*
X83632775Y-75062703D01*
X83633061Y-75062730D01*
X83632326Y-75070497D01*
X83634469Y-75138677D01*
X83634500Y-75140624D01*
X83634500Y-75169174D01*
X83634501Y-75169191D01*
X83635368Y-75176062D01*
X83635826Y-75181881D01*
X83637290Y-75228455D01*
X83637291Y-75228458D01*
X83642880Y-75247698D01*
X83646824Y-75266742D01*
X83649336Y-75286622D01*
X83666490Y-75329950D01*
X83668382Y-75335478D01*
X83681381Y-75380219D01*
X83691580Y-75397465D01*
X83700136Y-75414931D01*
X83705191Y-75427696D01*
X83707514Y-75433563D01*
X83734898Y-75471254D01*
X83738106Y-75476138D01*
X83761827Y-75516247D01*
X83761833Y-75516255D01*
X83775990Y-75530411D01*
X83788627Y-75545206D01*
X83800406Y-75561418D01*
X83835253Y-75590246D01*
X83836309Y-75591119D01*
X83840620Y-75595041D01*
X89838094Y-81592516D01*
X91814366Y-83568788D01*
X91824191Y-83581051D01*
X91824412Y-83580869D01*
X91829380Y-83586874D01*
X91879101Y-83633566D01*
X91880501Y-83634923D01*
X91900692Y-83655115D01*
X91900696Y-83655118D01*
X91900698Y-83655120D01*
X91906180Y-83659373D01*
X91910612Y-83663157D01*
X91944587Y-83695062D01*
X91962145Y-83704714D01*
X91978404Y-83715395D01*
X91994233Y-83727673D01*
X92037007Y-83746182D01*
X92042225Y-83748738D01*
X92083077Y-83771197D01*
X92102485Y-83776180D01*
X92120886Y-83782480D01*
X92139273Y-83790437D01*
X92182657Y-83797308D01*
X92185288Y-83797725D01*
X92191008Y-83798909D01*
X92236150Y-83810500D01*
X92256185Y-83810500D01*
X92275583Y-83812026D01*
X92295363Y-83815159D01*
X92295364Y-83815160D01*
X92295364Y-83815159D01*
X92295365Y-83815160D01*
X92341752Y-83810775D01*
X92347591Y-83810500D01*
X97707257Y-83810500D01*
X97722877Y-83812224D01*
X97722904Y-83811939D01*
X97730666Y-83812673D01*
X97730666Y-83812672D01*
X97730667Y-83812673D01*
X97733999Y-83812568D01*
X97798847Y-83810531D01*
X97800794Y-83810500D01*
X97829347Y-83810500D01*
X97829350Y-83810500D01*
X97836228Y-83809630D01*
X97842041Y-83809172D01*
X97888627Y-83807709D01*
X97907869Y-83802117D01*
X97926912Y-83798174D01*
X97946792Y-83795664D01*
X97990122Y-83778507D01*
X97995646Y-83776617D01*
X97999396Y-83775527D01*
X98040390Y-83763618D01*
X98057629Y-83753422D01*
X98075103Y-83744862D01*
X98093727Y-83737488D01*
X98093727Y-83737487D01*
X98093732Y-83737486D01*
X98131449Y-83710082D01*
X98136305Y-83706892D01*
X98176420Y-83683170D01*
X98190589Y-83668999D01*
X98205379Y-83656368D01*
X98221587Y-83644594D01*
X98251299Y-83608676D01*
X98255212Y-83604376D01*
X112525971Y-69333619D01*
X112587295Y-69300134D01*
X112613653Y-69297300D01*
X113565500Y-69297300D01*
X113632539Y-69316985D01*
X113678294Y-69369789D01*
X113689500Y-69421300D01*
X113689500Y-70747870D01*
X113689501Y-70747876D01*
X113695908Y-70807483D01*
X113746202Y-70942328D01*
X113746203Y-70942330D01*
X113823578Y-71045689D01*
X113847995Y-71111153D01*
X113833144Y-71179426D01*
X113823578Y-71194311D01*
X113746203Y-71297669D01*
X113746202Y-71297671D01*
X113695908Y-71432517D01*
X113689501Y-71492116D01*
X113689501Y-71492123D01*
X113689500Y-71492135D01*
X113689500Y-73287870D01*
X113689501Y-73287876D01*
X113695908Y-73347483D01*
X113746202Y-73482328D01*
X113746206Y-73482335D01*
X113823889Y-73586105D01*
X113848307Y-73651569D01*
X113833456Y-73719842D01*
X113823890Y-73734727D01*
X113746647Y-73837910D01*
X113746645Y-73837913D01*
X113696403Y-73972620D01*
X113696401Y-73972627D01*
X113690000Y-74032155D01*
X113690000Y-74680000D01*
X116066000Y-74680000D01*
X116133039Y-74699685D01*
X116178794Y-74752489D01*
X116190000Y-74804000D01*
X116190000Y-75056000D01*
X116170315Y-75123039D01*
X116117511Y-75168794D01*
X116066000Y-75180000D01*
X113690000Y-75180000D01*
X113690000Y-75827844D01*
X113696401Y-75887372D01*
X113696403Y-75887379D01*
X113746645Y-76022086D01*
X113746646Y-76022088D01*
X113823890Y-76125272D01*
X113848307Y-76190736D01*
X113833456Y-76259009D01*
X113823890Y-76273894D01*
X113746204Y-76377669D01*
X113746202Y-76377671D01*
X113695908Y-76512517D01*
X113693127Y-76538388D01*
X113689501Y-76572123D01*
X113689500Y-76572135D01*
X113689500Y-78068146D01*
X113669815Y-78135185D01*
X113653181Y-78155827D01*
X106296208Y-85512799D01*
X106283951Y-85522620D01*
X106284134Y-85522841D01*
X106278122Y-85527814D01*
X106231432Y-85577532D01*
X106230079Y-85578929D01*
X106209889Y-85599119D01*
X106209877Y-85599132D01*
X106205621Y-85604617D01*
X106201837Y-85609047D01*
X106169937Y-85643018D01*
X106169936Y-85643020D01*
X106160284Y-85660576D01*
X106149610Y-85676826D01*
X106137329Y-85692661D01*
X106137324Y-85692668D01*
X106118815Y-85735438D01*
X106116245Y-85740684D01*
X106093803Y-85781506D01*
X106088822Y-85800907D01*
X106082521Y-85819310D01*
X106074562Y-85837702D01*
X106074561Y-85837705D01*
X106067271Y-85883727D01*
X106066087Y-85889446D01*
X106054501Y-85934572D01*
X106054500Y-85934582D01*
X106054500Y-85954616D01*
X106052973Y-85974015D01*
X106049840Y-85993794D01*
X106049840Y-85993795D01*
X106054225Y-86040183D01*
X106054500Y-86046021D01*
X106054500Y-111205062D01*
X106034815Y-111272101D01*
X106018181Y-111292743D01*
X103672744Y-113638181D01*
X103611421Y-113671666D01*
X103585063Y-113674500D01*
X70782743Y-113674500D01*
X70767122Y-113672775D01*
X70767096Y-113673061D01*
X70759333Y-113672326D01*
X70691153Y-113674469D01*
X70689206Y-113674500D01*
X70660649Y-113674500D01*
X70653766Y-113675369D01*
X70647949Y-113675826D01*
X70601373Y-113677290D01*
X70582129Y-113682881D01*
X70563079Y-113686825D01*
X70543211Y-113689334D01*
X70499884Y-113706488D01*
X70494358Y-113708379D01*
X70449614Y-113721379D01*
X70449610Y-113721381D01*
X70432366Y-113731579D01*
X70414905Y-113740133D01*
X70396274Y-113747510D01*
X70396262Y-113747517D01*
X70358570Y-113774902D01*
X70353687Y-113778109D01*
X70313580Y-113801829D01*
X70299414Y-113815995D01*
X70284624Y-113828627D01*
X70268414Y-113840404D01*
X70268411Y-113840407D01*
X70238710Y-113876309D01*
X70234777Y-113880631D01*
X68772228Y-115343181D01*
X68710905Y-115376666D01*
X68684547Y-115379500D01*
X67263384Y-115379500D01*
X67244145Y-115381248D01*
X67192807Y-115385913D01*
X67030393Y-115436522D01*
X66884811Y-115524530D01*
X66764530Y-115644811D01*
X66676522Y-115790393D01*
X66625913Y-115952807D01*
X66619500Y-116023386D01*
X66619500Y-117736613D01*
X66625913Y-117807192D01*
X66625913Y-117807194D01*
X66625914Y-117807196D01*
X66650218Y-117885191D01*
X66676522Y-117969606D01*
X66764530Y-118115188D01*
X66884811Y-118235469D01*
X66884813Y-118235470D01*
X66884815Y-118235472D01*
X67030394Y-118323478D01*
X67192804Y-118374086D01*
X67263384Y-118380500D01*
X67370500Y-118380500D01*
X67437539Y-118400185D01*
X67483294Y-118452989D01*
X67494500Y-118504500D01*
X67494500Y-127955500D01*
X67474815Y-128022539D01*
X67422011Y-128068294D01*
X67370500Y-128079500D01*
X67263384Y-128079500D01*
X67244145Y-128081248D01*
X67192807Y-128085913D01*
X67030393Y-128136522D01*
X66884811Y-128224530D01*
X66764530Y-128344811D01*
X66676522Y-128490393D01*
X66625913Y-128652807D01*
X66619500Y-128723386D01*
X66619500Y-130436613D01*
X66625913Y-130507192D01*
X66676522Y-130669606D01*
X66764530Y-130815188D01*
X66884811Y-130935469D01*
X66884813Y-130935470D01*
X66884815Y-130935472D01*
X67030394Y-131023478D01*
X67192804Y-131074086D01*
X67263384Y-131080500D01*
X67370500Y-131080500D01*
X67437539Y-131100185D01*
X67483294Y-131152989D01*
X67494500Y-131204500D01*
X67494500Y-140655500D01*
X67474815Y-140722539D01*
X67422011Y-140768294D01*
X67370500Y-140779500D01*
X67263384Y-140779500D01*
X67244145Y-140781248D01*
X67192807Y-140785913D01*
X67030393Y-140836522D01*
X66884811Y-140924530D01*
X66764530Y-141044811D01*
X66676522Y-141190393D01*
X66625913Y-141352807D01*
X66619500Y-141423386D01*
X66619500Y-143136613D01*
X66625913Y-143207192D01*
X66625913Y-143207194D01*
X66625914Y-143207196D01*
X66650218Y-143285191D01*
X66676522Y-143369606D01*
X66764530Y-143515188D01*
X66884811Y-143635469D01*
X66884813Y-143635470D01*
X66884815Y-143635472D01*
X67030394Y-143723478D01*
X67192804Y-143774086D01*
X67263384Y-143780500D01*
X67370500Y-143780500D01*
X67437539Y-143800185D01*
X67483294Y-143852989D01*
X67494500Y-143904500D01*
X67494500Y-153355500D01*
X67474815Y-153422539D01*
X67422011Y-153468294D01*
X67370500Y-153479500D01*
X67263384Y-153479500D01*
X67244145Y-153481248D01*
X67192807Y-153485913D01*
X67030393Y-153536522D01*
X66884811Y-153624530D01*
X66764530Y-153744811D01*
X66676522Y-153890393D01*
X66625913Y-154052807D01*
X66619500Y-154123386D01*
X66619500Y-155836613D01*
X66625913Y-155907192D01*
X66625913Y-155907194D01*
X66625914Y-155907196D01*
X66650218Y-155985191D01*
X66676522Y-156069606D01*
X66764530Y-156215188D01*
X66884811Y-156335469D01*
X66884813Y-156335470D01*
X66884815Y-156335472D01*
X67030394Y-156423478D01*
X67192804Y-156474086D01*
X67263384Y-156480500D01*
X67263387Y-156480500D01*
X68976613Y-156480500D01*
X68976616Y-156480500D01*
X69047196Y-156474086D01*
X69209606Y-156423478D01*
X69355185Y-156335472D01*
X69475472Y-156215185D01*
X69563478Y-156069606D01*
X69614086Y-155907196D01*
X69620500Y-155836616D01*
X69620500Y-154123384D01*
X69614086Y-154052804D01*
X69563478Y-153890394D01*
X69475472Y-153744815D01*
X69475470Y-153744813D01*
X69475469Y-153744811D01*
X69355188Y-153624530D01*
X69209606Y-153536522D01*
X69209605Y-153536521D01*
X69047196Y-153485914D01*
X69047194Y-153485913D01*
X69047192Y-153485913D01*
X68997778Y-153481423D01*
X68976616Y-153479500D01*
X68976613Y-153479500D01*
X68869500Y-153479500D01*
X68802461Y-153459815D01*
X68756706Y-153407011D01*
X68745500Y-153355500D01*
X68745500Y-143904500D01*
X68765185Y-143837461D01*
X68817989Y-143791706D01*
X68869500Y-143780500D01*
X68976613Y-143780500D01*
X68976616Y-143780500D01*
X69047196Y-143774086D01*
X69209606Y-143723478D01*
X69355185Y-143635472D01*
X69475472Y-143515185D01*
X69563478Y-143369606D01*
X69614086Y-143207196D01*
X69620500Y-143136616D01*
X69620500Y-141423384D01*
X69614086Y-141352804D01*
X69563478Y-141190394D01*
X69475472Y-141044815D01*
X69475470Y-141044813D01*
X69475469Y-141044811D01*
X69355188Y-140924530D01*
X69209606Y-140836522D01*
X69209605Y-140836521D01*
X69047196Y-140785914D01*
X69047194Y-140785913D01*
X69047192Y-140785913D01*
X68997778Y-140781423D01*
X68976616Y-140779500D01*
X68976613Y-140779500D01*
X68869500Y-140779500D01*
X68802461Y-140759815D01*
X68756706Y-140707011D01*
X68745500Y-140655500D01*
X68745500Y-131204500D01*
X68765185Y-131137461D01*
X68817989Y-131091706D01*
X68869500Y-131080500D01*
X68976613Y-131080500D01*
X68976616Y-131080500D01*
X69047196Y-131074086D01*
X69209606Y-131023478D01*
X69355185Y-130935472D01*
X69475472Y-130815185D01*
X69563478Y-130669606D01*
X69614086Y-130507196D01*
X69620500Y-130436616D01*
X69620500Y-128723384D01*
X69614086Y-128652804D01*
X69563478Y-128490394D01*
X69475472Y-128344815D01*
X69475470Y-128344813D01*
X69475469Y-128344811D01*
X69355188Y-128224530D01*
X69209606Y-128136522D01*
X69157242Y-128120205D01*
X69047196Y-128085914D01*
X69047194Y-128085913D01*
X69047192Y-128085913D01*
X68997778Y-128081423D01*
X68976616Y-128079500D01*
X68976613Y-128079500D01*
X68869500Y-128079500D01*
X68802461Y-128059815D01*
X68756706Y-128007011D01*
X68745500Y-127955500D01*
X68745500Y-118504500D01*
X68765185Y-118437461D01*
X68817989Y-118391706D01*
X68869500Y-118380500D01*
X68976613Y-118380500D01*
X68976616Y-118380500D01*
X69047196Y-118374086D01*
X69209606Y-118323478D01*
X69355185Y-118235472D01*
X69475472Y-118115185D01*
X69563478Y-117969606D01*
X69614086Y-117807196D01*
X69620500Y-117736616D01*
X69620500Y-116315452D01*
X69640185Y-116248413D01*
X69656819Y-116227771D01*
X70922772Y-114961819D01*
X70984095Y-114928334D01*
X71010453Y-114925500D01*
X92167867Y-114925500D01*
X92234906Y-114945185D01*
X92280661Y-114997989D01*
X92290605Y-115067147D01*
X92263405Y-115128547D01*
X92248707Y-115146312D01*
X92244776Y-115150631D01*
X91492228Y-115903181D01*
X91430905Y-115936666D01*
X91404547Y-115939500D01*
X91345354Y-115939500D01*
X91312897Y-115946398D01*
X91160197Y-115978855D01*
X91160192Y-115978857D01*
X90987270Y-116055848D01*
X90987265Y-116055851D01*
X90834130Y-116167110D01*
X90834126Y-116167114D01*
X90828400Y-116173474D01*
X90768913Y-116210121D01*
X90736252Y-116214500D01*
X90064500Y-116214500D01*
X89997461Y-116194815D01*
X89951706Y-116142011D01*
X89940500Y-116090500D01*
X89940500Y-116023386D01*
X89939168Y-116008724D01*
X89934086Y-115952804D01*
X89883478Y-115790394D01*
X89795472Y-115644815D01*
X89795470Y-115644813D01*
X89795469Y-115644811D01*
X89675188Y-115524530D01*
X89529606Y-115436522D01*
X89529605Y-115436521D01*
X89367196Y-115385914D01*
X89367194Y-115385913D01*
X89367192Y-115385913D01*
X89317778Y-115381423D01*
X89296616Y-115379500D01*
X87583384Y-115379500D01*
X87564145Y-115381248D01*
X87512807Y-115385913D01*
X87350393Y-115436522D01*
X87204811Y-115524530D01*
X87084530Y-115644811D01*
X86996522Y-115790393D01*
X86945913Y-115952807D01*
X86939500Y-116023386D01*
X86939500Y-117736613D01*
X86945913Y-117807192D01*
X86945913Y-117807194D01*
X86945914Y-117807196D01*
X86970218Y-117885191D01*
X86996522Y-117969606D01*
X87084530Y-118115188D01*
X87204811Y-118235469D01*
X87204813Y-118235470D01*
X87204815Y-118235472D01*
X87350394Y-118323478D01*
X87512804Y-118374086D01*
X87583384Y-118380500D01*
X87583387Y-118380500D01*
X89296613Y-118380500D01*
X89296616Y-118380500D01*
X89367196Y-118374086D01*
X89529606Y-118323478D01*
X89675185Y-118235472D01*
X89795472Y-118115185D01*
X89883478Y-117969606D01*
X89934086Y-117807196D01*
X89940500Y-117736616D01*
X89940500Y-117589500D01*
X89960185Y-117522461D01*
X90012989Y-117476706D01*
X90064500Y-117465500D01*
X90736252Y-117465500D01*
X90803291Y-117485185D01*
X90828400Y-117506526D01*
X90834126Y-117512885D01*
X90834130Y-117512889D01*
X90987265Y-117624148D01*
X90987270Y-117624151D01*
X91160192Y-117701142D01*
X91160197Y-117701144D01*
X91345354Y-117740500D01*
X91345355Y-117740500D01*
X91534644Y-117740500D01*
X91534646Y-117740500D01*
X91719803Y-117701144D01*
X91892730Y-117624151D01*
X92045871Y-117512888D01*
X92172533Y-117372216D01*
X92267179Y-117208284D01*
X92325674Y-117028256D01*
X92343321Y-116860344D01*
X92369904Y-116795734D01*
X92378951Y-116785638D01*
X92727821Y-116436768D01*
X92789142Y-116403285D01*
X92858834Y-116408269D01*
X92914767Y-116450141D01*
X92939184Y-116515605D01*
X92939500Y-116524451D01*
X92939500Y-117444546D01*
X92919815Y-117511585D01*
X92903181Y-117532227D01*
X91717228Y-118718181D01*
X91655905Y-118751666D01*
X91629547Y-118754500D01*
X76930452Y-118754500D01*
X76863413Y-118734815D01*
X76842771Y-118718181D01*
X75656819Y-117532228D01*
X75623334Y-117470905D01*
X75620500Y-117444547D01*
X75620500Y-116023386D01*
X75619168Y-116008724D01*
X75614086Y-115952804D01*
X75563478Y-115790394D01*
X75475472Y-115644815D01*
X75475470Y-115644813D01*
X75475469Y-115644811D01*
X75355188Y-115524530D01*
X75209606Y-115436522D01*
X75209606Y-115436521D01*
X75047196Y-115385914D01*
X75047194Y-115385913D01*
X75047192Y-115385913D01*
X74997778Y-115381423D01*
X74976616Y-115379500D01*
X73263384Y-115379500D01*
X73244145Y-115381248D01*
X73192807Y-115385913D01*
X73030393Y-115436522D01*
X72884811Y-115524530D01*
X72764530Y-115644811D01*
X72676522Y-115790393D01*
X72625913Y-115952807D01*
X72619500Y-116023386D01*
X72619500Y-117736613D01*
X72625913Y-117807192D01*
X72625913Y-117807194D01*
X72625914Y-117807196D01*
X72650218Y-117885191D01*
X72676522Y-117969606D01*
X72764530Y-118115188D01*
X72884811Y-118235469D01*
X72884813Y-118235470D01*
X72884815Y-118235472D01*
X73030394Y-118323478D01*
X73192804Y-118374086D01*
X73263384Y-118380500D01*
X74684548Y-118380500D01*
X74751587Y-118400185D01*
X74772229Y-118416819D01*
X76119197Y-119763788D01*
X76129022Y-119776051D01*
X76129243Y-119775869D01*
X76134211Y-119781874D01*
X76183932Y-119828566D01*
X76185332Y-119829923D01*
X76205523Y-119850115D01*
X76205527Y-119850118D01*
X76205529Y-119850120D01*
X76211011Y-119854373D01*
X76215443Y-119858157D01*
X76249418Y-119890062D01*
X76266976Y-119899714D01*
X76283233Y-119910393D01*
X76299064Y-119922673D01*
X76318737Y-119931186D01*
X76341833Y-119941182D01*
X76347077Y-119943750D01*
X76387908Y-119966197D01*
X76400523Y-119969435D01*
X76407305Y-119971177D01*
X76425719Y-119977481D01*
X76444104Y-119985438D01*
X76490157Y-119992732D01*
X76495826Y-119993906D01*
X76540981Y-120005500D01*
X76561016Y-120005500D01*
X76580413Y-120007026D01*
X76600196Y-120010160D01*
X76646583Y-120005775D01*
X76652422Y-120005500D01*
X91857257Y-120005500D01*
X91872877Y-120007224D01*
X91872904Y-120006939D01*
X91880666Y-120007673D01*
X91880666Y-120007672D01*
X91880667Y-120007673D01*
X91883999Y-120007568D01*
X91948847Y-120005531D01*
X91950794Y-120005500D01*
X91979347Y-120005500D01*
X91979350Y-120005500D01*
X91986228Y-120004630D01*
X91992041Y-120004172D01*
X92038627Y-120002709D01*
X92057869Y-119997117D01*
X92076912Y-119993174D01*
X92096792Y-119990664D01*
X92140122Y-119973507D01*
X92145646Y-119971617D01*
X92149396Y-119970527D01*
X92190390Y-119958618D01*
X92207629Y-119948422D01*
X92225103Y-119939862D01*
X92243727Y-119932488D01*
X92243727Y-119932487D01*
X92243732Y-119932486D01*
X92281449Y-119905082D01*
X92286305Y-119901892D01*
X92326420Y-119878170D01*
X92340589Y-119863999D01*
X92355379Y-119851368D01*
X92371587Y-119839594D01*
X92401299Y-119803676D01*
X92405212Y-119799376D01*
X93787771Y-118416819D01*
X93849095Y-118383334D01*
X93875453Y-118380500D01*
X94584548Y-118380500D01*
X94651587Y-118400185D01*
X94672229Y-118416819D01*
X96019197Y-119763788D01*
X96029022Y-119776051D01*
X96029243Y-119775869D01*
X96034211Y-119781874D01*
X96083932Y-119828566D01*
X96085332Y-119829923D01*
X96105523Y-119850115D01*
X96105527Y-119850118D01*
X96105529Y-119850120D01*
X96111011Y-119854373D01*
X96115443Y-119858157D01*
X96149418Y-119890062D01*
X96166976Y-119899714D01*
X96183235Y-119910395D01*
X96199064Y-119922673D01*
X96241838Y-119941182D01*
X96247056Y-119943738D01*
X96287908Y-119966197D01*
X96307316Y-119971180D01*
X96325717Y-119977480D01*
X96344104Y-119985437D01*
X96387488Y-119992308D01*
X96390119Y-119992725D01*
X96395839Y-119993909D01*
X96440981Y-120005500D01*
X96461016Y-120005500D01*
X96480414Y-120007026D01*
X96500194Y-120010159D01*
X96500195Y-120010160D01*
X96500195Y-120010159D01*
X96500196Y-120010160D01*
X96546583Y-120005775D01*
X96552422Y-120005500D01*
X112177257Y-120005500D01*
X112192877Y-120007224D01*
X112192904Y-120006939D01*
X112200666Y-120007673D01*
X112200666Y-120007672D01*
X112200667Y-120007673D01*
X112203999Y-120007568D01*
X112268847Y-120005531D01*
X112270794Y-120005500D01*
X112299347Y-120005500D01*
X112299350Y-120005500D01*
X112306228Y-120004630D01*
X112312041Y-120004172D01*
X112358627Y-120002709D01*
X112377869Y-119997117D01*
X112396912Y-119993174D01*
X112416792Y-119990664D01*
X112460122Y-119973507D01*
X112465646Y-119971617D01*
X112469396Y-119970527D01*
X112510390Y-119958618D01*
X112527629Y-119948422D01*
X112545103Y-119939862D01*
X112563727Y-119932488D01*
X112563727Y-119932487D01*
X112563732Y-119932486D01*
X112601449Y-119905082D01*
X112606305Y-119901892D01*
X112646420Y-119878170D01*
X112660589Y-119863999D01*
X112675379Y-119851368D01*
X112691587Y-119839594D01*
X112721299Y-119803676D01*
X112725212Y-119799376D01*
X114107771Y-118416819D01*
X114169095Y-118383334D01*
X114195453Y-118380500D01*
X114904548Y-118380500D01*
X114971587Y-118400185D01*
X114992229Y-118416819D01*
X116339197Y-119763788D01*
X116349022Y-119776051D01*
X116349243Y-119775869D01*
X116354211Y-119781874D01*
X116403932Y-119828566D01*
X116405332Y-119829923D01*
X116425523Y-119850115D01*
X116425527Y-119850118D01*
X116425529Y-119850120D01*
X116431011Y-119854373D01*
X116435443Y-119858157D01*
X116469418Y-119890062D01*
X116486976Y-119899714D01*
X116503235Y-119910395D01*
X116519064Y-119922673D01*
X116561838Y-119941182D01*
X116567056Y-119943738D01*
X116607908Y-119966197D01*
X116627316Y-119971180D01*
X116645717Y-119977480D01*
X116664104Y-119985437D01*
X116707488Y-119992308D01*
X116710119Y-119992725D01*
X116715839Y-119993909D01*
X116760981Y-120005500D01*
X116781016Y-120005500D01*
X116800414Y-120007026D01*
X116820194Y-120010159D01*
X116820195Y-120010160D01*
X116820195Y-120010159D01*
X116820196Y-120010160D01*
X116866583Y-120005775D01*
X116872422Y-120005500D01*
X132497257Y-120005500D01*
X132512877Y-120007224D01*
X132512904Y-120006939D01*
X132520666Y-120007673D01*
X132520666Y-120007672D01*
X132520667Y-120007673D01*
X132523999Y-120007568D01*
X132588847Y-120005531D01*
X132590794Y-120005500D01*
X132619347Y-120005500D01*
X132619350Y-120005500D01*
X132626228Y-120004630D01*
X132632041Y-120004172D01*
X132678627Y-120002709D01*
X132697869Y-119997117D01*
X132716912Y-119993174D01*
X132736792Y-119990664D01*
X132780122Y-119973507D01*
X132785646Y-119971617D01*
X132789396Y-119970527D01*
X132830390Y-119958618D01*
X132847629Y-119948422D01*
X132865103Y-119939862D01*
X132883727Y-119932488D01*
X132883727Y-119932487D01*
X132883732Y-119932486D01*
X132921449Y-119905082D01*
X132926305Y-119901892D01*
X132966420Y-119878170D01*
X132980589Y-119863999D01*
X132995379Y-119851368D01*
X133011587Y-119839594D01*
X133041299Y-119803676D01*
X133045212Y-119799376D01*
X134427771Y-118416819D01*
X134489095Y-118383334D01*
X134515453Y-118380500D01*
X135936613Y-118380500D01*
X135936616Y-118380500D01*
X136007196Y-118374086D01*
X136169606Y-118323478D01*
X136315185Y-118235472D01*
X136435472Y-118115185D01*
X136523478Y-117969606D01*
X136574086Y-117807196D01*
X136580500Y-117736616D01*
X136580500Y-116023384D01*
X136574086Y-115952804D01*
X136523478Y-115790394D01*
X136435472Y-115644815D01*
X136435470Y-115644813D01*
X136435469Y-115644811D01*
X136315188Y-115524530D01*
X136169606Y-115436522D01*
X136169605Y-115436521D01*
X136007196Y-115385914D01*
X136007194Y-115385913D01*
X136007192Y-115385913D01*
X135957778Y-115381423D01*
X135936616Y-115379500D01*
X135936613Y-115379500D01*
X135829500Y-115379500D01*
X135762461Y-115359815D01*
X135716706Y-115307011D01*
X135705500Y-115255500D01*
X135705500Y-112771296D01*
X135725185Y-112704257D01*
X135777989Y-112658502D01*
X135847147Y-112648558D01*
X135910703Y-112677583D01*
X135917181Y-112683615D01*
X137225381Y-113991815D01*
X137258866Y-114053138D01*
X137261700Y-114079496D01*
X137261700Y-126462347D01*
X137242015Y-126529386D01*
X137225381Y-126550028D01*
X135732228Y-128043181D01*
X135670905Y-128076666D01*
X135644547Y-128079500D01*
X134223384Y-128079500D01*
X134204145Y-128081248D01*
X134152807Y-128085913D01*
X133990393Y-128136522D01*
X133844811Y-128224530D01*
X133724530Y-128344811D01*
X133636522Y-128490393D01*
X133585913Y-128652807D01*
X133579500Y-128723386D01*
X133579500Y-130144547D01*
X133559815Y-130211586D01*
X133543181Y-130232228D01*
X132357228Y-131418181D01*
X132295905Y-131451666D01*
X132269547Y-131454500D01*
X117570452Y-131454500D01*
X117503413Y-131434815D01*
X117482771Y-131418181D01*
X116501204Y-130436613D01*
X127579500Y-130436613D01*
X127585913Y-130507192D01*
X127636522Y-130669606D01*
X127724530Y-130815188D01*
X127844811Y-130935469D01*
X127844813Y-130935470D01*
X127844815Y-130935472D01*
X127990394Y-131023478D01*
X128152804Y-131074086D01*
X128223384Y-131080500D01*
X128223387Y-131080500D01*
X129936613Y-131080500D01*
X129936616Y-131080500D01*
X130007196Y-131074086D01*
X130169606Y-131023478D01*
X130315185Y-130935472D01*
X130435472Y-130815185D01*
X130523478Y-130669606D01*
X130574086Y-130507196D01*
X130580500Y-130436616D01*
X130580499Y-130329500D01*
X130600185Y-130262461D01*
X130652989Y-130216706D01*
X130704500Y-130205500D01*
X131423671Y-130205500D01*
X131490710Y-130225185D01*
X131496537Y-130229168D01*
X131542361Y-130262461D01*
X131627270Y-130324151D01*
X131800192Y-130401142D01*
X131800197Y-130401144D01*
X131985354Y-130440500D01*
X131985355Y-130440500D01*
X132174644Y-130440500D01*
X132174646Y-130440500D01*
X132359803Y-130401144D01*
X132532730Y-130324151D01*
X132685871Y-130212888D01*
X132812533Y-130072216D01*
X132907179Y-129908284D01*
X132965674Y-129728256D01*
X132985460Y-129540000D01*
X132965674Y-129351744D01*
X132907179Y-129171716D01*
X132812533Y-129007784D01*
X132685871Y-128867112D01*
X132685870Y-128867111D01*
X132532734Y-128755851D01*
X132532729Y-128755848D01*
X132359807Y-128678857D01*
X132359802Y-128678855D01*
X132214001Y-128647865D01*
X132174646Y-128639500D01*
X131985354Y-128639500D01*
X131952897Y-128646398D01*
X131800197Y-128678855D01*
X131800192Y-128678857D01*
X131627270Y-128755848D01*
X131627265Y-128755851D01*
X131474135Y-128867106D01*
X131474133Y-128867107D01*
X131460714Y-128882011D01*
X131432383Y-128913474D01*
X131372899Y-128950121D01*
X131340236Y-128954500D01*
X130704500Y-128954500D01*
X130637461Y-128934815D01*
X130591706Y-128882011D01*
X130580500Y-128830500D01*
X130580500Y-128723386D01*
X130580500Y-128723384D01*
X130574086Y-128652804D01*
X130523478Y-128490394D01*
X130435472Y-128344815D01*
X130435470Y-128344813D01*
X130435469Y-128344811D01*
X130315188Y-128224530D01*
X130169606Y-128136522D01*
X130117242Y-128120205D01*
X130007196Y-128085914D01*
X130007194Y-128085913D01*
X130007192Y-128085913D01*
X129957778Y-128081423D01*
X129936616Y-128079500D01*
X128223384Y-128079500D01*
X128204145Y-128081248D01*
X128152807Y-128085913D01*
X127990393Y-128136522D01*
X127844811Y-128224530D01*
X127724530Y-128344811D01*
X127636522Y-128490393D01*
X127585913Y-128652807D01*
X127579500Y-128723386D01*
X127579500Y-130436613D01*
X116501204Y-130436613D01*
X116296819Y-130232228D01*
X116263334Y-130170905D01*
X116260500Y-130144547D01*
X116260500Y-128723386D01*
X116260500Y-128723384D01*
X116254086Y-128652804D01*
X116203478Y-128490394D01*
X116115472Y-128344815D01*
X116115470Y-128344813D01*
X116115469Y-128344811D01*
X115995188Y-128224530D01*
X115849606Y-128136522D01*
X115797242Y-128120205D01*
X115687196Y-128085914D01*
X115687194Y-128085913D01*
X115687192Y-128085913D01*
X115637778Y-128081423D01*
X115616616Y-128079500D01*
X113903384Y-128079500D01*
X113884145Y-128081248D01*
X113832807Y-128085913D01*
X113670393Y-128136522D01*
X113524811Y-128224530D01*
X113404530Y-128344811D01*
X113316522Y-128490393D01*
X113265913Y-128652807D01*
X113259500Y-128723386D01*
X113259500Y-130144547D01*
X113239815Y-130211586D01*
X113223181Y-130232228D01*
X112037228Y-131418181D01*
X111975905Y-131451666D01*
X111949547Y-131454500D01*
X97250452Y-131454500D01*
X97183413Y-131434815D01*
X97162771Y-131418181D01*
X96181204Y-130436613D01*
X107259500Y-130436613D01*
X107265913Y-130507192D01*
X107316522Y-130669606D01*
X107404530Y-130815188D01*
X107524811Y-130935469D01*
X107524813Y-130935470D01*
X107524815Y-130935472D01*
X107670394Y-131023478D01*
X107832804Y-131074086D01*
X107903384Y-131080500D01*
X107903387Y-131080500D01*
X109616613Y-131080500D01*
X109616616Y-131080500D01*
X109687196Y-131074086D01*
X109849606Y-131023478D01*
X109995185Y-130935472D01*
X110115472Y-130815185D01*
X110203478Y-130669606D01*
X110254086Y-130507196D01*
X110260500Y-130436616D01*
X110260499Y-130289499D01*
X110280185Y-130222461D01*
X110332989Y-130176706D01*
X110384500Y-130165500D01*
X111056252Y-130165500D01*
X111123291Y-130185185D01*
X111148400Y-130206526D01*
X111154126Y-130212885D01*
X111154130Y-130212889D01*
X111307265Y-130324148D01*
X111307270Y-130324151D01*
X111480192Y-130401142D01*
X111480197Y-130401144D01*
X111665354Y-130440500D01*
X111665355Y-130440500D01*
X111854644Y-130440500D01*
X111854646Y-130440500D01*
X112039803Y-130401144D01*
X112212730Y-130324151D01*
X112365871Y-130212888D01*
X112492533Y-130072216D01*
X112587179Y-129908284D01*
X112645674Y-129728256D01*
X112665460Y-129540000D01*
X112645674Y-129351744D01*
X112587179Y-129171716D01*
X112492533Y-129007784D01*
X112365871Y-128867112D01*
X112365870Y-128867111D01*
X112212734Y-128755851D01*
X112212729Y-128755848D01*
X112039807Y-128678857D01*
X112039802Y-128678855D01*
X111894001Y-128647865D01*
X111854646Y-128639500D01*
X111665354Y-128639500D01*
X111632897Y-128646398D01*
X111480197Y-128678855D01*
X111480192Y-128678857D01*
X111307270Y-128755848D01*
X111307265Y-128755851D01*
X111154130Y-128867110D01*
X111154126Y-128867114D01*
X111148400Y-128873474D01*
X111088913Y-128910121D01*
X111056252Y-128914500D01*
X110384500Y-128914500D01*
X110317461Y-128894815D01*
X110271706Y-128842011D01*
X110260500Y-128790500D01*
X110260500Y-128723386D01*
X110260500Y-128723384D01*
X110254086Y-128652804D01*
X110203478Y-128490394D01*
X110115472Y-128344815D01*
X110115470Y-128344813D01*
X110115469Y-128344811D01*
X109995188Y-128224530D01*
X109849606Y-128136522D01*
X109797242Y-128120205D01*
X109687196Y-128085914D01*
X109687194Y-128085913D01*
X109687192Y-128085913D01*
X109637778Y-128081423D01*
X109616616Y-128079500D01*
X107903384Y-128079500D01*
X107884145Y-128081248D01*
X107832807Y-128085913D01*
X107670393Y-128136522D01*
X107524811Y-128224530D01*
X107404530Y-128344811D01*
X107316522Y-128490393D01*
X107265913Y-128652807D01*
X107259500Y-128723386D01*
X107259500Y-130436613D01*
X96181204Y-130436613D01*
X95976819Y-130232228D01*
X95943334Y-130170905D01*
X95940500Y-130144547D01*
X95940500Y-128723386D01*
X95940500Y-128723384D01*
X95934086Y-128652804D01*
X95883478Y-128490394D01*
X95795472Y-128344815D01*
X95795470Y-128344813D01*
X95795469Y-128344811D01*
X95675188Y-128224530D01*
X95529606Y-128136522D01*
X95477242Y-128120205D01*
X95367196Y-128085914D01*
X95367194Y-128085913D01*
X95367192Y-128085913D01*
X95317778Y-128081423D01*
X95296616Y-128079500D01*
X93583384Y-128079500D01*
X93564145Y-128081248D01*
X93512807Y-128085913D01*
X93350393Y-128136522D01*
X93204811Y-128224530D01*
X93084530Y-128344811D01*
X92996522Y-128490393D01*
X92945913Y-128652807D01*
X92939500Y-128723386D01*
X92939500Y-130144547D01*
X92919815Y-130211586D01*
X92903181Y-130232228D01*
X91717228Y-131418181D01*
X91655905Y-131451666D01*
X91629547Y-131454500D01*
X76930452Y-131454500D01*
X76863413Y-131434815D01*
X76842771Y-131418181D01*
X75861204Y-130436613D01*
X86939500Y-130436613D01*
X86945913Y-130507192D01*
X86996522Y-130669606D01*
X87084530Y-130815188D01*
X87204811Y-130935469D01*
X87204813Y-130935470D01*
X87204815Y-130935472D01*
X87350394Y-131023478D01*
X87512804Y-131074086D01*
X87583384Y-131080500D01*
X87583387Y-131080500D01*
X89296613Y-131080500D01*
X89296616Y-131080500D01*
X89367196Y-131074086D01*
X89529606Y-131023478D01*
X89675185Y-130935472D01*
X89795472Y-130815185D01*
X89883478Y-130669606D01*
X89934086Y-130507196D01*
X89940500Y-130436616D01*
X89940500Y-130289499D01*
X89960185Y-130222461D01*
X90012989Y-130176706D01*
X90064500Y-130165500D01*
X90736252Y-130165500D01*
X90803291Y-130185185D01*
X90828400Y-130206526D01*
X90834126Y-130212885D01*
X90834130Y-130212889D01*
X90987265Y-130324148D01*
X90987270Y-130324151D01*
X91160192Y-130401142D01*
X91160197Y-130401144D01*
X91345354Y-130440500D01*
X91345355Y-130440500D01*
X91534644Y-130440500D01*
X91534646Y-130440500D01*
X91719803Y-130401144D01*
X91892730Y-130324151D01*
X92045871Y-130212888D01*
X92172533Y-130072216D01*
X92267179Y-129908284D01*
X92325674Y-129728256D01*
X92345460Y-129540000D01*
X92325674Y-129351744D01*
X92267179Y-129171716D01*
X92172533Y-129007784D01*
X92045871Y-128867112D01*
X92045870Y-128867111D01*
X91892734Y-128755851D01*
X91892729Y-128755848D01*
X91719807Y-128678857D01*
X91719802Y-128678855D01*
X91574001Y-128647865D01*
X91534646Y-128639500D01*
X91345354Y-128639500D01*
X91312897Y-128646398D01*
X91160197Y-128678855D01*
X91160192Y-128678857D01*
X90987270Y-128755848D01*
X90987265Y-128755851D01*
X90834130Y-128867110D01*
X90834126Y-128867114D01*
X90828400Y-128873474D01*
X90768913Y-128910121D01*
X90736252Y-128914500D01*
X90064500Y-128914500D01*
X89997461Y-128894815D01*
X89951706Y-128842011D01*
X89940500Y-128790500D01*
X89940500Y-128723386D01*
X89940500Y-128723384D01*
X89934086Y-128652804D01*
X89883478Y-128490394D01*
X89795472Y-128344815D01*
X89795470Y-128344813D01*
X89795469Y-128344811D01*
X89675188Y-128224530D01*
X89529606Y-128136522D01*
X89477242Y-128120205D01*
X89367196Y-128085914D01*
X89367194Y-128085913D01*
X89367192Y-128085913D01*
X89317778Y-128081423D01*
X89296616Y-128079500D01*
X87583384Y-128079500D01*
X87564145Y-128081248D01*
X87512807Y-128085913D01*
X87350393Y-128136522D01*
X87204811Y-128224530D01*
X87084530Y-128344811D01*
X86996522Y-128490393D01*
X86945913Y-128652807D01*
X86939500Y-128723386D01*
X86939500Y-130436613D01*
X75861204Y-130436613D01*
X75656819Y-130232228D01*
X75623334Y-130170905D01*
X75620500Y-130144547D01*
X75620500Y-128723386D01*
X75620500Y-128723384D01*
X75614086Y-128652804D01*
X75563478Y-128490394D01*
X75475472Y-128344815D01*
X75475470Y-128344813D01*
X75475469Y-128344811D01*
X75355188Y-128224530D01*
X75209606Y-128136522D01*
X75157242Y-128120205D01*
X75047196Y-128085914D01*
X75047194Y-128085913D01*
X75047192Y-128085913D01*
X74997778Y-128081423D01*
X74976616Y-128079500D01*
X73263384Y-128079500D01*
X73244145Y-128081248D01*
X73192807Y-128085913D01*
X73030393Y-128136522D01*
X72884811Y-128224530D01*
X72764530Y-128344811D01*
X72676522Y-128490393D01*
X72625913Y-128652807D01*
X72619500Y-128723386D01*
X72619500Y-130436613D01*
X72625913Y-130507192D01*
X72676522Y-130669606D01*
X72764530Y-130815188D01*
X72884811Y-130935469D01*
X72884813Y-130935470D01*
X72884815Y-130935472D01*
X73030394Y-131023478D01*
X73192804Y-131074086D01*
X73263384Y-131080500D01*
X74684548Y-131080500D01*
X74751587Y-131100185D01*
X74772229Y-131116819D01*
X76119197Y-132463788D01*
X76129022Y-132476051D01*
X76129243Y-132475869D01*
X76134211Y-132481874D01*
X76183932Y-132528566D01*
X76185332Y-132529923D01*
X76205523Y-132550115D01*
X76205527Y-132550118D01*
X76205529Y-132550120D01*
X76211011Y-132554373D01*
X76215443Y-132558157D01*
X76249418Y-132590062D01*
X76266976Y-132599714D01*
X76283233Y-132610393D01*
X76299064Y-132622673D01*
X76318737Y-132631186D01*
X76341833Y-132641182D01*
X76347077Y-132643750D01*
X76387908Y-132666197D01*
X76400523Y-132669435D01*
X76407305Y-132671177D01*
X76425719Y-132677481D01*
X76444104Y-132685438D01*
X76490157Y-132692732D01*
X76495826Y-132693906D01*
X76540981Y-132705500D01*
X76561016Y-132705500D01*
X76580413Y-132707026D01*
X76600196Y-132710160D01*
X76646583Y-132705775D01*
X76652422Y-132705500D01*
X91857257Y-132705500D01*
X91872877Y-132707224D01*
X91872904Y-132706939D01*
X91880666Y-132707673D01*
X91880666Y-132707672D01*
X91880667Y-132707673D01*
X91883999Y-132707568D01*
X91948847Y-132705531D01*
X91950794Y-132705500D01*
X91979347Y-132705500D01*
X91979350Y-132705500D01*
X91986228Y-132704630D01*
X91992041Y-132704172D01*
X92038627Y-132702709D01*
X92057869Y-132697117D01*
X92076912Y-132693174D01*
X92096792Y-132690664D01*
X92140122Y-132673507D01*
X92145646Y-132671617D01*
X92149396Y-132670527D01*
X92190390Y-132658618D01*
X92207629Y-132648422D01*
X92225103Y-132639862D01*
X92243727Y-132632488D01*
X92243727Y-132632487D01*
X92243732Y-132632486D01*
X92281449Y-132605082D01*
X92286305Y-132601892D01*
X92326420Y-132578170D01*
X92340589Y-132563999D01*
X92355379Y-132551368D01*
X92371587Y-132539594D01*
X92401299Y-132503676D01*
X92405212Y-132499376D01*
X93787771Y-131116819D01*
X93849095Y-131083334D01*
X93875453Y-131080500D01*
X95004548Y-131080500D01*
X95071587Y-131100185D01*
X95092229Y-131116819D01*
X96439197Y-132463788D01*
X96449022Y-132476051D01*
X96449243Y-132475869D01*
X96454211Y-132481874D01*
X96503932Y-132528566D01*
X96505332Y-132529923D01*
X96525523Y-132550115D01*
X96525527Y-132550118D01*
X96525529Y-132550120D01*
X96531011Y-132554373D01*
X96535443Y-132558157D01*
X96569418Y-132590062D01*
X96586976Y-132599714D01*
X96603233Y-132610393D01*
X96619064Y-132622673D01*
X96638737Y-132631186D01*
X96661833Y-132641182D01*
X96667077Y-132643750D01*
X96707908Y-132666197D01*
X96720523Y-132669435D01*
X96727305Y-132671177D01*
X96745719Y-132677481D01*
X96764104Y-132685438D01*
X96810157Y-132692732D01*
X96815826Y-132693906D01*
X96860981Y-132705500D01*
X96881016Y-132705500D01*
X96900413Y-132707026D01*
X96920196Y-132710160D01*
X96966583Y-132705775D01*
X96972422Y-132705500D01*
X112177257Y-132705500D01*
X112192877Y-132707224D01*
X112192904Y-132706939D01*
X112200666Y-132707673D01*
X112200666Y-132707672D01*
X112200667Y-132707673D01*
X112203999Y-132707568D01*
X112268847Y-132705531D01*
X112270794Y-132705500D01*
X112299347Y-132705500D01*
X112299350Y-132705500D01*
X112306228Y-132704630D01*
X112312041Y-132704172D01*
X112358627Y-132702709D01*
X112377869Y-132697117D01*
X112396912Y-132693174D01*
X112416792Y-132690664D01*
X112460122Y-132673507D01*
X112465646Y-132671617D01*
X112469396Y-132670527D01*
X112510390Y-132658618D01*
X112527629Y-132648422D01*
X112545103Y-132639862D01*
X112563727Y-132632488D01*
X112563727Y-132632487D01*
X112563732Y-132632486D01*
X112601449Y-132605082D01*
X112606305Y-132601892D01*
X112646420Y-132578170D01*
X112660589Y-132563999D01*
X112675379Y-132551368D01*
X112691587Y-132539594D01*
X112721299Y-132503676D01*
X112725212Y-132499376D01*
X114107771Y-131116819D01*
X114169095Y-131083334D01*
X114195453Y-131080500D01*
X115324548Y-131080500D01*
X115391587Y-131100185D01*
X115412229Y-131116819D01*
X116759197Y-132463788D01*
X116769022Y-132476051D01*
X116769243Y-132475869D01*
X116774211Y-132481874D01*
X116823932Y-132528566D01*
X116825332Y-132529923D01*
X116845523Y-132550115D01*
X116845527Y-132550118D01*
X116845529Y-132550120D01*
X116851011Y-132554373D01*
X116855443Y-132558157D01*
X116889418Y-132590062D01*
X116906976Y-132599714D01*
X116923233Y-132610393D01*
X116939064Y-132622673D01*
X116958737Y-132631186D01*
X116981833Y-132641182D01*
X116987077Y-132643750D01*
X117027908Y-132666197D01*
X117040523Y-132669435D01*
X117047305Y-132671177D01*
X117065719Y-132677481D01*
X117084104Y-132685438D01*
X117130157Y-132692732D01*
X117135826Y-132693906D01*
X117180981Y-132705500D01*
X117201016Y-132705500D01*
X117220413Y-132707026D01*
X117240196Y-132710160D01*
X117286583Y-132705775D01*
X117292422Y-132705500D01*
X132497257Y-132705500D01*
X132512877Y-132707224D01*
X132512904Y-132706939D01*
X132520666Y-132707673D01*
X132520666Y-132707672D01*
X132520667Y-132707673D01*
X132523999Y-132707568D01*
X132588847Y-132705531D01*
X132590794Y-132705500D01*
X132619347Y-132705500D01*
X132619350Y-132705500D01*
X132626228Y-132704630D01*
X132632041Y-132704172D01*
X132678627Y-132702709D01*
X132697869Y-132697117D01*
X132716912Y-132693174D01*
X132736792Y-132690664D01*
X132780122Y-132673507D01*
X132785646Y-132671617D01*
X132789396Y-132670527D01*
X132830390Y-132658618D01*
X132847629Y-132648422D01*
X132865103Y-132639862D01*
X132883727Y-132632488D01*
X132883727Y-132632487D01*
X132883732Y-132632486D01*
X132921449Y-132605082D01*
X132926305Y-132601892D01*
X132966420Y-132578170D01*
X132980589Y-132563999D01*
X132995379Y-132551368D01*
X133011587Y-132539594D01*
X133041299Y-132503676D01*
X133045212Y-132499376D01*
X134427771Y-131116819D01*
X134489095Y-131083334D01*
X134515453Y-131080500D01*
X135936613Y-131080500D01*
X135936616Y-131080500D01*
X136007196Y-131074086D01*
X136169606Y-131023478D01*
X136315185Y-130935472D01*
X136435472Y-130815185D01*
X136523478Y-130669606D01*
X136574086Y-130507196D01*
X136580500Y-130436616D01*
X136580500Y-129015452D01*
X136600185Y-128948413D01*
X136616819Y-128927771D01*
X137054197Y-128490393D01*
X137503221Y-128041368D01*
X137564542Y-128007885D01*
X137634233Y-128012869D01*
X137690167Y-128054741D01*
X137714584Y-128120205D01*
X137714900Y-128129051D01*
X137714900Y-138709147D01*
X137695215Y-138776186D01*
X137678581Y-138796828D01*
X135732228Y-140743181D01*
X135670905Y-140776666D01*
X135644547Y-140779500D01*
X134223384Y-140779500D01*
X134204145Y-140781248D01*
X134152807Y-140785913D01*
X133990393Y-140836522D01*
X133844811Y-140924530D01*
X133724530Y-141044811D01*
X133636522Y-141190393D01*
X133585913Y-141352807D01*
X133579500Y-141423386D01*
X133579500Y-142844547D01*
X133559815Y-142911586D01*
X133543181Y-142932228D01*
X132357228Y-144118181D01*
X132295905Y-144151666D01*
X132269547Y-144154500D01*
X117150453Y-144154500D01*
X117083414Y-144134815D01*
X117062772Y-144118181D01*
X116282786Y-143338195D01*
X116249301Y-143276872D01*
X116252083Y-143213621D01*
X116254086Y-143207196D01*
X116260500Y-143136616D01*
X116260500Y-143136613D01*
X127579500Y-143136613D01*
X127585913Y-143207192D01*
X127585913Y-143207194D01*
X127585914Y-143207196D01*
X127610218Y-143285191D01*
X127636522Y-143369606D01*
X127724530Y-143515188D01*
X127844811Y-143635469D01*
X127844813Y-143635470D01*
X127844815Y-143635472D01*
X127990394Y-143723478D01*
X128152804Y-143774086D01*
X128223384Y-143780500D01*
X128223387Y-143780500D01*
X129936613Y-143780500D01*
X129936616Y-143780500D01*
X130007196Y-143774086D01*
X130169606Y-143723478D01*
X130315185Y-143635472D01*
X130435472Y-143515185D01*
X130523478Y-143369606D01*
X130574086Y-143207196D01*
X130580500Y-143136616D01*
X130580499Y-143029500D01*
X130600185Y-142962461D01*
X130652989Y-142916706D01*
X130704500Y-142905500D01*
X131423671Y-142905500D01*
X131490710Y-142925185D01*
X131496537Y-142929168D01*
X131542361Y-142962461D01*
X131627270Y-143024151D01*
X131800192Y-143101142D01*
X131800197Y-143101144D01*
X131985354Y-143140500D01*
X131985355Y-143140500D01*
X132174644Y-143140500D01*
X132174646Y-143140500D01*
X132359803Y-143101144D01*
X132532730Y-143024151D01*
X132685871Y-142912888D01*
X132812533Y-142772216D01*
X132907179Y-142608284D01*
X132965674Y-142428256D01*
X132985460Y-142240000D01*
X132965674Y-142051744D01*
X132907179Y-141871716D01*
X132812533Y-141707784D01*
X132685871Y-141567112D01*
X132685870Y-141567111D01*
X132532734Y-141455851D01*
X132532729Y-141455848D01*
X132359807Y-141378857D01*
X132359802Y-141378855D01*
X132214001Y-141347865D01*
X132174646Y-141339500D01*
X131985354Y-141339500D01*
X131952897Y-141346398D01*
X131800197Y-141378855D01*
X131800192Y-141378857D01*
X131627270Y-141455848D01*
X131627265Y-141455851D01*
X131474135Y-141567106D01*
X131474133Y-141567107D01*
X131460714Y-141582011D01*
X131432383Y-141613474D01*
X131372899Y-141650121D01*
X131340236Y-141654500D01*
X130704500Y-141654500D01*
X130637461Y-141634815D01*
X130591706Y-141582011D01*
X130580500Y-141530500D01*
X130580500Y-141423386D01*
X130580500Y-141423384D01*
X130574086Y-141352804D01*
X130523478Y-141190394D01*
X130435472Y-141044815D01*
X130435470Y-141044813D01*
X130435469Y-141044811D01*
X130315188Y-140924530D01*
X130169606Y-140836522D01*
X130169605Y-140836521D01*
X130007196Y-140785914D01*
X130007194Y-140785913D01*
X130007192Y-140785913D01*
X129957778Y-140781423D01*
X129936616Y-140779500D01*
X128223384Y-140779500D01*
X128204145Y-140781248D01*
X128152807Y-140785913D01*
X127990393Y-140836522D01*
X127844811Y-140924530D01*
X127724530Y-141044811D01*
X127636522Y-141190393D01*
X127585913Y-141352807D01*
X127579500Y-141423386D01*
X127579500Y-143136613D01*
X116260500Y-143136613D01*
X116260500Y-141423384D01*
X116254086Y-141352804D01*
X116203478Y-141190394D01*
X116115472Y-141044815D01*
X116115470Y-141044813D01*
X116115469Y-141044811D01*
X115995188Y-140924530D01*
X115849606Y-140836522D01*
X115849605Y-140836521D01*
X115687196Y-140785914D01*
X115687194Y-140785913D01*
X115687192Y-140785913D01*
X115637778Y-140781423D01*
X115616616Y-140779500D01*
X113903384Y-140779500D01*
X113884145Y-140781248D01*
X113832807Y-140785913D01*
X113670393Y-140836522D01*
X113524811Y-140924530D01*
X113404530Y-141044811D01*
X113316522Y-141190393D01*
X113265913Y-141352807D01*
X113259500Y-141423386D01*
X113259500Y-142844547D01*
X113239815Y-142911586D01*
X113223181Y-142932228D01*
X112037228Y-144118181D01*
X111975905Y-144151666D01*
X111949547Y-144154500D01*
X97250452Y-144154500D01*
X97183413Y-144134815D01*
X97162771Y-144118181D01*
X96181204Y-143136613D01*
X107259500Y-143136613D01*
X107265913Y-143207192D01*
X107265913Y-143207194D01*
X107265914Y-143207196D01*
X107290218Y-143285191D01*
X107316522Y-143369606D01*
X107404530Y-143515188D01*
X107524811Y-143635469D01*
X107524813Y-143635470D01*
X107524815Y-143635472D01*
X107670394Y-143723478D01*
X107832804Y-143774086D01*
X107903384Y-143780500D01*
X107903387Y-143780500D01*
X109616613Y-143780500D01*
X109616616Y-143780500D01*
X109687196Y-143774086D01*
X109849606Y-143723478D01*
X109995185Y-143635472D01*
X110115472Y-143515185D01*
X110203478Y-143369606D01*
X110254086Y-143207196D01*
X110260500Y-143136616D01*
X110260500Y-143029500D01*
X110280185Y-142962461D01*
X110332989Y-142916706D01*
X110384500Y-142905500D01*
X111103671Y-142905500D01*
X111170710Y-142925185D01*
X111176537Y-142929168D01*
X111222361Y-142962461D01*
X111307270Y-143024151D01*
X111480192Y-143101142D01*
X111480197Y-143101144D01*
X111665354Y-143140500D01*
X111665355Y-143140500D01*
X111854644Y-143140500D01*
X111854646Y-143140500D01*
X112039803Y-143101144D01*
X112212730Y-143024151D01*
X112365871Y-142912888D01*
X112492533Y-142772216D01*
X112587179Y-142608284D01*
X112645674Y-142428256D01*
X112665460Y-142240000D01*
X112645674Y-142051744D01*
X112587179Y-141871716D01*
X112492533Y-141707784D01*
X112365871Y-141567112D01*
X112365870Y-141567111D01*
X112212734Y-141455851D01*
X112212729Y-141455848D01*
X112039807Y-141378857D01*
X112039802Y-141378855D01*
X111894000Y-141347865D01*
X111854646Y-141339500D01*
X111665354Y-141339500D01*
X111632897Y-141346398D01*
X111480197Y-141378855D01*
X111480192Y-141378857D01*
X111307270Y-141455848D01*
X111307265Y-141455851D01*
X111154135Y-141567106D01*
X111154133Y-141567107D01*
X111140714Y-141582011D01*
X111112383Y-141613474D01*
X111052899Y-141650121D01*
X111020236Y-141654500D01*
X110384500Y-141654500D01*
X110317461Y-141634815D01*
X110271706Y-141582011D01*
X110260500Y-141530500D01*
X110260500Y-141423386D01*
X110260500Y-141423384D01*
X110254086Y-141352804D01*
X110203478Y-141190394D01*
X110115472Y-141044815D01*
X110115470Y-141044813D01*
X110115469Y-141044811D01*
X109995188Y-140924530D01*
X109849606Y-140836522D01*
X109849605Y-140836521D01*
X109687196Y-140785914D01*
X109687194Y-140785913D01*
X109687192Y-140785913D01*
X109637778Y-140781423D01*
X109616616Y-140779500D01*
X107903384Y-140779500D01*
X107884145Y-140781248D01*
X107832807Y-140785913D01*
X107670393Y-140836522D01*
X107524811Y-140924530D01*
X107404530Y-141044811D01*
X107316522Y-141190393D01*
X107265913Y-141352807D01*
X107259500Y-141423386D01*
X107259500Y-143136613D01*
X96181204Y-143136613D01*
X95976819Y-142932228D01*
X95943334Y-142870905D01*
X95940500Y-142844547D01*
X95940500Y-141423386D01*
X95940500Y-141423384D01*
X95934086Y-141352804D01*
X95883478Y-141190394D01*
X95795472Y-141044815D01*
X95795470Y-141044813D01*
X95795469Y-141044811D01*
X95675188Y-140924530D01*
X95529606Y-140836522D01*
X95529605Y-140836521D01*
X95367196Y-140785914D01*
X95367194Y-140785913D01*
X95367192Y-140785913D01*
X95317778Y-140781423D01*
X95296616Y-140779500D01*
X93583384Y-140779500D01*
X93564145Y-140781248D01*
X93512807Y-140785913D01*
X93350393Y-140836522D01*
X93204811Y-140924530D01*
X93084530Y-141044811D01*
X92996522Y-141190393D01*
X92945913Y-141352807D01*
X92939500Y-141423386D01*
X92939500Y-142844547D01*
X92919815Y-142911586D01*
X92903181Y-142932228D01*
X91717228Y-144118181D01*
X91655905Y-144151666D01*
X91629547Y-144154500D01*
X76510453Y-144154500D01*
X76443414Y-144134815D01*
X76422772Y-144118181D01*
X75642786Y-143338195D01*
X75609301Y-143276872D01*
X75612083Y-143213621D01*
X75614086Y-143207196D01*
X75620500Y-143136616D01*
X75620500Y-143136613D01*
X86939500Y-143136613D01*
X86945913Y-143207192D01*
X86945913Y-143207194D01*
X86945914Y-143207196D01*
X86970218Y-143285191D01*
X86996522Y-143369606D01*
X87084530Y-143515188D01*
X87204811Y-143635469D01*
X87204813Y-143635470D01*
X87204815Y-143635472D01*
X87350394Y-143723478D01*
X87512804Y-143774086D01*
X87583384Y-143780500D01*
X87583387Y-143780500D01*
X89296613Y-143780500D01*
X89296616Y-143780500D01*
X89367196Y-143774086D01*
X89529606Y-143723478D01*
X89675185Y-143635472D01*
X89795472Y-143515185D01*
X89883478Y-143369606D01*
X89934086Y-143207196D01*
X89940500Y-143136616D01*
X89940500Y-142989500D01*
X89960185Y-142922461D01*
X90012989Y-142876706D01*
X90064500Y-142865500D01*
X90736252Y-142865500D01*
X90803291Y-142885185D01*
X90828400Y-142906526D01*
X90834126Y-142912885D01*
X90834130Y-142912889D01*
X90987265Y-143024148D01*
X90987270Y-143024151D01*
X91160192Y-143101142D01*
X91160197Y-143101144D01*
X91345354Y-143140500D01*
X91345355Y-143140500D01*
X91534644Y-143140500D01*
X91534646Y-143140500D01*
X91719803Y-143101144D01*
X91892730Y-143024151D01*
X92045871Y-142912888D01*
X92172533Y-142772216D01*
X92267179Y-142608284D01*
X92325674Y-142428256D01*
X92345460Y-142240000D01*
X92325674Y-142051744D01*
X92267179Y-141871716D01*
X92172533Y-141707784D01*
X92045871Y-141567112D01*
X92045870Y-141567111D01*
X91892734Y-141455851D01*
X91892729Y-141455848D01*
X91719807Y-141378857D01*
X91719802Y-141378855D01*
X91574001Y-141347865D01*
X91534646Y-141339500D01*
X91345354Y-141339500D01*
X91312897Y-141346398D01*
X91160197Y-141378855D01*
X91160192Y-141378857D01*
X90987270Y-141455848D01*
X90987265Y-141455851D01*
X90834130Y-141567110D01*
X90834126Y-141567114D01*
X90828400Y-141573474D01*
X90768913Y-141610121D01*
X90736252Y-141614500D01*
X90064500Y-141614500D01*
X89997461Y-141594815D01*
X89951706Y-141542011D01*
X89940500Y-141490500D01*
X89940500Y-141423386D01*
X89940500Y-141423384D01*
X89934086Y-141352804D01*
X89883478Y-141190394D01*
X89795472Y-141044815D01*
X89795470Y-141044813D01*
X89795469Y-141044811D01*
X89675188Y-140924530D01*
X89529606Y-140836522D01*
X89529605Y-140836521D01*
X89367196Y-140785914D01*
X89367194Y-140785913D01*
X89367192Y-140785913D01*
X89317778Y-140781423D01*
X89296616Y-140779500D01*
X87583384Y-140779500D01*
X87564145Y-140781248D01*
X87512807Y-140785913D01*
X87350393Y-140836522D01*
X87204811Y-140924530D01*
X87084530Y-141044811D01*
X86996522Y-141190393D01*
X86945913Y-141352807D01*
X86939500Y-141423386D01*
X86939500Y-143136613D01*
X75620500Y-143136613D01*
X75620500Y-141423384D01*
X75614086Y-141352804D01*
X75563478Y-141190394D01*
X75475472Y-141044815D01*
X75475470Y-141044813D01*
X75475469Y-141044811D01*
X75355188Y-140924530D01*
X75209606Y-140836522D01*
X75209605Y-140836521D01*
X75047196Y-140785914D01*
X75047194Y-140785913D01*
X75047192Y-140785913D01*
X74997778Y-140781423D01*
X74976616Y-140779500D01*
X73263384Y-140779500D01*
X73244145Y-140781248D01*
X73192807Y-140785913D01*
X73030393Y-140836522D01*
X72884811Y-140924530D01*
X72764530Y-141044811D01*
X72676522Y-141190393D01*
X72625913Y-141352807D01*
X72619500Y-141423386D01*
X72619500Y-143136613D01*
X72625913Y-143207192D01*
X72625913Y-143207194D01*
X72625914Y-143207196D01*
X72650218Y-143285191D01*
X72676522Y-143369606D01*
X72764530Y-143515188D01*
X72884811Y-143635469D01*
X72884813Y-143635470D01*
X72884815Y-143635472D01*
X73030394Y-143723478D01*
X73192804Y-143774086D01*
X73263384Y-143780500D01*
X74264548Y-143780500D01*
X74331587Y-143800185D01*
X74352229Y-143816819D01*
X75699197Y-145163788D01*
X75709022Y-145176051D01*
X75709243Y-145175869D01*
X75714211Y-145181874D01*
X75763932Y-145228566D01*
X75765332Y-145229923D01*
X75785523Y-145250115D01*
X75785527Y-145250118D01*
X75785529Y-145250120D01*
X75791011Y-145254373D01*
X75795443Y-145258157D01*
X75829418Y-145290062D01*
X75846976Y-145299714D01*
X75863235Y-145310395D01*
X75879064Y-145322673D01*
X75921838Y-145341182D01*
X75927056Y-145343738D01*
X75967908Y-145366197D01*
X75987316Y-145371180D01*
X76005717Y-145377480D01*
X76024104Y-145385437D01*
X76067488Y-145392308D01*
X76070119Y-145392725D01*
X76075839Y-145393909D01*
X76120981Y-145405500D01*
X76141016Y-145405500D01*
X76160414Y-145407026D01*
X76180194Y-145410159D01*
X76180195Y-145410160D01*
X76180195Y-145410159D01*
X76180196Y-145410160D01*
X76226583Y-145405775D01*
X76232422Y-145405500D01*
X91857257Y-145405500D01*
X91872877Y-145407224D01*
X91872904Y-145406939D01*
X91880666Y-145407673D01*
X91880666Y-145407672D01*
X91880667Y-145407673D01*
X91883999Y-145407568D01*
X91948847Y-145405531D01*
X91950794Y-145405500D01*
X91979347Y-145405500D01*
X91979350Y-145405500D01*
X91986228Y-145404630D01*
X91992041Y-145404172D01*
X92038627Y-145402709D01*
X92057869Y-145397117D01*
X92076912Y-145393174D01*
X92096792Y-145390664D01*
X92140122Y-145373507D01*
X92145646Y-145371617D01*
X92149396Y-145370527D01*
X92190390Y-145358618D01*
X92207629Y-145348422D01*
X92225103Y-145339862D01*
X92243727Y-145332488D01*
X92243727Y-145332487D01*
X92243732Y-145332486D01*
X92281449Y-145305082D01*
X92286305Y-145301892D01*
X92326420Y-145278170D01*
X92340589Y-145263999D01*
X92355379Y-145251368D01*
X92371587Y-145239594D01*
X92401299Y-145203676D01*
X92405212Y-145199376D01*
X93787771Y-143816819D01*
X93849095Y-143783334D01*
X93875453Y-143780500D01*
X95004548Y-143780500D01*
X95071587Y-143800185D01*
X95092229Y-143816819D01*
X96439197Y-145163788D01*
X96449022Y-145176051D01*
X96449243Y-145175869D01*
X96454211Y-145181874D01*
X96503932Y-145228566D01*
X96505332Y-145229923D01*
X96525523Y-145250115D01*
X96525527Y-145250118D01*
X96525529Y-145250120D01*
X96531011Y-145254373D01*
X96535443Y-145258157D01*
X96569418Y-145290062D01*
X96586976Y-145299714D01*
X96603233Y-145310393D01*
X96619064Y-145322673D01*
X96638737Y-145331186D01*
X96661833Y-145341182D01*
X96667077Y-145343750D01*
X96707908Y-145366197D01*
X96720523Y-145369435D01*
X96727305Y-145371177D01*
X96745719Y-145377481D01*
X96764104Y-145385438D01*
X96810157Y-145392732D01*
X96815826Y-145393906D01*
X96860981Y-145405500D01*
X96881016Y-145405500D01*
X96900413Y-145407026D01*
X96920196Y-145410160D01*
X96966583Y-145405775D01*
X96972422Y-145405500D01*
X112177257Y-145405500D01*
X112192877Y-145407224D01*
X112192904Y-145406939D01*
X112200666Y-145407673D01*
X112200666Y-145407672D01*
X112200667Y-145407673D01*
X112203999Y-145407568D01*
X112268847Y-145405531D01*
X112270794Y-145405500D01*
X112299347Y-145405500D01*
X112299350Y-145405500D01*
X112306228Y-145404630D01*
X112312041Y-145404172D01*
X112358627Y-145402709D01*
X112377869Y-145397117D01*
X112396912Y-145393174D01*
X112416792Y-145390664D01*
X112460122Y-145373507D01*
X112465646Y-145371617D01*
X112469396Y-145370527D01*
X112510390Y-145358618D01*
X112527629Y-145348422D01*
X112545103Y-145339862D01*
X112563727Y-145332488D01*
X112563727Y-145332487D01*
X112563732Y-145332486D01*
X112601449Y-145305082D01*
X112606305Y-145301892D01*
X112646420Y-145278170D01*
X112660589Y-145263999D01*
X112675379Y-145251368D01*
X112691587Y-145239594D01*
X112721299Y-145203676D01*
X112725212Y-145199376D01*
X114107771Y-143816819D01*
X114169095Y-143783334D01*
X114195453Y-143780500D01*
X114904548Y-143780500D01*
X114971587Y-143800185D01*
X114992229Y-143816819D01*
X116339197Y-145163788D01*
X116349022Y-145176051D01*
X116349243Y-145175869D01*
X116354211Y-145181874D01*
X116403932Y-145228566D01*
X116405332Y-145229923D01*
X116425523Y-145250115D01*
X116425527Y-145250118D01*
X116425529Y-145250120D01*
X116431011Y-145254373D01*
X116435443Y-145258157D01*
X116469418Y-145290062D01*
X116486976Y-145299714D01*
X116503235Y-145310395D01*
X116519064Y-145322673D01*
X116561838Y-145341182D01*
X116567056Y-145343738D01*
X116607908Y-145366197D01*
X116627316Y-145371180D01*
X116645717Y-145377480D01*
X116664104Y-145385437D01*
X116707488Y-145392308D01*
X116710119Y-145392725D01*
X116715839Y-145393909D01*
X116760981Y-145405500D01*
X116781016Y-145405500D01*
X116800414Y-145407026D01*
X116820194Y-145410159D01*
X116820195Y-145410160D01*
X116820195Y-145410159D01*
X116820196Y-145410160D01*
X116866583Y-145405775D01*
X116872422Y-145405500D01*
X132497257Y-145405500D01*
X132512877Y-145407224D01*
X132512904Y-145406939D01*
X132520666Y-145407673D01*
X132520666Y-145407672D01*
X132520667Y-145407673D01*
X132523999Y-145407568D01*
X132588847Y-145405531D01*
X132590794Y-145405500D01*
X132619347Y-145405500D01*
X132619350Y-145405500D01*
X132626228Y-145404630D01*
X132632041Y-145404172D01*
X132678627Y-145402709D01*
X132697869Y-145397117D01*
X132716912Y-145393174D01*
X132736792Y-145390664D01*
X132780122Y-145373507D01*
X132785646Y-145371617D01*
X132789396Y-145370527D01*
X132830390Y-145358618D01*
X132847629Y-145348422D01*
X132865103Y-145339862D01*
X132883727Y-145332488D01*
X132883727Y-145332487D01*
X132883732Y-145332486D01*
X132921449Y-145305082D01*
X132926305Y-145301892D01*
X132966420Y-145278170D01*
X132980589Y-145263999D01*
X132995379Y-145251368D01*
X133011587Y-145239594D01*
X133041299Y-145203676D01*
X133045212Y-145199376D01*
X134427771Y-143816819D01*
X134489095Y-143783334D01*
X134515453Y-143780500D01*
X135936613Y-143780500D01*
X135936616Y-143780500D01*
X136007196Y-143774086D01*
X136169606Y-143723478D01*
X136315185Y-143635472D01*
X136435472Y-143515185D01*
X136523478Y-143369606D01*
X136574086Y-143207196D01*
X136580500Y-143136616D01*
X136580500Y-141715452D01*
X136600185Y-141648413D01*
X136616819Y-141627771D01*
X137199779Y-141044811D01*
X137956421Y-140288168D01*
X138017742Y-140254685D01*
X138087434Y-140259669D01*
X138143367Y-140301541D01*
X138167784Y-140367005D01*
X138168100Y-140375851D01*
X138168100Y-150955947D01*
X138148415Y-151022986D01*
X138131781Y-151043628D01*
X135732228Y-153443181D01*
X135670905Y-153476666D01*
X135644547Y-153479500D01*
X134223384Y-153479500D01*
X134204145Y-153481248D01*
X134152807Y-153485913D01*
X133990393Y-153536522D01*
X133844811Y-153624530D01*
X133724530Y-153744811D01*
X133636522Y-153890393D01*
X133585913Y-154052807D01*
X133579500Y-154123386D01*
X133579500Y-155544547D01*
X133559815Y-155611586D01*
X133543181Y-155632228D01*
X132357228Y-156818181D01*
X132295905Y-156851666D01*
X132269547Y-156854500D01*
X117570452Y-156854500D01*
X117503413Y-156834815D01*
X117482771Y-156818181D01*
X116501204Y-155836613D01*
X127579500Y-155836613D01*
X127585913Y-155907192D01*
X127585913Y-155907194D01*
X127585914Y-155907196D01*
X127610218Y-155985191D01*
X127636522Y-156069606D01*
X127724530Y-156215188D01*
X127844811Y-156335469D01*
X127844813Y-156335470D01*
X127844815Y-156335472D01*
X127990394Y-156423478D01*
X128152804Y-156474086D01*
X128223384Y-156480500D01*
X128223387Y-156480500D01*
X129936613Y-156480500D01*
X129936616Y-156480500D01*
X130007196Y-156474086D01*
X130169606Y-156423478D01*
X130315185Y-156335472D01*
X130435472Y-156215185D01*
X130523478Y-156069606D01*
X130574086Y-155907196D01*
X130580500Y-155836616D01*
X130580499Y-155729499D01*
X130600185Y-155662461D01*
X130652989Y-155616706D01*
X130704500Y-155605500D01*
X131423671Y-155605500D01*
X131490710Y-155625185D01*
X131496537Y-155629168D01*
X131542361Y-155662461D01*
X131627270Y-155724151D01*
X131800192Y-155801142D01*
X131800197Y-155801144D01*
X131985354Y-155840500D01*
X131985355Y-155840500D01*
X132174644Y-155840500D01*
X132174646Y-155840500D01*
X132359803Y-155801144D01*
X132532730Y-155724151D01*
X132685871Y-155612888D01*
X132812533Y-155472216D01*
X132907179Y-155308284D01*
X132965674Y-155128256D01*
X132985460Y-154940000D01*
X132965674Y-154751744D01*
X132907179Y-154571716D01*
X132812533Y-154407784D01*
X132685871Y-154267112D01*
X132685870Y-154267111D01*
X132532734Y-154155851D01*
X132532729Y-154155848D01*
X132359807Y-154078857D01*
X132359802Y-154078855D01*
X132214001Y-154047865D01*
X132174646Y-154039500D01*
X131985354Y-154039500D01*
X131952897Y-154046398D01*
X131800197Y-154078855D01*
X131800192Y-154078857D01*
X131627270Y-154155848D01*
X131627265Y-154155851D01*
X131474135Y-154267106D01*
X131474133Y-154267107D01*
X131460714Y-154282011D01*
X131432383Y-154313474D01*
X131372899Y-154350121D01*
X131340236Y-154354500D01*
X130704500Y-154354500D01*
X130637461Y-154334815D01*
X130591706Y-154282011D01*
X130580500Y-154230500D01*
X130580500Y-154123386D01*
X130580500Y-154123384D01*
X130574086Y-154052804D01*
X130523478Y-153890394D01*
X130435472Y-153744815D01*
X130435470Y-153744813D01*
X130435469Y-153744811D01*
X130315188Y-153624530D01*
X130169606Y-153536522D01*
X130169605Y-153536521D01*
X130007196Y-153485914D01*
X130007194Y-153485913D01*
X130007192Y-153485913D01*
X129957778Y-153481423D01*
X129936616Y-153479500D01*
X128223384Y-153479500D01*
X128204145Y-153481248D01*
X128152807Y-153485913D01*
X127990393Y-153536522D01*
X127844811Y-153624530D01*
X127724530Y-153744811D01*
X127636522Y-153890393D01*
X127585913Y-154052807D01*
X127579500Y-154123386D01*
X127579500Y-155836613D01*
X116501204Y-155836613D01*
X116296819Y-155632228D01*
X116263334Y-155570905D01*
X116260500Y-155544547D01*
X116260500Y-154123386D01*
X116260500Y-154123384D01*
X116254086Y-154052804D01*
X116203478Y-153890394D01*
X116115472Y-153744815D01*
X116115470Y-153744813D01*
X116115469Y-153744811D01*
X115995188Y-153624530D01*
X115849606Y-153536522D01*
X115849605Y-153536521D01*
X115687196Y-153485914D01*
X115687194Y-153485913D01*
X115687192Y-153485913D01*
X115637778Y-153481423D01*
X115616616Y-153479500D01*
X113903384Y-153479500D01*
X113884145Y-153481248D01*
X113832807Y-153485913D01*
X113670393Y-153536522D01*
X113524811Y-153624530D01*
X113404530Y-153744811D01*
X113316522Y-153890393D01*
X113265913Y-154052807D01*
X113259500Y-154123386D01*
X113259500Y-155544547D01*
X113239815Y-155611586D01*
X113223181Y-155632228D01*
X112037228Y-156818181D01*
X111975905Y-156851666D01*
X111949547Y-156854500D01*
X96830453Y-156854500D01*
X96763414Y-156834815D01*
X96742772Y-156818181D01*
X95962786Y-156038195D01*
X95929301Y-155976872D01*
X95932083Y-155913621D01*
X95934086Y-155907196D01*
X95940500Y-155836616D01*
X95940500Y-155836613D01*
X107259500Y-155836613D01*
X107265913Y-155907192D01*
X107265913Y-155907194D01*
X107265914Y-155907196D01*
X107290218Y-155985191D01*
X107316522Y-156069606D01*
X107404530Y-156215188D01*
X107524811Y-156335469D01*
X107524813Y-156335470D01*
X107524815Y-156335472D01*
X107670394Y-156423478D01*
X107832804Y-156474086D01*
X107903384Y-156480500D01*
X107903387Y-156480500D01*
X109616613Y-156480500D01*
X109616616Y-156480500D01*
X109687196Y-156474086D01*
X109849606Y-156423478D01*
X109995185Y-156335472D01*
X110115472Y-156215185D01*
X110203478Y-156069606D01*
X110254086Y-155907196D01*
X110260500Y-155836616D01*
X110260499Y-155689500D01*
X110280185Y-155622461D01*
X110332989Y-155576706D01*
X110384500Y-155565500D01*
X111056252Y-155565500D01*
X111123291Y-155585185D01*
X111148400Y-155606526D01*
X111154126Y-155612885D01*
X111154130Y-155612889D01*
X111307265Y-155724148D01*
X111307270Y-155724151D01*
X111480192Y-155801142D01*
X111480197Y-155801144D01*
X111665354Y-155840500D01*
X111665355Y-155840500D01*
X111854644Y-155840500D01*
X111854646Y-155840500D01*
X112039803Y-155801144D01*
X112212730Y-155724151D01*
X112365871Y-155612888D01*
X112492533Y-155472216D01*
X112587179Y-155308284D01*
X112645674Y-155128256D01*
X112665460Y-154940000D01*
X112645674Y-154751744D01*
X112587179Y-154571716D01*
X112492533Y-154407784D01*
X112365871Y-154267112D01*
X112365870Y-154267111D01*
X112212734Y-154155851D01*
X112212729Y-154155848D01*
X112039807Y-154078857D01*
X112039802Y-154078855D01*
X111894000Y-154047865D01*
X111854646Y-154039500D01*
X111665354Y-154039500D01*
X111632897Y-154046398D01*
X111480197Y-154078855D01*
X111480192Y-154078857D01*
X111307270Y-154155848D01*
X111307265Y-154155851D01*
X111154130Y-154267110D01*
X111154126Y-154267114D01*
X111148400Y-154273474D01*
X111088913Y-154310121D01*
X111056252Y-154314500D01*
X110384500Y-154314500D01*
X110317461Y-154294815D01*
X110271706Y-154242011D01*
X110260500Y-154190500D01*
X110260500Y-154123386D01*
X110260500Y-154123384D01*
X110254086Y-154052804D01*
X110203478Y-153890394D01*
X110115472Y-153744815D01*
X110115470Y-153744813D01*
X110115469Y-153744811D01*
X109995188Y-153624530D01*
X109849606Y-153536522D01*
X109849605Y-153536521D01*
X109687196Y-153485914D01*
X109687194Y-153485913D01*
X109687192Y-153485913D01*
X109637778Y-153481423D01*
X109616616Y-153479500D01*
X107903384Y-153479500D01*
X107884145Y-153481248D01*
X107832807Y-153485913D01*
X107670393Y-153536522D01*
X107524811Y-153624530D01*
X107404530Y-153744811D01*
X107316522Y-153890393D01*
X107265913Y-154052807D01*
X107259500Y-154123386D01*
X107259500Y-155836613D01*
X95940500Y-155836613D01*
X95940500Y-154123384D01*
X95934086Y-154052804D01*
X95883478Y-153890394D01*
X95795472Y-153744815D01*
X95795470Y-153744813D01*
X95795469Y-153744811D01*
X95675188Y-153624530D01*
X95529606Y-153536522D01*
X95529605Y-153536521D01*
X95367196Y-153485914D01*
X95367194Y-153485913D01*
X95367192Y-153485913D01*
X95317778Y-153481423D01*
X95296616Y-153479500D01*
X93583384Y-153479500D01*
X93564145Y-153481248D01*
X93512807Y-153485913D01*
X93350393Y-153536522D01*
X93204811Y-153624530D01*
X93084530Y-153744811D01*
X92996522Y-153890393D01*
X92945913Y-154052807D01*
X92939500Y-154123386D01*
X92939500Y-155544547D01*
X92919815Y-155611586D01*
X92903181Y-155632228D01*
X91717228Y-156818181D01*
X91655905Y-156851666D01*
X91629547Y-156854500D01*
X76930452Y-156854500D01*
X76863413Y-156834815D01*
X76842771Y-156818181D01*
X75861204Y-155836613D01*
X86939500Y-155836613D01*
X86945913Y-155907192D01*
X86945913Y-155907194D01*
X86945914Y-155907196D01*
X86970218Y-155985191D01*
X86996522Y-156069606D01*
X87084530Y-156215188D01*
X87204811Y-156335469D01*
X87204813Y-156335470D01*
X87204815Y-156335472D01*
X87350394Y-156423478D01*
X87512804Y-156474086D01*
X87583384Y-156480500D01*
X87583387Y-156480500D01*
X89296613Y-156480500D01*
X89296616Y-156480500D01*
X89367196Y-156474086D01*
X89529606Y-156423478D01*
X89675185Y-156335472D01*
X89795472Y-156215185D01*
X89883478Y-156069606D01*
X89934086Y-155907196D01*
X89940500Y-155836616D01*
X89940500Y-155689500D01*
X89960185Y-155622461D01*
X90012989Y-155576706D01*
X90064500Y-155565500D01*
X90736252Y-155565500D01*
X90803291Y-155585185D01*
X90828400Y-155606526D01*
X90834126Y-155612885D01*
X90834130Y-155612889D01*
X90987265Y-155724148D01*
X90987270Y-155724151D01*
X91160192Y-155801142D01*
X91160197Y-155801144D01*
X91345354Y-155840500D01*
X91345355Y-155840500D01*
X91534644Y-155840500D01*
X91534646Y-155840500D01*
X91719803Y-155801144D01*
X91892730Y-155724151D01*
X92045871Y-155612888D01*
X92172533Y-155472216D01*
X92267179Y-155308284D01*
X92325674Y-155128256D01*
X92345460Y-154940000D01*
X92325674Y-154751744D01*
X92267179Y-154571716D01*
X92172533Y-154407784D01*
X92045871Y-154267112D01*
X92045870Y-154267111D01*
X91892734Y-154155851D01*
X91892729Y-154155848D01*
X91719807Y-154078857D01*
X91719802Y-154078855D01*
X91574000Y-154047865D01*
X91534646Y-154039500D01*
X91345354Y-154039500D01*
X91312897Y-154046398D01*
X91160197Y-154078855D01*
X91160192Y-154078857D01*
X90987270Y-154155848D01*
X90987265Y-154155851D01*
X90834130Y-154267110D01*
X90834126Y-154267114D01*
X90828400Y-154273474D01*
X90768913Y-154310121D01*
X90736252Y-154314500D01*
X90064500Y-154314500D01*
X89997461Y-154294815D01*
X89951706Y-154242011D01*
X89940500Y-154190500D01*
X89940500Y-154123386D01*
X89940500Y-154123384D01*
X89934086Y-154052804D01*
X89883478Y-153890394D01*
X89795472Y-153744815D01*
X89795470Y-153744813D01*
X89795469Y-153744811D01*
X89675188Y-153624530D01*
X89529606Y-153536522D01*
X89529605Y-153536521D01*
X89367196Y-153485914D01*
X89367194Y-153485913D01*
X89367192Y-153485913D01*
X89317778Y-153481423D01*
X89296616Y-153479500D01*
X87583384Y-153479500D01*
X87564145Y-153481248D01*
X87512807Y-153485913D01*
X87350393Y-153536522D01*
X87204811Y-153624530D01*
X87084530Y-153744811D01*
X86996522Y-153890393D01*
X86945913Y-154052807D01*
X86939500Y-154123386D01*
X86939500Y-155836613D01*
X75861204Y-155836613D01*
X75656819Y-155632228D01*
X75623334Y-155570905D01*
X75620500Y-155544547D01*
X75620500Y-154123386D01*
X75620500Y-154123384D01*
X75614086Y-154052804D01*
X75563478Y-153890394D01*
X75475472Y-153744815D01*
X75475470Y-153744813D01*
X75475469Y-153744811D01*
X75355188Y-153624530D01*
X75209606Y-153536522D01*
X75209605Y-153536521D01*
X75047196Y-153485914D01*
X75047194Y-153485913D01*
X75047192Y-153485913D01*
X74997778Y-153481423D01*
X74976616Y-153479500D01*
X73263384Y-153479500D01*
X73244145Y-153481248D01*
X73192807Y-153485913D01*
X73030393Y-153536522D01*
X72884811Y-153624530D01*
X72764530Y-153744811D01*
X72676522Y-153890393D01*
X72625913Y-154052807D01*
X72619500Y-154123386D01*
X72619500Y-155836613D01*
X72625913Y-155907192D01*
X72625913Y-155907194D01*
X72625914Y-155907196D01*
X72650218Y-155985191D01*
X72676522Y-156069606D01*
X72764530Y-156215188D01*
X72884811Y-156335469D01*
X72884813Y-156335470D01*
X72884815Y-156335472D01*
X73030394Y-156423478D01*
X73192804Y-156474086D01*
X73263384Y-156480500D01*
X74684548Y-156480500D01*
X74751587Y-156500185D01*
X74772229Y-156516819D01*
X76119197Y-157863788D01*
X76129022Y-157876051D01*
X76129243Y-157875869D01*
X76134211Y-157881874D01*
X76183932Y-157928566D01*
X76185332Y-157929923D01*
X76205523Y-157950115D01*
X76205527Y-157950118D01*
X76205529Y-157950120D01*
X76211011Y-157954373D01*
X76215443Y-157958157D01*
X76249418Y-157990062D01*
X76266976Y-157999714D01*
X76283233Y-158010393D01*
X76299064Y-158022673D01*
X76318737Y-158031186D01*
X76341833Y-158041182D01*
X76347077Y-158043750D01*
X76387908Y-158066197D01*
X76400523Y-158069435D01*
X76407305Y-158071177D01*
X76425719Y-158077481D01*
X76444104Y-158085438D01*
X76490157Y-158092732D01*
X76495826Y-158093906D01*
X76540981Y-158105500D01*
X76561016Y-158105500D01*
X76580413Y-158107026D01*
X76600196Y-158110160D01*
X76646583Y-158105775D01*
X76652422Y-158105500D01*
X91857257Y-158105500D01*
X91872877Y-158107224D01*
X91872904Y-158106939D01*
X91880666Y-158107673D01*
X91880666Y-158107672D01*
X91880667Y-158107673D01*
X91883999Y-158107568D01*
X91948847Y-158105531D01*
X91950794Y-158105500D01*
X91979347Y-158105500D01*
X91979350Y-158105500D01*
X91986228Y-158104630D01*
X91992041Y-158104172D01*
X92038627Y-158102709D01*
X92057869Y-158097117D01*
X92076912Y-158093174D01*
X92096792Y-158090664D01*
X92140122Y-158073507D01*
X92145646Y-158071617D01*
X92149396Y-158070527D01*
X92190390Y-158058618D01*
X92207629Y-158048422D01*
X92225103Y-158039862D01*
X92243727Y-158032488D01*
X92243727Y-158032487D01*
X92243732Y-158032486D01*
X92281449Y-158005082D01*
X92286305Y-158001892D01*
X92326420Y-157978170D01*
X92340589Y-157963999D01*
X92355379Y-157951368D01*
X92371587Y-157939594D01*
X92401299Y-157903676D01*
X92405212Y-157899376D01*
X93787771Y-156516819D01*
X93849095Y-156483334D01*
X93875453Y-156480500D01*
X94584548Y-156480500D01*
X94651587Y-156500185D01*
X94672229Y-156516819D01*
X96019197Y-157863788D01*
X96029022Y-157876051D01*
X96029243Y-157875869D01*
X96034211Y-157881874D01*
X96083932Y-157928566D01*
X96085332Y-157929923D01*
X96105523Y-157950115D01*
X96105527Y-157950118D01*
X96105529Y-157950120D01*
X96111011Y-157954373D01*
X96115443Y-157958157D01*
X96149418Y-157990062D01*
X96166976Y-157999714D01*
X96183235Y-158010395D01*
X96199064Y-158022673D01*
X96241838Y-158041182D01*
X96247056Y-158043738D01*
X96287908Y-158066197D01*
X96307316Y-158071180D01*
X96325717Y-158077480D01*
X96344104Y-158085437D01*
X96387488Y-158092308D01*
X96390119Y-158092725D01*
X96395839Y-158093909D01*
X96440981Y-158105500D01*
X96461016Y-158105500D01*
X96480414Y-158107026D01*
X96500194Y-158110159D01*
X96500195Y-158110160D01*
X96500195Y-158110159D01*
X96500196Y-158110160D01*
X96546583Y-158105775D01*
X96552422Y-158105500D01*
X112177257Y-158105500D01*
X112192877Y-158107224D01*
X112192904Y-158106939D01*
X112200666Y-158107673D01*
X112200666Y-158107672D01*
X112200667Y-158107673D01*
X112203999Y-158107568D01*
X112268847Y-158105531D01*
X112270794Y-158105500D01*
X112299347Y-158105500D01*
X112299350Y-158105500D01*
X112306228Y-158104630D01*
X112312041Y-158104172D01*
X112358627Y-158102709D01*
X112377869Y-158097117D01*
X112396912Y-158093174D01*
X112416792Y-158090664D01*
X112460122Y-158073507D01*
X112465646Y-158071617D01*
X112469396Y-158070527D01*
X112510390Y-158058618D01*
X112527629Y-158048422D01*
X112545103Y-158039862D01*
X112563727Y-158032488D01*
X112563727Y-158032487D01*
X112563732Y-158032486D01*
X112601449Y-158005082D01*
X112606305Y-158001892D01*
X112646420Y-157978170D01*
X112660589Y-157963999D01*
X112675379Y-157951368D01*
X112691587Y-157939594D01*
X112721299Y-157903676D01*
X112725212Y-157899376D01*
X114107771Y-156516819D01*
X114169095Y-156483334D01*
X114195453Y-156480500D01*
X115324548Y-156480500D01*
X115391587Y-156500185D01*
X115412229Y-156516819D01*
X116759197Y-157863788D01*
X116769022Y-157876051D01*
X116769243Y-157875869D01*
X116774211Y-157881874D01*
X116823932Y-157928566D01*
X116825332Y-157929923D01*
X116845523Y-157950115D01*
X116845527Y-157950118D01*
X116845529Y-157950120D01*
X116851011Y-157954373D01*
X116855443Y-157958157D01*
X116889418Y-157990062D01*
X116906976Y-157999714D01*
X116923233Y-158010393D01*
X116939064Y-158022673D01*
X116958737Y-158031186D01*
X116981833Y-158041182D01*
X116987077Y-158043750D01*
X117027908Y-158066197D01*
X117040523Y-158069435D01*
X117047305Y-158071177D01*
X117065719Y-158077481D01*
X117084104Y-158085438D01*
X117130157Y-158092732D01*
X117135826Y-158093906D01*
X117180981Y-158105500D01*
X117201016Y-158105500D01*
X117220413Y-158107026D01*
X117240196Y-158110160D01*
X117286583Y-158105775D01*
X117292422Y-158105500D01*
X132497257Y-158105500D01*
X132512877Y-158107224D01*
X132512904Y-158106939D01*
X132520666Y-158107673D01*
X132520666Y-158107672D01*
X132520667Y-158107673D01*
X132523999Y-158107568D01*
X132588847Y-158105531D01*
X132590794Y-158105500D01*
X132619347Y-158105500D01*
X132619350Y-158105500D01*
X132626228Y-158104630D01*
X132632041Y-158104172D01*
X132678627Y-158102709D01*
X132697869Y-158097117D01*
X132716912Y-158093174D01*
X132736792Y-158090664D01*
X132780122Y-158073507D01*
X132785646Y-158071617D01*
X132789396Y-158070527D01*
X132830390Y-158058618D01*
X132847629Y-158048422D01*
X132865103Y-158039862D01*
X132883727Y-158032488D01*
X132883727Y-158032487D01*
X132883732Y-158032486D01*
X132921449Y-158005082D01*
X132926305Y-158001892D01*
X132966420Y-157978170D01*
X132980589Y-157963999D01*
X132995379Y-157951368D01*
X133011587Y-157939594D01*
X133041299Y-157903676D01*
X133045212Y-157899376D01*
X134427771Y-156516819D01*
X134489095Y-156483334D01*
X134515453Y-156480500D01*
X135936613Y-156480500D01*
X135936616Y-156480500D01*
X136007196Y-156474086D01*
X136169606Y-156423478D01*
X136315185Y-156335472D01*
X136435472Y-156215185D01*
X136523478Y-156069606D01*
X136574086Y-155907196D01*
X136580500Y-155836616D01*
X136580500Y-154415452D01*
X136600185Y-154348413D01*
X136616819Y-154327771D01*
X138409619Y-152534971D01*
X138470942Y-152501486D01*
X138540634Y-152506470D01*
X138596567Y-152548342D01*
X138620984Y-152613806D01*
X138621300Y-152622652D01*
X138621300Y-163202747D01*
X138601615Y-163269786D01*
X138584981Y-163290428D01*
X135732228Y-166143181D01*
X135670905Y-166176666D01*
X135644547Y-166179500D01*
X134223384Y-166179500D01*
X134204145Y-166181248D01*
X134152807Y-166185913D01*
X133990393Y-166236522D01*
X133844811Y-166324530D01*
X133724530Y-166444811D01*
X133636522Y-166590393D01*
X133585913Y-166752807D01*
X133579500Y-166823386D01*
X133579500Y-168244547D01*
X133559815Y-168311586D01*
X133543181Y-168332228D01*
X132357228Y-169518181D01*
X132295905Y-169551666D01*
X132269547Y-169554500D01*
X117150453Y-169554500D01*
X117083414Y-169534815D01*
X117062772Y-169518181D01*
X116282786Y-168738195D01*
X116249301Y-168676872D01*
X116252083Y-168613621D01*
X116254086Y-168607196D01*
X116260500Y-168536616D01*
X116260500Y-168536613D01*
X127579500Y-168536613D01*
X127585913Y-168607192D01*
X127585913Y-168607194D01*
X127585914Y-168607196D01*
X127610218Y-168685191D01*
X127636522Y-168769606D01*
X127724530Y-168915188D01*
X127844811Y-169035469D01*
X127844813Y-169035470D01*
X127844815Y-169035472D01*
X127990394Y-169123478D01*
X128152804Y-169174086D01*
X128223384Y-169180500D01*
X128223387Y-169180500D01*
X129936613Y-169180500D01*
X129936616Y-169180500D01*
X130007196Y-169174086D01*
X130169606Y-169123478D01*
X130315185Y-169035472D01*
X130435472Y-168915185D01*
X130523478Y-168769606D01*
X130574086Y-168607196D01*
X130580500Y-168536616D01*
X130580499Y-168429500D01*
X130600185Y-168362461D01*
X130652989Y-168316706D01*
X130704500Y-168305500D01*
X131423671Y-168305500D01*
X131490710Y-168325185D01*
X131496537Y-168329168D01*
X131542361Y-168362461D01*
X131627270Y-168424151D01*
X131800192Y-168501142D01*
X131800197Y-168501144D01*
X131985354Y-168540500D01*
X131985355Y-168540500D01*
X132174644Y-168540500D01*
X132174646Y-168540500D01*
X132359803Y-168501144D01*
X132532730Y-168424151D01*
X132685871Y-168312888D01*
X132812533Y-168172216D01*
X132907179Y-168008284D01*
X132965674Y-167828256D01*
X132985460Y-167640000D01*
X132965674Y-167451744D01*
X132907179Y-167271716D01*
X132812533Y-167107784D01*
X132685871Y-166967112D01*
X132685870Y-166967111D01*
X132532734Y-166855851D01*
X132532729Y-166855848D01*
X132359807Y-166778857D01*
X132359802Y-166778855D01*
X132214000Y-166747865D01*
X132174646Y-166739500D01*
X131985354Y-166739500D01*
X131952897Y-166746398D01*
X131800197Y-166778855D01*
X131800192Y-166778857D01*
X131627270Y-166855848D01*
X131627265Y-166855851D01*
X131474135Y-166967106D01*
X131474133Y-166967107D01*
X131460714Y-166982011D01*
X131432383Y-167013474D01*
X131372899Y-167050121D01*
X131340236Y-167054500D01*
X130704500Y-167054500D01*
X130637461Y-167034815D01*
X130591706Y-166982011D01*
X130580500Y-166930500D01*
X130580500Y-166823386D01*
X130580500Y-166823384D01*
X130574086Y-166752804D01*
X130523478Y-166590394D01*
X130435472Y-166444815D01*
X130435470Y-166444813D01*
X130435469Y-166444811D01*
X130315188Y-166324530D01*
X130169606Y-166236522D01*
X130169605Y-166236521D01*
X130007196Y-166185914D01*
X130007194Y-166185913D01*
X130007192Y-166185913D01*
X129957778Y-166181423D01*
X129936616Y-166179500D01*
X128223384Y-166179500D01*
X128204145Y-166181248D01*
X128152807Y-166185913D01*
X127990393Y-166236522D01*
X127844811Y-166324530D01*
X127724530Y-166444811D01*
X127636522Y-166590393D01*
X127585913Y-166752807D01*
X127579500Y-166823386D01*
X127579500Y-168536613D01*
X116260500Y-168536613D01*
X116260500Y-166823384D01*
X116254086Y-166752804D01*
X116203478Y-166590394D01*
X116115472Y-166444815D01*
X116115470Y-166444813D01*
X116115469Y-166444811D01*
X115995188Y-166324530D01*
X115849606Y-166236522D01*
X115849606Y-166236521D01*
X115687196Y-166185914D01*
X115687194Y-166185913D01*
X115687192Y-166185913D01*
X115637778Y-166181423D01*
X115616616Y-166179500D01*
X113903384Y-166179500D01*
X113884145Y-166181248D01*
X113832807Y-166185913D01*
X113670393Y-166236522D01*
X113524811Y-166324530D01*
X113404530Y-166444811D01*
X113316522Y-166590393D01*
X113265913Y-166752807D01*
X113259500Y-166823386D01*
X113259500Y-168244547D01*
X113239815Y-168311586D01*
X113223181Y-168332228D01*
X112037228Y-169518181D01*
X111975905Y-169551666D01*
X111949547Y-169554500D01*
X97250452Y-169554500D01*
X97183413Y-169534815D01*
X97162771Y-169518181D01*
X96181204Y-168536613D01*
X107259500Y-168536613D01*
X107265913Y-168607192D01*
X107265913Y-168607194D01*
X107265914Y-168607196D01*
X107290218Y-168685191D01*
X107316522Y-168769606D01*
X107404530Y-168915188D01*
X107524811Y-169035469D01*
X107524813Y-169035470D01*
X107524815Y-169035472D01*
X107670394Y-169123478D01*
X107832804Y-169174086D01*
X107903384Y-169180500D01*
X107903387Y-169180500D01*
X109616613Y-169180500D01*
X109616616Y-169180500D01*
X109687196Y-169174086D01*
X109849606Y-169123478D01*
X109995185Y-169035472D01*
X110115472Y-168915185D01*
X110203478Y-168769606D01*
X110254086Y-168607196D01*
X110260500Y-168536616D01*
X110260499Y-168389500D01*
X110280185Y-168322461D01*
X110332989Y-168276706D01*
X110384500Y-168265500D01*
X111056252Y-168265500D01*
X111123291Y-168285185D01*
X111148400Y-168306526D01*
X111154126Y-168312885D01*
X111154130Y-168312889D01*
X111307265Y-168424148D01*
X111307270Y-168424151D01*
X111480192Y-168501142D01*
X111480197Y-168501144D01*
X111665354Y-168540500D01*
X111665355Y-168540500D01*
X111854644Y-168540500D01*
X111854646Y-168540500D01*
X112039803Y-168501144D01*
X112212730Y-168424151D01*
X112365871Y-168312888D01*
X112492533Y-168172216D01*
X112587179Y-168008284D01*
X112645674Y-167828256D01*
X112665460Y-167640000D01*
X112645674Y-167451744D01*
X112587179Y-167271716D01*
X112492533Y-167107784D01*
X112365871Y-166967112D01*
X112365870Y-166967111D01*
X112212734Y-166855851D01*
X112212729Y-166855848D01*
X112039807Y-166778857D01*
X112039802Y-166778855D01*
X111894000Y-166747865D01*
X111854646Y-166739500D01*
X111665354Y-166739500D01*
X111632897Y-166746398D01*
X111480197Y-166778855D01*
X111480192Y-166778857D01*
X111307270Y-166855848D01*
X111307265Y-166855851D01*
X111154130Y-166967110D01*
X111154126Y-166967114D01*
X111148400Y-166973474D01*
X111088913Y-167010121D01*
X111056252Y-167014500D01*
X110384500Y-167014500D01*
X110317461Y-166994815D01*
X110271706Y-166942011D01*
X110260500Y-166890500D01*
X110260500Y-166823386D01*
X110260500Y-166823384D01*
X110254086Y-166752804D01*
X110203478Y-166590394D01*
X110115472Y-166444815D01*
X110115470Y-166444813D01*
X110115469Y-166444811D01*
X109995188Y-166324530D01*
X109849606Y-166236522D01*
X109849605Y-166236521D01*
X109687196Y-166185914D01*
X109687194Y-166185913D01*
X109687192Y-166185913D01*
X109637778Y-166181423D01*
X109616616Y-166179500D01*
X107903384Y-166179500D01*
X107884145Y-166181248D01*
X107832807Y-166185913D01*
X107670393Y-166236522D01*
X107524811Y-166324530D01*
X107404530Y-166444811D01*
X107316522Y-166590393D01*
X107265913Y-166752807D01*
X107259500Y-166823386D01*
X107259500Y-168536613D01*
X96181204Y-168536613D01*
X95976819Y-168332228D01*
X95943334Y-168270905D01*
X95940500Y-168244547D01*
X95940500Y-166823386D01*
X95940500Y-166823384D01*
X95934086Y-166752804D01*
X95883478Y-166590394D01*
X95795472Y-166444815D01*
X95795470Y-166444813D01*
X95795469Y-166444811D01*
X95675188Y-166324530D01*
X95529606Y-166236522D01*
X95529606Y-166236521D01*
X95367196Y-166185914D01*
X95367194Y-166185913D01*
X95367192Y-166185913D01*
X95317778Y-166181423D01*
X95296616Y-166179500D01*
X93583384Y-166179500D01*
X93564145Y-166181248D01*
X93512807Y-166185913D01*
X93350393Y-166236522D01*
X93204811Y-166324530D01*
X93084530Y-166444811D01*
X92996522Y-166590393D01*
X92945913Y-166752807D01*
X92939500Y-166823386D01*
X92939500Y-168536613D01*
X92945913Y-168607192D01*
X92945913Y-168607194D01*
X92945914Y-168607196D01*
X92970218Y-168685191D01*
X92996522Y-168769606D01*
X93084530Y-168915188D01*
X93204811Y-169035469D01*
X93204813Y-169035470D01*
X93204815Y-169035472D01*
X93350394Y-169123478D01*
X93512804Y-169174086D01*
X93583384Y-169180500D01*
X95004548Y-169180500D01*
X95071587Y-169200185D01*
X95092229Y-169216819D01*
X96439197Y-170563788D01*
X96449022Y-170576051D01*
X96449243Y-170575869D01*
X96454211Y-170581874D01*
X96503932Y-170628566D01*
X96505332Y-170629923D01*
X96525523Y-170650115D01*
X96525527Y-170650118D01*
X96525529Y-170650120D01*
X96531011Y-170654373D01*
X96535443Y-170658157D01*
X96569418Y-170690062D01*
X96586976Y-170699714D01*
X96603233Y-170710393D01*
X96619064Y-170722673D01*
X96638737Y-170731186D01*
X96661833Y-170741182D01*
X96667077Y-170743750D01*
X96707908Y-170766197D01*
X96720523Y-170769435D01*
X96727305Y-170771177D01*
X96745719Y-170777481D01*
X96764104Y-170785438D01*
X96810157Y-170792732D01*
X96815826Y-170793906D01*
X96860981Y-170805500D01*
X96881016Y-170805500D01*
X96900413Y-170807026D01*
X96920196Y-170810160D01*
X96966583Y-170805775D01*
X96972422Y-170805500D01*
X112177257Y-170805500D01*
X112192877Y-170807224D01*
X112192904Y-170806939D01*
X112200666Y-170807673D01*
X112200666Y-170807672D01*
X112200667Y-170807673D01*
X112203999Y-170807568D01*
X112268847Y-170805531D01*
X112270794Y-170805500D01*
X112299347Y-170805500D01*
X112299350Y-170805500D01*
X112306228Y-170804630D01*
X112312041Y-170804172D01*
X112358627Y-170802709D01*
X112377869Y-170797117D01*
X112396912Y-170793174D01*
X112416792Y-170790664D01*
X112460122Y-170773507D01*
X112465646Y-170771617D01*
X112469396Y-170770527D01*
X112510390Y-170758618D01*
X112527629Y-170748422D01*
X112545103Y-170739862D01*
X112563727Y-170732488D01*
X112563727Y-170732487D01*
X112563732Y-170732486D01*
X112601449Y-170705082D01*
X112606305Y-170701892D01*
X112646420Y-170678170D01*
X112660589Y-170663999D01*
X112675379Y-170651368D01*
X112691587Y-170639594D01*
X112721299Y-170603676D01*
X112725212Y-170599376D01*
X114107771Y-169216819D01*
X114169095Y-169183334D01*
X114195453Y-169180500D01*
X114904548Y-169180500D01*
X114971587Y-169200185D01*
X114992229Y-169216819D01*
X116339197Y-170563788D01*
X116349022Y-170576051D01*
X116349243Y-170575869D01*
X116354211Y-170581874D01*
X116403932Y-170628566D01*
X116405332Y-170629923D01*
X116425523Y-170650115D01*
X116425527Y-170650118D01*
X116425529Y-170650120D01*
X116431011Y-170654373D01*
X116435443Y-170658157D01*
X116469418Y-170690062D01*
X116486976Y-170699714D01*
X116503235Y-170710395D01*
X116519064Y-170722673D01*
X116561838Y-170741182D01*
X116567056Y-170743738D01*
X116607908Y-170766197D01*
X116627316Y-170771180D01*
X116645717Y-170777480D01*
X116664104Y-170785437D01*
X116707488Y-170792308D01*
X116710119Y-170792725D01*
X116715839Y-170793909D01*
X116760981Y-170805500D01*
X116781016Y-170805500D01*
X116800414Y-170807026D01*
X116820194Y-170810159D01*
X116820195Y-170810160D01*
X116820195Y-170810159D01*
X116820196Y-170810160D01*
X116866583Y-170805775D01*
X116872422Y-170805500D01*
X132497257Y-170805500D01*
X132512877Y-170807224D01*
X132512904Y-170806939D01*
X132520666Y-170807673D01*
X132520666Y-170807672D01*
X132520667Y-170807673D01*
X132523999Y-170807568D01*
X132588847Y-170805531D01*
X132590794Y-170805500D01*
X132619347Y-170805500D01*
X132619350Y-170805500D01*
X132626228Y-170804630D01*
X132632041Y-170804172D01*
X132678627Y-170802709D01*
X132697869Y-170797117D01*
X132716912Y-170793174D01*
X132736792Y-170790664D01*
X132780122Y-170773507D01*
X132785646Y-170771617D01*
X132789396Y-170770527D01*
X132830390Y-170758618D01*
X132847629Y-170748422D01*
X132865103Y-170739862D01*
X132883727Y-170732488D01*
X132883727Y-170732487D01*
X132883732Y-170732486D01*
X132921449Y-170705082D01*
X132926305Y-170701892D01*
X132966420Y-170678170D01*
X132980589Y-170663999D01*
X132995379Y-170651368D01*
X133011587Y-170639594D01*
X133041299Y-170603676D01*
X133045212Y-170599376D01*
X134427771Y-169216819D01*
X134489095Y-169183334D01*
X134515453Y-169180500D01*
X135936613Y-169180500D01*
X135936616Y-169180500D01*
X136007196Y-169174086D01*
X136169606Y-169123478D01*
X136315185Y-169035472D01*
X136435472Y-168915185D01*
X136523478Y-168769606D01*
X136574086Y-168607196D01*
X136580500Y-168536616D01*
X136580500Y-167115452D01*
X136600185Y-167048413D01*
X136616819Y-167027771D01*
X138862819Y-164781771D01*
X138924142Y-164748286D01*
X138993834Y-164753270D01*
X139049767Y-164795142D01*
X139074184Y-164860606D01*
X139074500Y-164869452D01*
X139074500Y-175449547D01*
X139054815Y-175516586D01*
X139038181Y-175537228D01*
X135732228Y-178843181D01*
X135670905Y-178876666D01*
X135644547Y-178879500D01*
X134223384Y-178879500D01*
X134204145Y-178881248D01*
X134152807Y-178885913D01*
X133990393Y-178936522D01*
X133844811Y-179024530D01*
X133724530Y-179144811D01*
X133636522Y-179290393D01*
X133585913Y-179452807D01*
X133579500Y-179523386D01*
X133579500Y-180944547D01*
X133559815Y-181011586D01*
X133543181Y-181032228D01*
X132357228Y-182218181D01*
X132295905Y-182251666D01*
X132269547Y-182254500D01*
X117570452Y-182254500D01*
X117503413Y-182234815D01*
X117482771Y-182218181D01*
X116501204Y-181236613D01*
X127579500Y-181236613D01*
X127585913Y-181307192D01*
X127636522Y-181469606D01*
X127724530Y-181615188D01*
X127844811Y-181735469D01*
X127844813Y-181735470D01*
X127844815Y-181735472D01*
X127990394Y-181823478D01*
X128152804Y-181874086D01*
X128223384Y-181880500D01*
X128223387Y-181880500D01*
X129936613Y-181880500D01*
X129936616Y-181880500D01*
X130007196Y-181874086D01*
X130169606Y-181823478D01*
X130315185Y-181735472D01*
X130435472Y-181615185D01*
X130523478Y-181469606D01*
X130574086Y-181307196D01*
X130580500Y-181236616D01*
X130580499Y-181129500D01*
X130600185Y-181062461D01*
X130652989Y-181016706D01*
X130704500Y-181005500D01*
X131423671Y-181005500D01*
X131490710Y-181025185D01*
X131496537Y-181029168D01*
X131542361Y-181062461D01*
X131627270Y-181124151D01*
X131800192Y-181201142D01*
X131800197Y-181201144D01*
X131985354Y-181240500D01*
X131985355Y-181240500D01*
X132174644Y-181240500D01*
X132174646Y-181240500D01*
X132359803Y-181201144D01*
X132532730Y-181124151D01*
X132685871Y-181012888D01*
X132812533Y-180872216D01*
X132907179Y-180708284D01*
X132965674Y-180528256D01*
X132985460Y-180340000D01*
X132965674Y-180151744D01*
X132907179Y-179971716D01*
X132812533Y-179807784D01*
X132685871Y-179667112D01*
X132685870Y-179667111D01*
X132532734Y-179555851D01*
X132532729Y-179555848D01*
X132359807Y-179478857D01*
X132359802Y-179478855D01*
X132214001Y-179447865D01*
X132174646Y-179439500D01*
X131985354Y-179439500D01*
X131952897Y-179446398D01*
X131800197Y-179478855D01*
X131800192Y-179478857D01*
X131627270Y-179555848D01*
X131627265Y-179555851D01*
X131474135Y-179667106D01*
X131474133Y-179667107D01*
X131460714Y-179682011D01*
X131432383Y-179713474D01*
X131372899Y-179750121D01*
X131340236Y-179754500D01*
X130704500Y-179754500D01*
X130637461Y-179734815D01*
X130591706Y-179682011D01*
X130580500Y-179630500D01*
X130580500Y-179523386D01*
X130580500Y-179523384D01*
X130574086Y-179452804D01*
X130523478Y-179290394D01*
X130435472Y-179144815D01*
X130435470Y-179144813D01*
X130435469Y-179144811D01*
X130315188Y-179024530D01*
X130169606Y-178936522D01*
X130169605Y-178936521D01*
X130007196Y-178885914D01*
X130007194Y-178885913D01*
X130007192Y-178885913D01*
X129957778Y-178881423D01*
X129936616Y-178879500D01*
X128223384Y-178879500D01*
X128204145Y-178881248D01*
X128152807Y-178885913D01*
X127990393Y-178936522D01*
X127844811Y-179024530D01*
X127724530Y-179144811D01*
X127636522Y-179290393D01*
X127585913Y-179452807D01*
X127579500Y-179523386D01*
X127579500Y-181236613D01*
X116501204Y-181236613D01*
X116296819Y-181032228D01*
X116263334Y-180970905D01*
X116260500Y-180944547D01*
X116260500Y-179523386D01*
X116260500Y-179523384D01*
X116254086Y-179452804D01*
X116203478Y-179290394D01*
X116115472Y-179144815D01*
X116115470Y-179144813D01*
X116115469Y-179144811D01*
X115995188Y-179024530D01*
X115849606Y-178936522D01*
X115687196Y-178885914D01*
X115687194Y-178885913D01*
X115687192Y-178885913D01*
X115637778Y-178881423D01*
X115616616Y-178879500D01*
X113903384Y-178879500D01*
X113884145Y-178881248D01*
X113832807Y-178885913D01*
X113670393Y-178936522D01*
X113524811Y-179024530D01*
X113404530Y-179144811D01*
X113316522Y-179290393D01*
X113265913Y-179452807D01*
X113259500Y-179523386D01*
X113259500Y-180944547D01*
X113239815Y-181011586D01*
X113223181Y-181032228D01*
X112037228Y-182218181D01*
X111975905Y-182251666D01*
X111949547Y-182254500D01*
X97250452Y-182254500D01*
X97183413Y-182234815D01*
X97162771Y-182218181D01*
X96181204Y-181236613D01*
X107259500Y-181236613D01*
X107265913Y-181307192D01*
X107316522Y-181469606D01*
X107404530Y-181615188D01*
X107524811Y-181735469D01*
X107524813Y-181735470D01*
X107524815Y-181735472D01*
X107670394Y-181823478D01*
X107832804Y-181874086D01*
X107903384Y-181880500D01*
X107903387Y-181880500D01*
X109616613Y-181880500D01*
X109616616Y-181880500D01*
X109687196Y-181874086D01*
X109849606Y-181823478D01*
X109995185Y-181735472D01*
X110115472Y-181615185D01*
X110203478Y-181469606D01*
X110254086Y-181307196D01*
X110260500Y-181236616D01*
X110260499Y-181089499D01*
X110280185Y-181022461D01*
X110332989Y-180976706D01*
X110384500Y-180965500D01*
X111056252Y-180965500D01*
X111123291Y-180985185D01*
X111148400Y-181006526D01*
X111154126Y-181012885D01*
X111154130Y-181012889D01*
X111307265Y-181124148D01*
X111307270Y-181124151D01*
X111480192Y-181201142D01*
X111480197Y-181201144D01*
X111665354Y-181240500D01*
X111665355Y-181240500D01*
X111854644Y-181240500D01*
X111854646Y-181240500D01*
X112039803Y-181201144D01*
X112212730Y-181124151D01*
X112365871Y-181012888D01*
X112492533Y-180872216D01*
X112587179Y-180708284D01*
X112645674Y-180528256D01*
X112665460Y-180340000D01*
X112645674Y-180151744D01*
X112587179Y-179971716D01*
X112492533Y-179807784D01*
X112365871Y-179667112D01*
X112365870Y-179667111D01*
X112212734Y-179555851D01*
X112212729Y-179555848D01*
X112039807Y-179478857D01*
X112039802Y-179478855D01*
X111894000Y-179447865D01*
X111854646Y-179439500D01*
X111665354Y-179439500D01*
X111632897Y-179446398D01*
X111480197Y-179478855D01*
X111480192Y-179478857D01*
X111307270Y-179555848D01*
X111307265Y-179555851D01*
X111154130Y-179667110D01*
X111154126Y-179667114D01*
X111148400Y-179673474D01*
X111088913Y-179710121D01*
X111056252Y-179714500D01*
X110384500Y-179714500D01*
X110317461Y-179694815D01*
X110271706Y-179642011D01*
X110260500Y-179590500D01*
X110260500Y-179523386D01*
X110260500Y-179523384D01*
X110254086Y-179452804D01*
X110203478Y-179290394D01*
X110115472Y-179144815D01*
X110115470Y-179144813D01*
X110115469Y-179144811D01*
X109995188Y-179024530D01*
X109849606Y-178936522D01*
X109849605Y-178936522D01*
X109687196Y-178885914D01*
X109687194Y-178885913D01*
X109687192Y-178885913D01*
X109637778Y-178881423D01*
X109616616Y-178879500D01*
X107903384Y-178879500D01*
X107884145Y-178881248D01*
X107832807Y-178885913D01*
X107670393Y-178936522D01*
X107524811Y-179024530D01*
X107404530Y-179144811D01*
X107316522Y-179290393D01*
X107265913Y-179452807D01*
X107259500Y-179523386D01*
X107259500Y-181236613D01*
X96181204Y-181236613D01*
X95976819Y-181032228D01*
X95943334Y-180970905D01*
X95940500Y-180944547D01*
X95940500Y-179523386D01*
X95940500Y-179523384D01*
X95934086Y-179452804D01*
X95883478Y-179290394D01*
X95795472Y-179144815D01*
X95795470Y-179144813D01*
X95795469Y-179144811D01*
X95675188Y-179024530D01*
X95529606Y-178936522D01*
X95367196Y-178885914D01*
X95367194Y-178885913D01*
X95367192Y-178885913D01*
X95317778Y-178881423D01*
X95296616Y-178879500D01*
X93583384Y-178879500D01*
X93564145Y-178881248D01*
X93512807Y-178885913D01*
X93350393Y-178936522D01*
X93204811Y-179024530D01*
X93084530Y-179144811D01*
X92996522Y-179290393D01*
X92945913Y-179452807D01*
X92939500Y-179523386D01*
X92939500Y-181236613D01*
X92945913Y-181307192D01*
X92996522Y-181469606D01*
X93084530Y-181615188D01*
X93204811Y-181735469D01*
X93204813Y-181735470D01*
X93204815Y-181735472D01*
X93350394Y-181823478D01*
X93512804Y-181874086D01*
X93583384Y-181880500D01*
X95004548Y-181880500D01*
X95071587Y-181900185D01*
X95092229Y-181916819D01*
X96439197Y-183263788D01*
X96449022Y-183276051D01*
X96449243Y-183275869D01*
X96454211Y-183281874D01*
X96503932Y-183328566D01*
X96505332Y-183329923D01*
X96525523Y-183350115D01*
X96525527Y-183350118D01*
X96525529Y-183350120D01*
X96531011Y-183354373D01*
X96535443Y-183358157D01*
X96569418Y-183390062D01*
X96586976Y-183399714D01*
X96603233Y-183410393D01*
X96619064Y-183422673D01*
X96638737Y-183431186D01*
X96661833Y-183441182D01*
X96667077Y-183443750D01*
X96707908Y-183466197D01*
X96720523Y-183469435D01*
X96727305Y-183471177D01*
X96745719Y-183477481D01*
X96764104Y-183485438D01*
X96810157Y-183492732D01*
X96815826Y-183493906D01*
X96860981Y-183505500D01*
X96881016Y-183505500D01*
X96900413Y-183507026D01*
X96920196Y-183510160D01*
X96966583Y-183505775D01*
X96972422Y-183505500D01*
X112177257Y-183505500D01*
X112192877Y-183507224D01*
X112192904Y-183506939D01*
X112200666Y-183507673D01*
X112200666Y-183507672D01*
X112200667Y-183507673D01*
X112203999Y-183507568D01*
X112268847Y-183505531D01*
X112270794Y-183505500D01*
X112299347Y-183505500D01*
X112299350Y-183505500D01*
X112306228Y-183504630D01*
X112312041Y-183504172D01*
X112358627Y-183502709D01*
X112377869Y-183497117D01*
X112396912Y-183493174D01*
X112416792Y-183490664D01*
X112460122Y-183473507D01*
X112465646Y-183471617D01*
X112469396Y-183470527D01*
X112510390Y-183458618D01*
X112527629Y-183448422D01*
X112545103Y-183439862D01*
X112563727Y-183432488D01*
X112563727Y-183432487D01*
X112563732Y-183432486D01*
X112601449Y-183405082D01*
X112606305Y-183401892D01*
X112646420Y-183378170D01*
X112660589Y-183363999D01*
X112675379Y-183351368D01*
X112691587Y-183339594D01*
X112721299Y-183303676D01*
X112725212Y-183299376D01*
X114107771Y-181916819D01*
X114169095Y-181883334D01*
X114195453Y-181880500D01*
X115324548Y-181880500D01*
X115391587Y-181900185D01*
X115412229Y-181916819D01*
X116759197Y-183263788D01*
X116769022Y-183276051D01*
X116769243Y-183275869D01*
X116774211Y-183281874D01*
X116823932Y-183328566D01*
X116825332Y-183329923D01*
X116845523Y-183350115D01*
X116845527Y-183350118D01*
X116845529Y-183350120D01*
X116851011Y-183354373D01*
X116855443Y-183358157D01*
X116889418Y-183390062D01*
X116906976Y-183399714D01*
X116923233Y-183410393D01*
X116939064Y-183422673D01*
X116958737Y-183431186D01*
X116981833Y-183441182D01*
X116987077Y-183443750D01*
X117027908Y-183466197D01*
X117040523Y-183469435D01*
X117047305Y-183471177D01*
X117065719Y-183477481D01*
X117084104Y-183485438D01*
X117130157Y-183492732D01*
X117135826Y-183493906D01*
X117180981Y-183505500D01*
X117201016Y-183505500D01*
X117220413Y-183507026D01*
X117240196Y-183510160D01*
X117286583Y-183505775D01*
X117292422Y-183505500D01*
X132497257Y-183505500D01*
X132512877Y-183507224D01*
X132512904Y-183506939D01*
X132520666Y-183507673D01*
X132520666Y-183507672D01*
X132520667Y-183507673D01*
X132523999Y-183507568D01*
X132588847Y-183505531D01*
X132590794Y-183505500D01*
X132619347Y-183505500D01*
X132619350Y-183505500D01*
X132626228Y-183504630D01*
X132632041Y-183504172D01*
X132678627Y-183502709D01*
X132697869Y-183497117D01*
X132716912Y-183493174D01*
X132736792Y-183490664D01*
X132780122Y-183473507D01*
X132785646Y-183471617D01*
X132789396Y-183470527D01*
X132830390Y-183458618D01*
X132847629Y-183448422D01*
X132865103Y-183439862D01*
X132883727Y-183432488D01*
X132883727Y-183432487D01*
X132883732Y-183432486D01*
X132921449Y-183405082D01*
X132926305Y-183401892D01*
X132966420Y-183378170D01*
X132980589Y-183363999D01*
X132995379Y-183351368D01*
X133011587Y-183339594D01*
X133041299Y-183303676D01*
X133045212Y-183299376D01*
X134427771Y-181916819D01*
X134489095Y-181883334D01*
X134515453Y-181880500D01*
X135936613Y-181880500D01*
X135936616Y-181880500D01*
X136007196Y-181874086D01*
X136169606Y-181823478D01*
X136315185Y-181735472D01*
X136435472Y-181615185D01*
X136523478Y-181469606D01*
X136574086Y-181307196D01*
X136580500Y-181236616D01*
X136580500Y-179815451D01*
X136600185Y-179748412D01*
X136616814Y-179727775D01*
X140083786Y-176260802D01*
X140096048Y-176250980D01*
X140095865Y-176250759D01*
X140101873Y-176245788D01*
X140101877Y-176245786D01*
X140148649Y-176195977D01*
X140149891Y-176194697D01*
X140170120Y-176174470D01*
X140174373Y-176168986D01*
X140178150Y-176164563D01*
X140210062Y-176130582D01*
X140219714Y-176113023D01*
X140230389Y-176096772D01*
X140242674Y-176080936D01*
X140261186Y-176038152D01*
X140263742Y-176032935D01*
X140286197Y-175992092D01*
X140291180Y-175972680D01*
X140297477Y-175954291D01*
X140305438Y-175935895D01*
X140312729Y-175889853D01*
X140313908Y-175884162D01*
X140325500Y-175839019D01*
X140325500Y-175818982D01*
X140327027Y-175799582D01*
X140330160Y-175779804D01*
X140325775Y-175733415D01*
X140325500Y-175727577D01*
X140325500Y-113100898D01*
X140327224Y-113085278D01*
X140326939Y-113085252D01*
X140327673Y-113077489D01*
X140325531Y-113009308D01*
X140325500Y-113007361D01*
X140325500Y-112978810D01*
X140325500Y-112978806D01*
X140324631Y-112971928D01*
X140324172Y-112966099D01*
X140322709Y-112919528D01*
X140317122Y-112900300D01*
X140313174Y-112881240D01*
X140310663Y-112861360D01*
X140293512Y-112818043D01*
X140291619Y-112812514D01*
X140278618Y-112767765D01*
X140278616Y-112767762D01*
X140268423Y-112750527D01*
X140259861Y-112733050D01*
X140252487Y-112714426D01*
X140252486Y-112714424D01*
X140225079Y-112676701D01*
X140221888Y-112671842D01*
X140198172Y-112631739D01*
X140198165Y-112631730D01*
X140184006Y-112617571D01*
X140171368Y-112602775D01*
X140159594Y-112586569D01*
X140123688Y-112556865D01*
X140119376Y-112552942D01*
X135281819Y-107715384D01*
X135248334Y-107654061D01*
X135245500Y-107627703D01*
X135245500Y-106884499D01*
X135265185Y-106817460D01*
X135317989Y-106771705D01*
X135369500Y-106760499D01*
X137317871Y-106760499D01*
X137317872Y-106760499D01*
X137377483Y-106754091D01*
X137512331Y-106703796D01*
X137627546Y-106617546D01*
X137713796Y-106502331D01*
X137764091Y-106367483D01*
X137770500Y-106307873D01*
X137770499Y-104512128D01*
X137764091Y-104452517D01*
X137713796Y-104317669D01*
X137636421Y-104214309D01*
X137612004Y-104148848D01*
X137626855Y-104080575D01*
X137636416Y-104065696D01*
X137713796Y-103962331D01*
X137764091Y-103827483D01*
X137770500Y-103767873D01*
X137770499Y-101972128D01*
X137764091Y-101912517D01*
X137713796Y-101777669D01*
X137636109Y-101673893D01*
X137611692Y-101608430D01*
X137626543Y-101540157D01*
X137636110Y-101525271D01*
X137713352Y-101422089D01*
X137713354Y-101422086D01*
X137763596Y-101287379D01*
X137763598Y-101287372D01*
X137769999Y-101227844D01*
X137770000Y-101227827D01*
X137770000Y-100580000D01*
X135065572Y-100580000D01*
X135088682Y-100544040D01*
X135130000Y-100403327D01*
X135130000Y-100256673D01*
X135088682Y-100115960D01*
X135065572Y-100080000D01*
X137770000Y-100080000D01*
X137770000Y-99432172D01*
X137769999Y-99432155D01*
X137763598Y-99372627D01*
X137763596Y-99372620D01*
X137713354Y-99237913D01*
X137713352Y-99237910D01*
X137636110Y-99134729D01*
X137611692Y-99069265D01*
X137626543Y-99000992D01*
X137636105Y-98986111D01*
X137713796Y-98882331D01*
X137764091Y-98747483D01*
X137770500Y-98687873D01*
X137770499Y-96892128D01*
X137764091Y-96832517D01*
X137727014Y-96733109D01*
X137713797Y-96697671D01*
X137713795Y-96697668D01*
X137636421Y-96594309D01*
X137612004Y-96528848D01*
X137626855Y-96460575D01*
X137636416Y-96445696D01*
X137713796Y-96342331D01*
X137764091Y-96207483D01*
X137770500Y-96147873D01*
X137770499Y-94352128D01*
X137764091Y-94292517D01*
X137713796Y-94157669D01*
X137636421Y-94054309D01*
X137612004Y-93988848D01*
X137626855Y-93920575D01*
X137636416Y-93905696D01*
X137713796Y-93802331D01*
X137764091Y-93667483D01*
X137770500Y-93607873D01*
X137770499Y-91812128D01*
X137764091Y-91752517D01*
X137713796Y-91617669D01*
X137636421Y-91514309D01*
X137612004Y-91448848D01*
X137626855Y-91380575D01*
X137636416Y-91365696D01*
X137713796Y-91262331D01*
X137764091Y-91127483D01*
X137770500Y-91067873D01*
X137770499Y-89272128D01*
X137764091Y-89212517D01*
X137713796Y-89077669D01*
X137636109Y-88973893D01*
X137611692Y-88908430D01*
X137626543Y-88840157D01*
X137636110Y-88825271D01*
X137713352Y-88722089D01*
X137713354Y-88722086D01*
X137763596Y-88587379D01*
X137763598Y-88587372D01*
X137769999Y-88527844D01*
X137770000Y-88527827D01*
X137770000Y-87880000D01*
X135065572Y-87880000D01*
X135088682Y-87844040D01*
X135130000Y-87703327D01*
X135130000Y-87556673D01*
X135088682Y-87415960D01*
X135065572Y-87380000D01*
X137770000Y-87380000D01*
X137770000Y-86732172D01*
X137769999Y-86732155D01*
X137763598Y-86672627D01*
X137763596Y-86672620D01*
X137713354Y-86537913D01*
X137713352Y-86537910D01*
X137636110Y-86434729D01*
X137611692Y-86369265D01*
X137626543Y-86300992D01*
X137636105Y-86286111D01*
X137713796Y-86182331D01*
X137764091Y-86047483D01*
X137770500Y-85987873D01*
X137770499Y-84192128D01*
X137764091Y-84132517D01*
X137713796Y-83997669D01*
X137636421Y-83894309D01*
X137612004Y-83828848D01*
X137626855Y-83760575D01*
X137636416Y-83745696D01*
X137713796Y-83642331D01*
X137764091Y-83507483D01*
X137770500Y-83447873D01*
X137770499Y-81652128D01*
X137764091Y-81592517D01*
X137713796Y-81457669D01*
X137636421Y-81354309D01*
X137612004Y-81288848D01*
X137626855Y-81220575D01*
X137636416Y-81205696D01*
X137713796Y-81102331D01*
X137764091Y-80967483D01*
X137770500Y-80907873D01*
X137770499Y-79112128D01*
X137764091Y-79052517D01*
X137713796Y-78917669D01*
X137636421Y-78814309D01*
X137612004Y-78748848D01*
X137626855Y-78680575D01*
X137636416Y-78665696D01*
X137713796Y-78562331D01*
X137764091Y-78427483D01*
X137770500Y-78367873D01*
X137770499Y-76572128D01*
X137764091Y-76512517D01*
X137746477Y-76465292D01*
X137713797Y-76377671D01*
X137713795Y-76377668D01*
X137636421Y-76274309D01*
X137612004Y-76208848D01*
X137626855Y-76140575D01*
X137636416Y-76125696D01*
X137713796Y-76022331D01*
X137764091Y-75887483D01*
X137770500Y-75827873D01*
X137770499Y-74032128D01*
X137764091Y-73972517D01*
X137713796Y-73837669D01*
X137636421Y-73734309D01*
X137612004Y-73668848D01*
X137626855Y-73600575D01*
X137636416Y-73585696D01*
X137713796Y-73482331D01*
X137764091Y-73347483D01*
X137770500Y-73287873D01*
X137770499Y-71492128D01*
X137764091Y-71432517D01*
X137713796Y-71297669D01*
X137636421Y-71194309D01*
X137612004Y-71128848D01*
X137626855Y-71060575D01*
X137636416Y-71045696D01*
X137713796Y-70942331D01*
X137764091Y-70807483D01*
X137770500Y-70747873D01*
X137770499Y-68952128D01*
X137764091Y-68892517D01*
X137760814Y-68883732D01*
X137713797Y-68757671D01*
X137713795Y-68757668D01*
X137636421Y-68654309D01*
X137612004Y-68588848D01*
X137626855Y-68520575D01*
X137636416Y-68505696D01*
X137713796Y-68402331D01*
X137764091Y-68267483D01*
X137770500Y-68207873D01*
X137770499Y-66412128D01*
X137764091Y-66352517D01*
X137760154Y-66341962D01*
X137713797Y-66217671D01*
X137713795Y-66217668D01*
X137710902Y-66213803D01*
X137636421Y-66114309D01*
X137612004Y-66048848D01*
X137626855Y-65980575D01*
X137636416Y-65965696D01*
X137713796Y-65862331D01*
X137764091Y-65727483D01*
X137770500Y-65667873D01*
X137770499Y-63872128D01*
X137764091Y-63812517D01*
X137713796Y-63677669D01*
X137636109Y-63573893D01*
X137611692Y-63508430D01*
X137626543Y-63440157D01*
X137636110Y-63425271D01*
X137713352Y-63322089D01*
X137713354Y-63322086D01*
X137763596Y-63187379D01*
X137763598Y-63187372D01*
X137769999Y-63127844D01*
X137770000Y-63127827D01*
X137770000Y-62480000D01*
X135065572Y-62480000D01*
X135088682Y-62444040D01*
X135130000Y-62303327D01*
X135130000Y-62156673D01*
X135088682Y-62015960D01*
X135065572Y-61980000D01*
X137770000Y-61980000D01*
X137770000Y-61332172D01*
X137769999Y-61332155D01*
X137763598Y-61272627D01*
X137763596Y-61272620D01*
X137713354Y-61137913D01*
X137713352Y-61137910D01*
X137636110Y-61034729D01*
X137611692Y-60969265D01*
X137626543Y-60900992D01*
X137636105Y-60886111D01*
X137713796Y-60782331D01*
X137764091Y-60647483D01*
X137770500Y-60587873D01*
X137770499Y-58792128D01*
X137764091Y-58732517D01*
X137741025Y-58670675D01*
X137713797Y-58597671D01*
X137713795Y-58597668D01*
X137690789Y-58566936D01*
X137636421Y-58494309D01*
X137612004Y-58428848D01*
X137626855Y-58360575D01*
X137636416Y-58345696D01*
X137713796Y-58242331D01*
X137764091Y-58107483D01*
X137770500Y-58047873D01*
X137770499Y-56258499D01*
X137790184Y-56191461D01*
X137842987Y-56145706D01*
X137894499Y-56134500D01*
X139655125Y-56134500D01*
X139698122Y-56134500D01*
X139701866Y-56134613D01*
X139746686Y-56137324D01*
X139971749Y-56150937D01*
X139979181Y-56151841D01*
X140243282Y-56200238D01*
X140250531Y-56202026D01*
X140506878Y-56281907D01*
X140513866Y-56284558D01*
X140758702Y-56394750D01*
X140765337Y-56398233D01*
X140915784Y-56489180D01*
X140995106Y-56537132D01*
X141001265Y-56541384D01*
X141182051Y-56683021D01*
X141212615Y-56706966D01*
X141218215Y-56711927D01*
X141408071Y-56901783D01*
X141413033Y-56907384D01*
X141578614Y-57118732D01*
X141582869Y-57124896D01*
X141598045Y-57150000D01*
X141721766Y-57354662D01*
X141725249Y-57361297D01*
X141835441Y-57606133D01*
X141838095Y-57613130D01*
X141904094Y-57824926D01*
X141917970Y-57869456D01*
X141919764Y-57876732D01*
X141968158Y-58140819D01*
X141969062Y-58148258D01*
X141985387Y-58418131D01*
X141985500Y-58421876D01*
X141985500Y-182918122D01*
X141985387Y-182921867D01*
X141969062Y-183191742D01*
X141968158Y-183199181D01*
X141919764Y-183463267D01*
X141917970Y-183470543D01*
X141906991Y-183505775D01*
X141848078Y-183694836D01*
X141838099Y-183726859D01*
X141835441Y-183733866D01*
X141725249Y-183978702D01*
X141721766Y-183985337D01*
X141582872Y-184215099D01*
X141578614Y-184221267D01*
X141413033Y-184432615D01*
X141408064Y-184438224D01*
X141218224Y-184628064D01*
X141212615Y-184633033D01*
X141001267Y-184798614D01*
X140995099Y-184802872D01*
X140765337Y-184941766D01*
X140758702Y-184945249D01*
X140513866Y-185055441D01*
X140506863Y-185058097D01*
X140363497Y-185102772D01*
X140250543Y-185137970D01*
X140243267Y-185139764D01*
X139979181Y-185188158D01*
X139971742Y-185189062D01*
X139701867Y-185205387D01*
X139698122Y-185205500D01*
X63501878Y-185205500D01*
X63498133Y-185205387D01*
X63228257Y-185189062D01*
X63220818Y-185188158D01*
X62996806Y-185147107D01*
X62956729Y-185139763D01*
X62949456Y-185137970D01*
X62693130Y-185058095D01*
X62686133Y-185055441D01*
X62441297Y-184945249D01*
X62434662Y-184941766D01*
X62204900Y-184802872D01*
X62198732Y-184798614D01*
X61987384Y-184633033D01*
X61981783Y-184628071D01*
X61791927Y-184438215D01*
X61786966Y-184432615D01*
X61621385Y-184221267D01*
X61617132Y-184215106D01*
X61569180Y-184135784D01*
X61478233Y-183985337D01*
X61474750Y-183978702D01*
X61364558Y-183733866D01*
X61361907Y-183726878D01*
X61282026Y-183470531D01*
X61280238Y-183463282D01*
X61231841Y-183199181D01*
X61230937Y-183191742D01*
X61214613Y-182921866D01*
X61214500Y-182918122D01*
X61214500Y-181236613D01*
X66619500Y-181236613D01*
X66625913Y-181307192D01*
X66676522Y-181469606D01*
X66764530Y-181615188D01*
X66884811Y-181735469D01*
X66884813Y-181735470D01*
X66884815Y-181735472D01*
X67030394Y-181823478D01*
X67192804Y-181874086D01*
X67263384Y-181880500D01*
X67263387Y-181880500D01*
X68976613Y-181880500D01*
X68976616Y-181880500D01*
X69047196Y-181874086D01*
X69209606Y-181823478D01*
X69210408Y-181822993D01*
X73030559Y-181822993D01*
X73030597Y-181823016D01*
X73030595Y-181823016D01*
X73192895Y-181873590D01*
X73263427Y-181879999D01*
X74976581Y-181879999D01*
X75047102Y-181873591D01*
X75047107Y-181873590D01*
X75209397Y-181823018D01*
X75209438Y-181822992D01*
X74120001Y-180733553D01*
X74120000Y-180733553D01*
X73030559Y-181822992D01*
X73030559Y-181822993D01*
X69210408Y-181822993D01*
X69355185Y-181735472D01*
X69475472Y-181615185D01*
X69563478Y-181469606D01*
X69614086Y-181307196D01*
X69620500Y-181236616D01*
X69620500Y-181129500D01*
X69640185Y-181062461D01*
X69692989Y-181016706D01*
X69744500Y-181005500D01*
X70463671Y-181005500D01*
X70530710Y-181025185D01*
X70536537Y-181029168D01*
X70582361Y-181062461D01*
X70667270Y-181124151D01*
X70840192Y-181201142D01*
X70840197Y-181201144D01*
X71025354Y-181240500D01*
X71025355Y-181240500D01*
X71214644Y-181240500D01*
X71214646Y-181240500D01*
X71233079Y-181236582D01*
X72620000Y-181236582D01*
X72626408Y-181307102D01*
X72626409Y-181307108D01*
X72676979Y-181469394D01*
X72676982Y-181469400D01*
X72677005Y-181469438D01*
X72677006Y-181469438D01*
X73766446Y-180380000D01*
X74473553Y-180380000D01*
X75562992Y-181469438D01*
X75563018Y-181469396D01*
X75613590Y-181307106D01*
X75619995Y-181236613D01*
X86939500Y-181236613D01*
X86945913Y-181307192D01*
X86996522Y-181469606D01*
X87084530Y-181615188D01*
X87204811Y-181735469D01*
X87204813Y-181735470D01*
X87204815Y-181735472D01*
X87350394Y-181823478D01*
X87512804Y-181874086D01*
X87583384Y-181880500D01*
X87583387Y-181880500D01*
X89296613Y-181880500D01*
X89296616Y-181880500D01*
X89367196Y-181874086D01*
X89529606Y-181823478D01*
X89675185Y-181735472D01*
X89795472Y-181615185D01*
X89883478Y-181469606D01*
X89934086Y-181307196D01*
X89940500Y-181236616D01*
X89940500Y-181089499D01*
X89960185Y-181022461D01*
X90012989Y-180976706D01*
X90064500Y-180965500D01*
X90736252Y-180965500D01*
X90803291Y-180985185D01*
X90828400Y-181006526D01*
X90834126Y-181012885D01*
X90834130Y-181012889D01*
X90987265Y-181124148D01*
X90987270Y-181124151D01*
X91160192Y-181201142D01*
X91160197Y-181201144D01*
X91345354Y-181240500D01*
X91345355Y-181240500D01*
X91534644Y-181240500D01*
X91534646Y-181240500D01*
X91719803Y-181201144D01*
X91892730Y-181124151D01*
X92045871Y-181012888D01*
X92172533Y-180872216D01*
X92267179Y-180708284D01*
X92325674Y-180528256D01*
X92345460Y-180340000D01*
X92325674Y-180151744D01*
X92267179Y-179971716D01*
X92172533Y-179807784D01*
X92045871Y-179667112D01*
X92045870Y-179667111D01*
X91892734Y-179555851D01*
X91892729Y-179555848D01*
X91719807Y-179478857D01*
X91719802Y-179478855D01*
X91574001Y-179447865D01*
X91534646Y-179439500D01*
X91345354Y-179439500D01*
X91312897Y-179446398D01*
X91160197Y-179478855D01*
X91160192Y-179478857D01*
X90987270Y-179555848D01*
X90987265Y-179555851D01*
X90834130Y-179667110D01*
X90834126Y-179667114D01*
X90828400Y-179673474D01*
X90768913Y-179710121D01*
X90736252Y-179714500D01*
X90064500Y-179714500D01*
X89997461Y-179694815D01*
X89951706Y-179642011D01*
X89940500Y-179590500D01*
X89940500Y-179523386D01*
X89940500Y-179523384D01*
X89934086Y-179452804D01*
X89883478Y-179290394D01*
X89795472Y-179144815D01*
X89795470Y-179144813D01*
X89795469Y-179144811D01*
X89675188Y-179024530D01*
X89529606Y-178936522D01*
X89529605Y-178936522D01*
X89367196Y-178885914D01*
X89367194Y-178885913D01*
X89367192Y-178885913D01*
X89317778Y-178881423D01*
X89296616Y-178879500D01*
X87583384Y-178879500D01*
X87564145Y-178881248D01*
X87512807Y-178885913D01*
X87350393Y-178936522D01*
X87204811Y-179024530D01*
X87084530Y-179144811D01*
X86996522Y-179290393D01*
X86945913Y-179452807D01*
X86939500Y-179523386D01*
X86939500Y-181236613D01*
X75619995Y-181236613D01*
X75619999Y-181236572D01*
X75619999Y-179523417D01*
X75613591Y-179452897D01*
X75613590Y-179452892D01*
X75563016Y-179290597D01*
X75562993Y-179290559D01*
X75562992Y-179290559D01*
X74473553Y-180379999D01*
X74473553Y-180380000D01*
X73766446Y-180380000D01*
X73766446Y-180379998D01*
X72677007Y-179290560D01*
X72677006Y-179290560D01*
X72676980Y-179290603D01*
X72626409Y-179452893D01*
X72620000Y-179523427D01*
X72620000Y-181236582D01*
X71233079Y-181236582D01*
X71399803Y-181201144D01*
X71572730Y-181124151D01*
X71725871Y-181012888D01*
X71852533Y-180872216D01*
X71947179Y-180708284D01*
X72005674Y-180528256D01*
X72025460Y-180340000D01*
X72005674Y-180151744D01*
X71947179Y-179971716D01*
X71852533Y-179807784D01*
X71725871Y-179667112D01*
X71725870Y-179667111D01*
X71572734Y-179555851D01*
X71572729Y-179555848D01*
X71399807Y-179478857D01*
X71399802Y-179478855D01*
X71254001Y-179447865D01*
X71214646Y-179439500D01*
X71025354Y-179439500D01*
X70992897Y-179446398D01*
X70840197Y-179478855D01*
X70840192Y-179478857D01*
X70667270Y-179555848D01*
X70667265Y-179555851D01*
X70514135Y-179667106D01*
X70514133Y-179667107D01*
X70500714Y-179682011D01*
X70472383Y-179713474D01*
X70412899Y-179750121D01*
X70380236Y-179754500D01*
X69744500Y-179754500D01*
X69677461Y-179734815D01*
X69631706Y-179682011D01*
X69620500Y-179630500D01*
X69620500Y-179523386D01*
X69620500Y-179523384D01*
X69614086Y-179452804D01*
X69563478Y-179290394D01*
X69475472Y-179144815D01*
X69475470Y-179144813D01*
X69475469Y-179144811D01*
X69355188Y-179024530D01*
X69210408Y-178937007D01*
X73030559Y-178937007D01*
X74119998Y-180026446D01*
X74119999Y-180026446D01*
X75209438Y-178937006D01*
X75209438Y-178937005D01*
X75209400Y-178936982D01*
X75047101Y-178886408D01*
X74976572Y-178880000D01*
X73263417Y-178880000D01*
X73192897Y-178886408D01*
X73192892Y-178886409D01*
X73030603Y-178936981D01*
X73030560Y-178937006D01*
X73030559Y-178937007D01*
X69210408Y-178937007D01*
X69209606Y-178936522D01*
X69209605Y-178936522D01*
X69047196Y-178885914D01*
X69047194Y-178885913D01*
X69047192Y-178885913D01*
X68997778Y-178881423D01*
X68976616Y-178879500D01*
X67263384Y-178879500D01*
X67244145Y-178881248D01*
X67192807Y-178885913D01*
X67030393Y-178936522D01*
X66884811Y-179024530D01*
X66764530Y-179144811D01*
X66676522Y-179290393D01*
X66625913Y-179452807D01*
X66619500Y-179523386D01*
X66619500Y-181236613D01*
X61214500Y-181236613D01*
X61214500Y-168536613D01*
X66619500Y-168536613D01*
X66625913Y-168607192D01*
X66625913Y-168607194D01*
X66625914Y-168607196D01*
X66650218Y-168685191D01*
X66676522Y-168769606D01*
X66764530Y-168915188D01*
X66884811Y-169035469D01*
X66884813Y-169035470D01*
X66884815Y-169035472D01*
X67030394Y-169123478D01*
X67192804Y-169174086D01*
X67263384Y-169180500D01*
X67263387Y-169180500D01*
X68976613Y-169180500D01*
X68976616Y-169180500D01*
X69047196Y-169174086D01*
X69209606Y-169123478D01*
X69210408Y-169122993D01*
X73030559Y-169122993D01*
X73030597Y-169123016D01*
X73030595Y-169123016D01*
X73192895Y-169173590D01*
X73263427Y-169179999D01*
X74976581Y-169179999D01*
X75047102Y-169173591D01*
X75047107Y-169173590D01*
X75209397Y-169123018D01*
X75209438Y-169122992D01*
X74120001Y-168033553D01*
X74120000Y-168033553D01*
X73030559Y-169122992D01*
X73030559Y-169122993D01*
X69210408Y-169122993D01*
X69355185Y-169035472D01*
X69475472Y-168915185D01*
X69563478Y-168769606D01*
X69614086Y-168607196D01*
X69620500Y-168536616D01*
X69620500Y-168429500D01*
X69640185Y-168362461D01*
X69692989Y-168316706D01*
X69744500Y-168305500D01*
X70463671Y-168305500D01*
X70530710Y-168325185D01*
X70536537Y-168329168D01*
X70582361Y-168362461D01*
X70667270Y-168424151D01*
X70840192Y-168501142D01*
X70840197Y-168501144D01*
X71025354Y-168540500D01*
X71025355Y-168540500D01*
X71214644Y-168540500D01*
X71214646Y-168540500D01*
X71233079Y-168536582D01*
X72620000Y-168536582D01*
X72626408Y-168607102D01*
X72626409Y-168607108D01*
X72676979Y-168769394D01*
X72676982Y-168769400D01*
X72677005Y-168769438D01*
X72677006Y-168769438D01*
X73766446Y-167680000D01*
X74473553Y-167680000D01*
X75562992Y-168769438D01*
X75563018Y-168769396D01*
X75613590Y-168607106D01*
X75619995Y-168536613D01*
X86939500Y-168536613D01*
X86945913Y-168607192D01*
X86945913Y-168607194D01*
X86945914Y-168607196D01*
X86970218Y-168685191D01*
X86996522Y-168769606D01*
X87084530Y-168915188D01*
X87204811Y-169035469D01*
X87204813Y-169035470D01*
X87204815Y-169035472D01*
X87350394Y-169123478D01*
X87512804Y-169174086D01*
X87583384Y-169180500D01*
X87583387Y-169180500D01*
X89296613Y-169180500D01*
X89296616Y-169180500D01*
X89367196Y-169174086D01*
X89529606Y-169123478D01*
X89675185Y-169035472D01*
X89795472Y-168915185D01*
X89883478Y-168769606D01*
X89934086Y-168607196D01*
X89940500Y-168536616D01*
X89940500Y-168389500D01*
X89960185Y-168322461D01*
X90012989Y-168276706D01*
X90064500Y-168265500D01*
X90736252Y-168265500D01*
X90803291Y-168285185D01*
X90828400Y-168306526D01*
X90834126Y-168312885D01*
X90834130Y-168312889D01*
X90987265Y-168424148D01*
X90987270Y-168424151D01*
X91160192Y-168501142D01*
X91160197Y-168501144D01*
X91345354Y-168540500D01*
X91345355Y-168540500D01*
X91534644Y-168540500D01*
X91534646Y-168540500D01*
X91719803Y-168501144D01*
X91892730Y-168424151D01*
X92045871Y-168312888D01*
X92172533Y-168172216D01*
X92267179Y-168008284D01*
X92325674Y-167828256D01*
X92345460Y-167640000D01*
X92325674Y-167451744D01*
X92267179Y-167271716D01*
X92172533Y-167107784D01*
X92045871Y-166967112D01*
X92045870Y-166967111D01*
X91892734Y-166855851D01*
X91892729Y-166855848D01*
X91719807Y-166778857D01*
X91719802Y-166778855D01*
X91574000Y-166747865D01*
X91534646Y-166739500D01*
X91345354Y-166739500D01*
X91312897Y-166746398D01*
X91160197Y-166778855D01*
X91160192Y-166778857D01*
X90987270Y-166855848D01*
X90987265Y-166855851D01*
X90834130Y-166967110D01*
X90834126Y-166967114D01*
X90828400Y-166973474D01*
X90768913Y-167010121D01*
X90736252Y-167014500D01*
X90064500Y-167014500D01*
X89997461Y-166994815D01*
X89951706Y-166942011D01*
X89940500Y-166890500D01*
X89940500Y-166823386D01*
X89940500Y-166823384D01*
X89934086Y-166752804D01*
X89883478Y-166590394D01*
X89795472Y-166444815D01*
X89795470Y-166444813D01*
X89795469Y-166444811D01*
X89675188Y-166324530D01*
X89529606Y-166236522D01*
X89529605Y-166236521D01*
X89367196Y-166185914D01*
X89367194Y-166185913D01*
X89367192Y-166185913D01*
X89317778Y-166181423D01*
X89296616Y-166179500D01*
X87583384Y-166179500D01*
X87564145Y-166181248D01*
X87512807Y-166185913D01*
X87350393Y-166236522D01*
X87204811Y-166324530D01*
X87084530Y-166444811D01*
X86996522Y-166590393D01*
X86945913Y-166752807D01*
X86939500Y-166823386D01*
X86939500Y-168536613D01*
X75619995Y-168536613D01*
X75619999Y-168536572D01*
X75619999Y-166823417D01*
X75613591Y-166752897D01*
X75613590Y-166752892D01*
X75563016Y-166590597D01*
X75562993Y-166590559D01*
X75562992Y-166590559D01*
X74473553Y-167679999D01*
X74473553Y-167680000D01*
X73766446Y-167680000D01*
X73766446Y-167679998D01*
X72677006Y-166590559D01*
X72677006Y-166590560D01*
X72676980Y-166590603D01*
X72626409Y-166752893D01*
X72620000Y-166823427D01*
X72620000Y-168536582D01*
X71233079Y-168536582D01*
X71399803Y-168501144D01*
X71572730Y-168424151D01*
X71725871Y-168312888D01*
X71852533Y-168172216D01*
X71947179Y-168008284D01*
X72005674Y-167828256D01*
X72025460Y-167640000D01*
X72005674Y-167451744D01*
X71947179Y-167271716D01*
X71852533Y-167107784D01*
X71725871Y-166967112D01*
X71725870Y-166967111D01*
X71572734Y-166855851D01*
X71572729Y-166855848D01*
X71399807Y-166778857D01*
X71399802Y-166778855D01*
X71254000Y-166747865D01*
X71214646Y-166739500D01*
X71025354Y-166739500D01*
X70992897Y-166746398D01*
X70840197Y-166778855D01*
X70840192Y-166778857D01*
X70667270Y-166855848D01*
X70667265Y-166855851D01*
X70514135Y-166967106D01*
X70514133Y-166967107D01*
X70500714Y-166982011D01*
X70472383Y-167013474D01*
X70412899Y-167050121D01*
X70380236Y-167054500D01*
X69744500Y-167054500D01*
X69677461Y-167034815D01*
X69631706Y-166982011D01*
X69620500Y-166930500D01*
X69620500Y-166823386D01*
X69620500Y-166823384D01*
X69614086Y-166752804D01*
X69563478Y-166590394D01*
X69475472Y-166444815D01*
X69475470Y-166444813D01*
X69475469Y-166444811D01*
X69355188Y-166324530D01*
X69210407Y-166237006D01*
X73030560Y-166237006D01*
X74120000Y-167326446D01*
X74120001Y-167326446D01*
X75209438Y-166237006D01*
X75209438Y-166237005D01*
X75209400Y-166236982D01*
X75047101Y-166186408D01*
X74976572Y-166180000D01*
X73263417Y-166180000D01*
X73192897Y-166186408D01*
X73192892Y-166186409D01*
X73030603Y-166236981D01*
X73030560Y-166237006D01*
X69210407Y-166237006D01*
X69209606Y-166236522D01*
X69209605Y-166236521D01*
X69047196Y-166185914D01*
X69047194Y-166185913D01*
X69047192Y-166185913D01*
X68997778Y-166181423D01*
X68976616Y-166179500D01*
X67263384Y-166179500D01*
X67244145Y-166181248D01*
X67192807Y-166185913D01*
X67030393Y-166236522D01*
X66884811Y-166324530D01*
X66764530Y-166444811D01*
X66676522Y-166590393D01*
X66625913Y-166752807D01*
X66619500Y-166823386D01*
X66619500Y-168536613D01*
X61214500Y-168536613D01*
X61214500Y-106166785D01*
X69429500Y-106166785D01*
X69444364Y-106336687D01*
X69444366Y-106336697D01*
X69503258Y-106556488D01*
X69503261Y-106556497D01*
X69599431Y-106762732D01*
X69599432Y-106762734D01*
X69729954Y-106949141D01*
X69890858Y-107110045D01*
X69894934Y-107112899D01*
X70077266Y-107240568D01*
X70283504Y-107336739D01*
X70283509Y-107336740D01*
X70283511Y-107336741D01*
X70336415Y-107350916D01*
X70503308Y-107395635D01*
X70665230Y-107409801D01*
X70729998Y-107415468D01*
X70730000Y-107415468D01*
X70730002Y-107415468D01*
X70786673Y-107410509D01*
X70956692Y-107395635D01*
X71176496Y-107336739D01*
X71382734Y-107240568D01*
X71569139Y-107110047D01*
X71730047Y-106949139D01*
X71860568Y-106762734D01*
X71887618Y-106704724D01*
X71933790Y-106652285D01*
X72000983Y-106633133D01*
X72067865Y-106653348D01*
X72112382Y-106704725D01*
X72139429Y-106762728D01*
X72139432Y-106762734D01*
X72269954Y-106949141D01*
X72430858Y-107110045D01*
X72434934Y-107112899D01*
X72617266Y-107240568D01*
X72823504Y-107336739D01*
X72823509Y-107336740D01*
X72823511Y-107336741D01*
X72876415Y-107350916D01*
X73043308Y-107395635D01*
X73205230Y-107409801D01*
X73269998Y-107415468D01*
X73270000Y-107415468D01*
X73270002Y-107415468D01*
X73326672Y-107410509D01*
X73496692Y-107395635D01*
X73716496Y-107336739D01*
X73922734Y-107240568D01*
X74109139Y-107110047D01*
X74270047Y-106949139D01*
X74400568Y-106762734D01*
X74496739Y-106556496D01*
X74555635Y-106336692D01*
X74570500Y-106166785D01*
X96489500Y-106166785D01*
X96504364Y-106336687D01*
X96504366Y-106336697D01*
X96563258Y-106556488D01*
X96563261Y-106556497D01*
X96659431Y-106762732D01*
X96659432Y-106762734D01*
X96789954Y-106949141D01*
X96950858Y-107110045D01*
X96954934Y-107112899D01*
X97137266Y-107240568D01*
X97343504Y-107336739D01*
X97343509Y-107336740D01*
X97343511Y-107336741D01*
X97396415Y-107350916D01*
X97563308Y-107395635D01*
X97725230Y-107409801D01*
X97789998Y-107415468D01*
X97790000Y-107415468D01*
X97790002Y-107415468D01*
X97846672Y-107410509D01*
X98016692Y-107395635D01*
X98236496Y-107336739D01*
X98442734Y-107240568D01*
X98629139Y-107110047D01*
X98790047Y-106949139D01*
X98920568Y-106762734D01*
X98947618Y-106704724D01*
X98993790Y-106652285D01*
X99060983Y-106633133D01*
X99127865Y-106653348D01*
X99172382Y-106704725D01*
X99199429Y-106762728D01*
X99199432Y-106762734D01*
X99329954Y-106949141D01*
X99490858Y-107110045D01*
X99494934Y-107112899D01*
X99677266Y-107240568D01*
X99883504Y-107336739D01*
X99883509Y-107336740D01*
X99883511Y-107336741D01*
X99936415Y-107350916D01*
X100103308Y-107395635D01*
X100265230Y-107409801D01*
X100329998Y-107415468D01*
X100330000Y-107415468D01*
X100330002Y-107415468D01*
X100386673Y-107410509D01*
X100556692Y-107395635D01*
X100776496Y-107336739D01*
X100982734Y-107240568D01*
X101169139Y-107110047D01*
X101330047Y-106949139D01*
X101460568Y-106762734D01*
X101556739Y-106556496D01*
X101615635Y-106336692D01*
X101630500Y-106166784D01*
X101630500Y-104653216D01*
X101615635Y-104483308D01*
X101556739Y-104263504D01*
X101460568Y-104057266D01*
X101330047Y-103870861D01*
X101330045Y-103870858D01*
X101169141Y-103709954D01*
X100982734Y-103579432D01*
X100982732Y-103579431D01*
X100776497Y-103483261D01*
X100776488Y-103483258D01*
X100556697Y-103424366D01*
X100556693Y-103424365D01*
X100556692Y-103424365D01*
X100556691Y-103424364D01*
X100556686Y-103424364D01*
X100330002Y-103404532D01*
X100329998Y-103404532D01*
X100103313Y-103424364D01*
X100103302Y-103424366D01*
X99883511Y-103483258D01*
X99883502Y-103483261D01*
X99677267Y-103579431D01*
X99677265Y-103579432D01*
X99490858Y-103709954D01*
X99329954Y-103870858D01*
X99199432Y-104057265D01*
X99199431Y-104057267D01*
X99172382Y-104115275D01*
X99126209Y-104167714D01*
X99059016Y-104186866D01*
X98992135Y-104166650D01*
X98947618Y-104115275D01*
X98931437Y-104080575D01*
X98920568Y-104057266D01*
X98790047Y-103870861D01*
X98790045Y-103870858D01*
X98629141Y-103709954D01*
X98442734Y-103579432D01*
X98442732Y-103579431D01*
X98236497Y-103483261D01*
X98236488Y-103483258D01*
X98016697Y-103424366D01*
X98016693Y-103424365D01*
X98016692Y-103424365D01*
X98016691Y-103424364D01*
X98016686Y-103424364D01*
X97790002Y-103404532D01*
X97789998Y-103404532D01*
X97563313Y-103424364D01*
X97563302Y-103424366D01*
X97343511Y-103483258D01*
X97343502Y-103483261D01*
X97137267Y-103579431D01*
X97137265Y-103579432D01*
X96950858Y-103709954D01*
X96789954Y-103870858D01*
X96659432Y-104057265D01*
X96659431Y-104057267D01*
X96563261Y-104263502D01*
X96563258Y-104263511D01*
X96504366Y-104483302D01*
X96504364Y-104483312D01*
X96489500Y-104653214D01*
X96489500Y-106166785D01*
X74570500Y-106166785D01*
X74570500Y-106166784D01*
X74570500Y-104653216D01*
X74555635Y-104483308D01*
X74496739Y-104263504D01*
X74400568Y-104057266D01*
X74270047Y-103870861D01*
X74270045Y-103870858D01*
X74109141Y-103709954D01*
X73922734Y-103579432D01*
X73922732Y-103579431D01*
X73716497Y-103483261D01*
X73716488Y-103483258D01*
X73496697Y-103424366D01*
X73496693Y-103424365D01*
X73496692Y-103424365D01*
X73496691Y-103424364D01*
X73496686Y-103424364D01*
X73270002Y-103404532D01*
X73269998Y-103404532D01*
X73043313Y-103424364D01*
X73043302Y-103424366D01*
X72823511Y-103483258D01*
X72823502Y-103483261D01*
X72617267Y-103579431D01*
X72617265Y-103579432D01*
X72430858Y-103709954D01*
X72269954Y-103870858D01*
X72139432Y-104057265D01*
X72139431Y-104057267D01*
X72112382Y-104115275D01*
X72066209Y-104167714D01*
X71999016Y-104186866D01*
X71932135Y-104166650D01*
X71887618Y-104115275D01*
X71871437Y-104080575D01*
X71860568Y-104057266D01*
X71730047Y-103870861D01*
X71730045Y-103870858D01*
X71569141Y-103709954D01*
X71382734Y-103579432D01*
X71382732Y-103579431D01*
X71176497Y-103483261D01*
X71176488Y-103483258D01*
X70956697Y-103424366D01*
X70956693Y-103424365D01*
X70956692Y-103424365D01*
X70956691Y-103424364D01*
X70956686Y-103424364D01*
X70730002Y-103404532D01*
X70729998Y-103404532D01*
X70503313Y-103424364D01*
X70503302Y-103424366D01*
X70283511Y-103483258D01*
X70283502Y-103483261D01*
X70077267Y-103579431D01*
X70077265Y-103579432D01*
X69890858Y-103709954D01*
X69729954Y-103870858D01*
X69599432Y-104057265D01*
X69599431Y-104057267D01*
X69503261Y-104263502D01*
X69503258Y-104263511D01*
X69444366Y-104483302D01*
X69444364Y-104483312D01*
X69429500Y-104653214D01*
X69429500Y-106166785D01*
X61214500Y-106166785D01*
X61214500Y-58421876D01*
X61214613Y-58418132D01*
X61217699Y-58367111D01*
X61230937Y-58148250D01*
X61231841Y-58140819D01*
X61237950Y-58107482D01*
X61280239Y-57876713D01*
X61282024Y-57869472D01*
X61361909Y-57613116D01*
X61364558Y-57606133D01*
X61367535Y-57599520D01*
X61474750Y-57361297D01*
X61478233Y-57354662D01*
X61559429Y-57220346D01*
X61617137Y-57124885D01*
X61621378Y-57118741D01*
X61786974Y-56907373D01*
X61791919Y-56901792D01*
X61981792Y-56711919D01*
X61987373Y-56706974D01*
X62198741Y-56541378D01*
X62204885Y-56537137D01*
X62403870Y-56416847D01*
X62434662Y-56398233D01*
X62441297Y-56394750D01*
X62578455Y-56333020D01*
X62686137Y-56284556D01*
X62693116Y-56281909D01*
X62949472Y-56202024D01*
X62956713Y-56200239D01*
X63220820Y-56151840D01*
X63228248Y-56150938D01*
X63453314Y-56137324D01*
X63498134Y-56134613D01*
X63501878Y-56134500D01*
X63544875Y-56134500D01*
X113565500Y-56134500D01*
X113632539Y-56154185D01*
G37*
%TD.AperFunction*%
%TA.AperFunction,Conductor*%
G36*
X108797808Y-86499295D02*
G01*
X108853741Y-86541167D01*
X108877923Y-86603805D01*
X108882025Y-86647181D01*
X108882300Y-86653020D01*
X108882300Y-114505055D01*
X108880575Y-114520672D01*
X108880861Y-114520699D01*
X108880126Y-114528466D01*
X108882269Y-114596646D01*
X108882300Y-114598593D01*
X108882300Y-114627143D01*
X108882301Y-114627160D01*
X108883168Y-114634031D01*
X108883626Y-114639850D01*
X108885090Y-114686424D01*
X108885091Y-114686427D01*
X108890680Y-114705667D01*
X108894624Y-114724711D01*
X108897136Y-114744591D01*
X108914290Y-114787919D01*
X108916182Y-114793447D01*
X108929181Y-114838188D01*
X108939380Y-114855434D01*
X108947938Y-114872903D01*
X108955314Y-114891532D01*
X108982698Y-114929223D01*
X108985906Y-114934107D01*
X109009627Y-114974216D01*
X109009633Y-114974224D01*
X109023790Y-114988380D01*
X109036427Y-115003175D01*
X109048206Y-115019387D01*
X109081125Y-115046620D01*
X109084109Y-115049088D01*
X109088420Y-115053010D01*
X109163957Y-115128547D01*
X109203229Y-115167819D01*
X109236714Y-115229142D01*
X109231730Y-115298834D01*
X109189858Y-115354767D01*
X109124394Y-115379184D01*
X109115548Y-115379500D01*
X107903384Y-115379500D01*
X107884145Y-115381248D01*
X107832807Y-115385913D01*
X107670393Y-115436522D01*
X107524811Y-115524530D01*
X107404530Y-115644811D01*
X107316522Y-115790393D01*
X107265913Y-115952807D01*
X107259500Y-116023386D01*
X107259500Y-117736613D01*
X107265913Y-117807192D01*
X107265913Y-117807194D01*
X107265914Y-117807196D01*
X107290218Y-117885191D01*
X107316522Y-117969606D01*
X107404530Y-118115188D01*
X107524811Y-118235469D01*
X107524813Y-118235470D01*
X107524815Y-118235472D01*
X107670394Y-118323478D01*
X107832804Y-118374086D01*
X107903384Y-118380500D01*
X107903387Y-118380500D01*
X109616613Y-118380500D01*
X109616616Y-118380500D01*
X109687196Y-118374086D01*
X109849606Y-118323478D01*
X109995185Y-118235472D01*
X110115472Y-118115185D01*
X110203478Y-117969606D01*
X110254086Y-117807196D01*
X110260500Y-117736616D01*
X110260499Y-117589500D01*
X110280185Y-117522461D01*
X110332989Y-117476706D01*
X110384500Y-117465500D01*
X111056252Y-117465500D01*
X111123291Y-117485185D01*
X111148400Y-117506526D01*
X111154126Y-117512885D01*
X111154130Y-117512889D01*
X111307265Y-117624148D01*
X111307270Y-117624151D01*
X111480192Y-117701142D01*
X111480197Y-117701144D01*
X111665354Y-117740500D01*
X111665355Y-117740500D01*
X111854644Y-117740500D01*
X111854646Y-117740500D01*
X112039803Y-117701144D01*
X112212730Y-117624151D01*
X112365871Y-117512888D01*
X112492533Y-117372216D01*
X112587179Y-117208284D01*
X112645674Y-117028256D01*
X112665460Y-116840000D01*
X112645674Y-116651744D01*
X112587179Y-116471716D01*
X112492533Y-116307784D01*
X112365871Y-116167112D01*
X112365870Y-116167111D01*
X112212734Y-116055851D01*
X112212729Y-116055848D01*
X112039807Y-115978857D01*
X112039802Y-115978855D01*
X111894001Y-115947865D01*
X111854646Y-115939500D01*
X111854645Y-115939500D01*
X111795452Y-115939500D01*
X111728413Y-115919815D01*
X111707771Y-115903181D01*
X110169619Y-114365028D01*
X110136134Y-114303705D01*
X110133300Y-114277347D01*
X110133300Y-108339500D01*
X110152985Y-108272461D01*
X110205789Y-108226706D01*
X110257300Y-108215500D01*
X110330644Y-108215500D01*
X110330646Y-108215500D01*
X110515803Y-108176144D01*
X110688730Y-108099151D01*
X110841871Y-107987888D01*
X110968533Y-107847216D01*
X111063179Y-107683284D01*
X111121674Y-107503256D01*
X111139321Y-107335344D01*
X111165904Y-107270734D01*
X111174951Y-107260638D01*
X112888771Y-105546819D01*
X112950095Y-105513334D01*
X112976453Y-105510500D01*
X113565501Y-105510500D01*
X113632540Y-105530185D01*
X113678295Y-105582989D01*
X113689501Y-105634500D01*
X113689501Y-106307876D01*
X113695908Y-106367483D01*
X113746202Y-106502328D01*
X113746206Y-106502335D01*
X113832452Y-106617544D01*
X113832455Y-106617547D01*
X113947664Y-106703793D01*
X113947671Y-106703797D01*
X114082517Y-106754091D01*
X114082516Y-106754091D01*
X114089444Y-106754835D01*
X114142127Y-106760500D01*
X116778317Y-106760499D01*
X116783721Y-106760734D01*
X116806501Y-106762728D01*
X116839999Y-106765659D01*
X116839999Y-106765658D01*
X116840000Y-106765659D01*
X116896280Y-106760734D01*
X116901682Y-106760499D01*
X117737871Y-106760499D01*
X117737872Y-106760499D01*
X117797483Y-106754091D01*
X117932331Y-106703796D01*
X118047546Y-106617546D01*
X118133796Y-106502331D01*
X118184091Y-106367483D01*
X118190500Y-106307873D01*
X118190499Y-105533999D01*
X118210183Y-105466961D01*
X118262987Y-105421206D01*
X118314499Y-105410000D01*
X118630500Y-105410000D01*
X118697539Y-105429685D01*
X118743294Y-105482489D01*
X118754500Y-105534000D01*
X118754500Y-107097255D01*
X118752775Y-107112872D01*
X118753061Y-107112899D01*
X118752326Y-107120666D01*
X118754469Y-107188846D01*
X118754500Y-107190793D01*
X118754500Y-107219343D01*
X118754501Y-107219360D01*
X118755368Y-107226231D01*
X118755826Y-107232050D01*
X118757290Y-107278624D01*
X118757291Y-107278627D01*
X118762880Y-107297867D01*
X118766824Y-107316911D01*
X118769154Y-107335349D01*
X118769336Y-107336791D01*
X118786490Y-107380119D01*
X118788382Y-107385647D01*
X118801381Y-107430388D01*
X118811580Y-107447634D01*
X118820138Y-107465103D01*
X118827514Y-107483732D01*
X118854898Y-107521423D01*
X118858106Y-107526307D01*
X118881827Y-107566416D01*
X118881833Y-107566424D01*
X118895990Y-107580580D01*
X118908628Y-107595376D01*
X118920405Y-107611586D01*
X118920406Y-107611587D01*
X118956309Y-107641288D01*
X118960620Y-107645210D01*
X123269684Y-111954274D01*
X127543181Y-116227771D01*
X127576666Y-116289094D01*
X127579500Y-116315452D01*
X127579500Y-117736613D01*
X127585913Y-117807192D01*
X127585913Y-117807194D01*
X127585914Y-117807196D01*
X127610218Y-117885191D01*
X127636522Y-117969606D01*
X127724530Y-118115188D01*
X127844811Y-118235469D01*
X127844813Y-118235470D01*
X127844815Y-118235472D01*
X127990394Y-118323478D01*
X128152804Y-118374086D01*
X128223384Y-118380500D01*
X128223387Y-118380500D01*
X129936613Y-118380500D01*
X129936616Y-118380500D01*
X130007196Y-118374086D01*
X130169606Y-118323478D01*
X130315185Y-118235472D01*
X130435472Y-118115185D01*
X130523478Y-117969606D01*
X130574086Y-117807196D01*
X130580500Y-117736616D01*
X130580499Y-117629500D01*
X130600185Y-117562461D01*
X130652989Y-117516706D01*
X130704500Y-117505500D01*
X131423671Y-117505500D01*
X131490710Y-117525185D01*
X131496537Y-117529168D01*
X131542361Y-117562461D01*
X131627270Y-117624151D01*
X131800192Y-117701142D01*
X131800197Y-117701144D01*
X131985354Y-117740500D01*
X131985355Y-117740500D01*
X132174644Y-117740500D01*
X132174646Y-117740500D01*
X132359803Y-117701144D01*
X132532730Y-117624151D01*
X132685871Y-117512888D01*
X132812533Y-117372216D01*
X132907179Y-117208284D01*
X132965674Y-117028256D01*
X132985460Y-116840000D01*
X132965674Y-116651744D01*
X132907179Y-116471716D01*
X132812533Y-116307784D01*
X132685871Y-116167112D01*
X132685870Y-116167111D01*
X132532734Y-116055851D01*
X132532729Y-116055848D01*
X132359807Y-115978857D01*
X132359802Y-115978855D01*
X132214001Y-115947865D01*
X132174646Y-115939500D01*
X131985354Y-115939500D01*
X131952897Y-115946398D01*
X131800197Y-115978855D01*
X131800192Y-115978857D01*
X131627270Y-116055848D01*
X131627265Y-116055851D01*
X131474135Y-116167106D01*
X131474133Y-116167107D01*
X131466065Y-116176068D01*
X131432383Y-116213474D01*
X131372899Y-116250121D01*
X131340236Y-116254500D01*
X130704500Y-116254500D01*
X130637461Y-116234815D01*
X130591706Y-116182011D01*
X130580500Y-116130500D01*
X130580500Y-116023386D01*
X130579168Y-116008724D01*
X130574086Y-115952804D01*
X130523478Y-115790394D01*
X130435472Y-115644815D01*
X130435470Y-115644813D01*
X130435469Y-115644811D01*
X130315188Y-115524530D01*
X130169606Y-115436522D01*
X130169605Y-115436521D01*
X130007196Y-115385914D01*
X130007194Y-115385913D01*
X130007192Y-115385913D01*
X129957778Y-115381423D01*
X129936616Y-115379500D01*
X129936613Y-115379500D01*
X128515452Y-115379500D01*
X128448413Y-115359815D01*
X128427771Y-115343181D01*
X120041818Y-106957227D01*
X120008333Y-106895904D01*
X120005499Y-106869546D01*
X120005499Y-105534000D01*
X120025184Y-105466961D01*
X120077988Y-105421206D01*
X120129499Y-105410000D01*
X121715500Y-105410000D01*
X121782539Y-105429685D01*
X121828294Y-105482489D01*
X121839500Y-105534000D01*
X121839500Y-107877870D01*
X121839501Y-107877876D01*
X121845908Y-107937483D01*
X121896202Y-108072328D01*
X121896206Y-108072335D01*
X121982452Y-108187544D01*
X121982455Y-108187547D01*
X122097664Y-108273793D01*
X122097671Y-108273797D01*
X122232517Y-108324091D01*
X122232516Y-108324091D01*
X122239444Y-108324835D01*
X122292127Y-108330500D01*
X124087872Y-108330499D01*
X124147483Y-108324091D01*
X124282331Y-108273796D01*
X124386106Y-108196109D01*
X124451570Y-108171692D01*
X124519843Y-108186543D01*
X124534729Y-108196110D01*
X124637910Y-108273352D01*
X124637913Y-108273354D01*
X124772620Y-108323596D01*
X124772627Y-108323598D01*
X124832155Y-108329999D01*
X124832172Y-108330000D01*
X125480000Y-108330000D01*
X125479999Y-105626494D01*
X125584839Y-105674373D01*
X125693527Y-105690000D01*
X125766473Y-105690000D01*
X125875161Y-105674373D01*
X125980000Y-105626494D01*
X125980000Y-108330000D01*
X126627828Y-108330000D01*
X126627844Y-108329999D01*
X126687372Y-108323598D01*
X126687379Y-108323596D01*
X126822086Y-108273354D01*
X126822089Y-108273352D01*
X126925271Y-108196110D01*
X126990735Y-108171692D01*
X127059008Y-108186543D01*
X127073888Y-108196105D01*
X127175886Y-108272461D01*
X127177668Y-108273795D01*
X127177671Y-108273797D01*
X127312517Y-108324091D01*
X127312516Y-108324091D01*
X127319444Y-108324835D01*
X127372127Y-108330500D01*
X129167872Y-108330499D01*
X129227483Y-108324091D01*
X129362331Y-108273796D01*
X129477546Y-108187546D01*
X129563796Y-108072331D01*
X129614091Y-107937483D01*
X129620500Y-107877873D01*
X129620499Y-105533999D01*
X129640184Y-105466961D01*
X129692987Y-105421206D01*
X129744499Y-105410000D01*
X130424100Y-105410000D01*
X130491139Y-105429685D01*
X130536894Y-105482489D01*
X130548100Y-105534000D01*
X130548100Y-107613621D01*
X130546375Y-107629238D01*
X130546661Y-107629265D01*
X130545926Y-107637032D01*
X130548069Y-107705212D01*
X130548100Y-107707159D01*
X130548100Y-107735709D01*
X130548101Y-107735726D01*
X130548968Y-107742597D01*
X130549426Y-107748416D01*
X130550890Y-107794990D01*
X130550891Y-107794993D01*
X130556480Y-107814233D01*
X130560424Y-107833277D01*
X130562936Y-107853158D01*
X130572725Y-107877883D01*
X130580090Y-107896485D01*
X130581982Y-107902013D01*
X130594981Y-107946754D01*
X130605180Y-107964000D01*
X130613736Y-107981466D01*
X130621114Y-108000098D01*
X130648498Y-108037789D01*
X130651706Y-108042673D01*
X130675427Y-108082782D01*
X130675433Y-108082790D01*
X130689590Y-108096946D01*
X130702228Y-108111742D01*
X130714005Y-108127952D01*
X130714006Y-108127953D01*
X130749909Y-108157654D01*
X130754220Y-108161576D01*
X133797706Y-111205062D01*
X134418181Y-111825537D01*
X134451666Y-111886860D01*
X134454500Y-111913218D01*
X134454500Y-115255500D01*
X134434815Y-115322539D01*
X134382011Y-115368294D01*
X134330500Y-115379500D01*
X134223384Y-115379500D01*
X134204145Y-115381248D01*
X134152807Y-115385913D01*
X133990393Y-115436522D01*
X133844811Y-115524530D01*
X133724530Y-115644811D01*
X133636522Y-115790393D01*
X133585913Y-115952807D01*
X133579500Y-116023386D01*
X133579500Y-117444546D01*
X133559815Y-117511585D01*
X133543181Y-117532227D01*
X132357228Y-118718181D01*
X132295905Y-118751666D01*
X132269547Y-118754500D01*
X117150453Y-118754500D01*
X117083414Y-118734815D01*
X117062772Y-118718181D01*
X116282786Y-117938195D01*
X116249301Y-117876872D01*
X116252083Y-117813621D01*
X116254086Y-117807196D01*
X116260500Y-117736616D01*
X116260500Y-116023384D01*
X116254086Y-115952804D01*
X116203478Y-115790394D01*
X116115472Y-115644815D01*
X116115470Y-115644813D01*
X116115469Y-115644811D01*
X115995188Y-115524530D01*
X115849606Y-115436522D01*
X115849605Y-115436521D01*
X115687196Y-115385914D01*
X115687194Y-115385913D01*
X115687192Y-115385913D01*
X115637778Y-115381423D01*
X115616616Y-115379500D01*
X113903384Y-115379500D01*
X113884145Y-115381248D01*
X113832807Y-115385913D01*
X113670393Y-115436522D01*
X113524811Y-115524530D01*
X113404530Y-115644811D01*
X113316522Y-115790393D01*
X113265913Y-115952807D01*
X113259500Y-116023386D01*
X113259500Y-117444546D01*
X113239815Y-117511585D01*
X113223181Y-117532227D01*
X112037228Y-118718181D01*
X111975905Y-118751666D01*
X111949547Y-118754500D01*
X96830453Y-118754500D01*
X96763414Y-118734815D01*
X96742772Y-118718181D01*
X95962786Y-117938195D01*
X95929301Y-117876872D01*
X95932083Y-117813621D01*
X95934086Y-117807196D01*
X95940500Y-117736616D01*
X95940500Y-116298629D01*
X95960185Y-116231590D01*
X96012989Y-116185835D01*
X96064500Y-116174629D01*
X104078128Y-116174629D01*
X104093748Y-116176353D01*
X104093775Y-116176068D01*
X104101537Y-116176802D01*
X104101537Y-116176801D01*
X104101538Y-116176802D01*
X104104870Y-116176697D01*
X104169718Y-116174660D01*
X104171665Y-116174629D01*
X104200218Y-116174629D01*
X104200221Y-116174629D01*
X104207099Y-116173759D01*
X104212912Y-116173301D01*
X104259498Y-116171838D01*
X104278740Y-116166246D01*
X104297783Y-116162303D01*
X104317663Y-116159793D01*
X104360993Y-116142636D01*
X104366517Y-116140746D01*
X104370267Y-116139656D01*
X104411261Y-116127747D01*
X104428500Y-116117551D01*
X104445974Y-116108991D01*
X104464598Y-116101617D01*
X104464598Y-116101616D01*
X104464603Y-116101615D01*
X104502320Y-116074211D01*
X104507176Y-116071021D01*
X104547291Y-116047299D01*
X104561460Y-116033128D01*
X104576250Y-116020497D01*
X104592458Y-116008723D01*
X104622170Y-115972805D01*
X104626083Y-115968505D01*
X108333786Y-112260802D01*
X108346048Y-112250980D01*
X108345865Y-112250759D01*
X108351873Y-112245788D01*
X108351877Y-112245786D01*
X108398649Y-112195977D01*
X108399891Y-112194697D01*
X108420120Y-112174470D01*
X108424373Y-112168986D01*
X108428150Y-112164563D01*
X108460062Y-112130582D01*
X108469714Y-112113023D01*
X108480389Y-112096772D01*
X108492674Y-112080936D01*
X108511186Y-112038152D01*
X108513742Y-112032935D01*
X108536197Y-111992092D01*
X108541180Y-111972680D01*
X108547477Y-111954291D01*
X108555438Y-111935895D01*
X108562729Y-111889853D01*
X108563908Y-111884162D01*
X108575500Y-111839019D01*
X108575500Y-111818982D01*
X108577027Y-111799583D01*
X108580160Y-111779804D01*
X108575773Y-111733407D01*
X108575499Y-111727584D01*
X108575499Y-99237910D01*
X108575499Y-86670448D01*
X108595184Y-86603413D01*
X108611813Y-86582776D01*
X108666795Y-86527794D01*
X108728116Y-86494311D01*
X108797808Y-86499295D01*
G37*
%TD.AperFunction*%
%TA.AperFunction,Conductor*%
G36*
X113638764Y-83476738D02*
G01*
X113694697Y-83518610D01*
X113711612Y-83549587D01*
X113746202Y-83642328D01*
X113746203Y-83642330D01*
X113761007Y-83662105D01*
X113800900Y-83715396D01*
X113823578Y-83745689D01*
X113847995Y-83811153D01*
X113833144Y-83879426D01*
X113823578Y-83894311D01*
X113746203Y-83997669D01*
X113746202Y-83997671D01*
X113695908Y-84132517D01*
X113689501Y-84192116D01*
X113689501Y-84192123D01*
X113689500Y-84192135D01*
X113689500Y-85987870D01*
X113689501Y-85987876D01*
X113695908Y-86047483D01*
X113746202Y-86182328D01*
X113746206Y-86182335D01*
X113823889Y-86286105D01*
X113848307Y-86351569D01*
X113833456Y-86419842D01*
X113823890Y-86434727D01*
X113746647Y-86537910D01*
X113746645Y-86537913D01*
X113696403Y-86672620D01*
X113696401Y-86672627D01*
X113690000Y-86732155D01*
X113690000Y-87380000D01*
X116066000Y-87380000D01*
X116133039Y-87399685D01*
X116178794Y-87452489D01*
X116190000Y-87504000D01*
X116190000Y-87756000D01*
X116170315Y-87823039D01*
X116117511Y-87868794D01*
X116066000Y-87880000D01*
X113690000Y-87880000D01*
X113690000Y-88527844D01*
X113696401Y-88587372D01*
X113696403Y-88587379D01*
X113746645Y-88722086D01*
X113746646Y-88722088D01*
X113823890Y-88825272D01*
X113848307Y-88890736D01*
X113833456Y-88959009D01*
X113823890Y-88973894D01*
X113746204Y-89077669D01*
X113746202Y-89077671D01*
X113695908Y-89212517D01*
X113689501Y-89272116D01*
X113689501Y-89272123D01*
X113689500Y-89272135D01*
X113689500Y-91067870D01*
X113689501Y-91067876D01*
X113695908Y-91127483D01*
X113746202Y-91262328D01*
X113746203Y-91262330D01*
X113823578Y-91365689D01*
X113847995Y-91431153D01*
X113833144Y-91499426D01*
X113823578Y-91514311D01*
X113746203Y-91617669D01*
X113746202Y-91617671D01*
X113695908Y-91752517D01*
X113689501Y-91812116D01*
X113689501Y-91812123D01*
X113689500Y-91812135D01*
X113689500Y-93607870D01*
X113689501Y-93607876D01*
X113695908Y-93667483D01*
X113746202Y-93802328D01*
X113746203Y-93802330D01*
X113823578Y-93905689D01*
X113847995Y-93971153D01*
X113833144Y-94039426D01*
X113823578Y-94054311D01*
X113746203Y-94157669D01*
X113746202Y-94157671D01*
X113695908Y-94292517D01*
X113689501Y-94352116D01*
X113689501Y-94352123D01*
X113689500Y-94352135D01*
X113689500Y-96147870D01*
X113689501Y-96147876D01*
X113695908Y-96207483D01*
X113746202Y-96342328D01*
X113746203Y-96342330D01*
X113823578Y-96445689D01*
X113847995Y-96511153D01*
X113833144Y-96579426D01*
X113823578Y-96594311D01*
X113746203Y-96697669D01*
X113746202Y-96697671D01*
X113695908Y-96832517D01*
X113689501Y-96892116D01*
X113689501Y-96892123D01*
X113689500Y-96892135D01*
X113689500Y-98687870D01*
X113689501Y-98687876D01*
X113695908Y-98747483D01*
X113746202Y-98882328D01*
X113746206Y-98882335D01*
X113823889Y-98986105D01*
X113848307Y-99051569D01*
X113833456Y-99119842D01*
X113823890Y-99134727D01*
X113746647Y-99237910D01*
X113746645Y-99237913D01*
X113696403Y-99372620D01*
X113696401Y-99372627D01*
X113690000Y-99432155D01*
X113690000Y-100080000D01*
X116066000Y-100080000D01*
X116133039Y-100099685D01*
X116178794Y-100152489D01*
X116190000Y-100204000D01*
X116190000Y-100456000D01*
X116170315Y-100523039D01*
X116117511Y-100568794D01*
X116066000Y-100580000D01*
X113690000Y-100580000D01*
X113690000Y-101227844D01*
X113696401Y-101287372D01*
X113696403Y-101287379D01*
X113746645Y-101422086D01*
X113746646Y-101422088D01*
X113823890Y-101525272D01*
X113848307Y-101590736D01*
X113833456Y-101659009D01*
X113823890Y-101673894D01*
X113746204Y-101777669D01*
X113746202Y-101777671D01*
X113695908Y-101912517D01*
X113689501Y-101972116D01*
X113689501Y-101972123D01*
X113689500Y-101972135D01*
X113689500Y-102120500D01*
X113669815Y-102187539D01*
X113617011Y-102233294D01*
X113565500Y-102244500D01*
X113493737Y-102244500D01*
X113478120Y-102242776D01*
X113478093Y-102243062D01*
X113470331Y-102242327D01*
X113402171Y-102244469D01*
X113400224Y-102244500D01*
X113371650Y-102244500D01*
X113370929Y-102244590D01*
X113364757Y-102245369D01*
X113358945Y-102245826D01*
X113312372Y-102247290D01*
X113312369Y-102247291D01*
X113293126Y-102252881D01*
X113274083Y-102256825D01*
X113254204Y-102259336D01*
X113254203Y-102259337D01*
X113210878Y-102276490D01*
X113205352Y-102278382D01*
X113160608Y-102291383D01*
X113160604Y-102291385D01*
X113143365Y-102301580D01*
X113125898Y-102310137D01*
X113107269Y-102317512D01*
X113107267Y-102317513D01*
X113069564Y-102344906D01*
X113064682Y-102348112D01*
X113024580Y-102371828D01*
X113010408Y-102386000D01*
X112995623Y-102398628D01*
X112979412Y-102410407D01*
X112949709Y-102446310D01*
X112945776Y-102450631D01*
X111631795Y-103764614D01*
X110351728Y-105044681D01*
X110290405Y-105078166D01*
X110264047Y-105081000D01*
X110257300Y-105081000D01*
X110190261Y-105061315D01*
X110144506Y-105008511D01*
X110133300Y-104957000D01*
X110133300Y-86931051D01*
X110152985Y-86864012D01*
X110169614Y-86843375D01*
X113507751Y-83505237D01*
X113569072Y-83471754D01*
X113638764Y-83476738D01*
G37*
%TD.AperFunction*%
%TA.AperFunction,Conductor*%
G36*
X87050000Y-69588872D02*
G01*
X87246317Y-69536269D01*
X87246326Y-69536265D01*
X87452482Y-69440134D01*
X87638820Y-69309657D01*
X87799657Y-69148820D01*
X87930132Y-68962484D01*
X87957341Y-68904134D01*
X88003513Y-68851695D01*
X88070707Y-68832542D01*
X88137588Y-68852757D01*
X88182105Y-68904132D01*
X88191275Y-68923796D01*
X88209431Y-68962732D01*
X88209432Y-68962734D01*
X88339954Y-69149141D01*
X88500858Y-69310045D01*
X88511911Y-69317784D01*
X88687266Y-69440568D01*
X88893504Y-69536739D01*
X89113308Y-69595635D01*
X89270300Y-69609370D01*
X89339998Y-69615468D01*
X89339999Y-69615468D01*
X89339999Y-69615467D01*
X89340000Y-69615468D01*
X89409692Y-69609370D01*
X89478190Y-69623136D01*
X89528374Y-69671751D01*
X89544499Y-69732898D01*
X89544499Y-77387255D01*
X89542776Y-77402872D01*
X89543061Y-77402899D01*
X89542326Y-77410666D01*
X89544469Y-77478846D01*
X89544500Y-77480793D01*
X89544500Y-77509343D01*
X89544501Y-77509360D01*
X89545368Y-77516231D01*
X89545826Y-77522050D01*
X89547290Y-77568624D01*
X89547291Y-77568627D01*
X89552880Y-77587867D01*
X89556824Y-77606911D01*
X89558568Y-77620711D01*
X89559336Y-77626791D01*
X89576490Y-77670119D01*
X89578382Y-77675647D01*
X89591381Y-77720388D01*
X89601580Y-77737634D01*
X89610138Y-77755103D01*
X89617514Y-77773732D01*
X89644898Y-77811423D01*
X89648106Y-77816307D01*
X89671827Y-77856416D01*
X89671833Y-77856424D01*
X89685990Y-77870580D01*
X89698628Y-77885376D01*
X89710405Y-77901586D01*
X89710406Y-77901587D01*
X89746309Y-77931288D01*
X89750620Y-77935210D01*
X91766437Y-79951027D01*
X93041038Y-81225628D01*
X93074523Y-81286951D01*
X93076678Y-81300347D01*
X93081104Y-81342454D01*
X93094326Y-81468256D01*
X93094327Y-81468259D01*
X93152818Y-81648277D01*
X93152821Y-81648284D01*
X93247467Y-81812216D01*
X93358565Y-81935602D01*
X93374129Y-81952888D01*
X93527265Y-82064148D01*
X93527270Y-82064151D01*
X93700192Y-82141142D01*
X93700197Y-82141144D01*
X93885354Y-82180500D01*
X93885355Y-82180500D01*
X94074644Y-82180500D01*
X94074646Y-82180500D01*
X94259803Y-82141144D01*
X94432730Y-82064151D01*
X94585871Y-81952888D01*
X94712533Y-81812216D01*
X94807179Y-81648284D01*
X94865674Y-81468256D01*
X94885460Y-81280000D01*
X94865674Y-81091744D01*
X94807179Y-80911716D01*
X94712533Y-80747784D01*
X94585871Y-80607112D01*
X94585870Y-80607111D01*
X94432734Y-80495851D01*
X94432729Y-80495848D01*
X94259807Y-80418857D01*
X94259802Y-80418855D01*
X94114000Y-80387865D01*
X94074646Y-80379500D01*
X94074645Y-80379500D01*
X94015452Y-80379500D01*
X93948413Y-80359815D01*
X93927771Y-80343181D01*
X90831819Y-77247228D01*
X90798334Y-77185905D01*
X90795500Y-77159547D01*
X90795500Y-76200004D01*
X91210023Y-76200004D01*
X91229903Y-76465290D01*
X91229903Y-76465292D01*
X91289098Y-76724643D01*
X91289104Y-76724662D01*
X91386296Y-76972303D01*
X91519316Y-77202700D01*
X91570083Y-77266361D01*
X92291469Y-76544974D01*
X92380246Y-76686262D01*
X92503738Y-76809754D01*
X92645023Y-76898529D01*
X91922840Y-77620711D01*
X92100011Y-77741504D01*
X92100015Y-77741506D01*
X92339695Y-77856931D01*
X92339699Y-77856932D01*
X92593909Y-77935346D01*
X92593915Y-77935347D01*
X92856976Y-77974999D01*
X92856983Y-77975000D01*
X93123017Y-77975000D01*
X93123023Y-77974999D01*
X93386084Y-77935347D01*
X93386090Y-77935346D01*
X93640299Y-77856933D01*
X93879992Y-77741503D01*
X94057158Y-77620711D01*
X93711464Y-77275017D01*
X96014500Y-77275017D01*
X96025000Y-77377796D01*
X96080185Y-77544332D01*
X96080187Y-77544337D01*
X96095169Y-77568627D01*
X96172288Y-77693656D01*
X96296344Y-77817712D01*
X96445665Y-77909814D01*
X96612202Y-77964999D01*
X96714990Y-77975500D01*
X96714995Y-77975500D01*
X98865005Y-77975500D01*
X98865010Y-77975500D01*
X98967798Y-77964999D01*
X99134335Y-77909814D01*
X99283656Y-77817712D01*
X99407712Y-77693656D01*
X99499814Y-77544335D01*
X99554999Y-77377798D01*
X99565500Y-77275010D01*
X99565500Y-75124990D01*
X99554999Y-75022202D01*
X99499814Y-74855665D01*
X99407712Y-74706344D01*
X99283656Y-74582288D01*
X99134335Y-74490186D01*
X98967798Y-74435001D01*
X98967796Y-74435000D01*
X98865017Y-74424500D01*
X98865010Y-74424500D01*
X96714990Y-74424500D01*
X96714982Y-74424500D01*
X96612203Y-74435000D01*
X96612202Y-74435001D01*
X96529669Y-74462349D01*
X96445667Y-74490185D01*
X96445662Y-74490187D01*
X96296342Y-74582289D01*
X96172289Y-74706342D01*
X96080187Y-74855662D01*
X96080185Y-74855667D01*
X96063156Y-74907059D01*
X96025001Y-75022202D01*
X96025001Y-75022203D01*
X96025000Y-75022203D01*
X96014500Y-75124982D01*
X96014500Y-77275017D01*
X93711464Y-77275017D01*
X93334976Y-76898529D01*
X93476262Y-76809754D01*
X93599754Y-76686262D01*
X93688529Y-76544976D01*
X94409914Y-77266361D01*
X94409915Y-77266360D01*
X94460679Y-77202706D01*
X94460686Y-77202695D01*
X94593703Y-76972303D01*
X94690895Y-76724662D01*
X94690901Y-76724643D01*
X94750096Y-76465292D01*
X94750096Y-76465290D01*
X94769977Y-76200004D01*
X94769977Y-76199995D01*
X94750096Y-75934709D01*
X94750096Y-75934707D01*
X94690901Y-75675356D01*
X94690895Y-75675337D01*
X94593703Y-75427696D01*
X94460683Y-75197299D01*
X94409915Y-75133637D01*
X93688529Y-75855023D01*
X93599754Y-75713738D01*
X93476262Y-75590246D01*
X93334975Y-75501470D01*
X94057158Y-74779287D01*
X93879984Y-74658492D01*
X93640299Y-74543066D01*
X93386090Y-74464653D01*
X93386084Y-74464652D01*
X93123023Y-74425000D01*
X92856976Y-74425000D01*
X92593915Y-74464652D01*
X92593909Y-74464653D01*
X92339699Y-74543067D01*
X92339695Y-74543068D01*
X92100015Y-74658493D01*
X92100011Y-74658495D01*
X91922840Y-74779287D01*
X92645024Y-75501470D01*
X92503738Y-75590246D01*
X92380246Y-75713738D01*
X92291470Y-75855023D01*
X91570084Y-75133638D01*
X91519314Y-75197302D01*
X91386296Y-75427696D01*
X91289104Y-75675337D01*
X91289098Y-75675356D01*
X91229903Y-75934707D01*
X91229903Y-75934709D01*
X91210023Y-76199995D01*
X91210023Y-76200004D01*
X90795500Y-76200004D01*
X90795500Y-69630452D01*
X90815185Y-69563413D01*
X90831813Y-69542776D01*
X90981220Y-69393369D01*
X91042539Y-69359887D01*
X91112231Y-69364871D01*
X91140015Y-69379475D01*
X91227266Y-69440568D01*
X91433504Y-69536739D01*
X91653308Y-69595635D01*
X91810300Y-69609370D01*
X91879998Y-69615468D01*
X91880000Y-69615468D01*
X91880002Y-69615468D01*
X91949700Y-69609370D01*
X92106692Y-69595635D01*
X92326496Y-69536739D01*
X92532734Y-69440568D01*
X92719139Y-69310047D01*
X92880047Y-69149139D01*
X93010568Y-68962734D01*
X93037618Y-68904724D01*
X93083790Y-68852285D01*
X93150983Y-68833133D01*
X93217865Y-68853348D01*
X93262382Y-68904725D01*
X93289429Y-68962728D01*
X93289432Y-68962734D01*
X93419954Y-69149141D01*
X93580858Y-69310045D01*
X93591911Y-69317784D01*
X93767266Y-69440568D01*
X93973504Y-69536739D01*
X94193308Y-69595635D01*
X94350300Y-69609370D01*
X94419998Y-69615468D01*
X94420000Y-69615468D01*
X94420002Y-69615468D01*
X94489700Y-69609370D01*
X94646692Y-69595635D01*
X94866496Y-69536739D01*
X95072734Y-69440568D01*
X95077632Y-69437138D01*
X95143836Y-69414809D01*
X95211604Y-69431817D01*
X95236439Y-69451030D01*
X96019197Y-70233788D01*
X96029022Y-70246051D01*
X96029243Y-70245869D01*
X96034211Y-70251874D01*
X96083932Y-70298566D01*
X96085332Y-70299923D01*
X96105523Y-70320115D01*
X96105527Y-70320118D01*
X96105529Y-70320120D01*
X96111011Y-70324373D01*
X96115443Y-70328157D01*
X96149418Y-70360062D01*
X96166976Y-70369714D01*
X96183235Y-70380395D01*
X96199064Y-70392673D01*
X96241838Y-70411182D01*
X96247056Y-70413738D01*
X96287908Y-70436197D01*
X96307316Y-70441180D01*
X96325717Y-70447480D01*
X96344104Y-70455437D01*
X96387488Y-70462308D01*
X96390119Y-70462725D01*
X96395839Y-70463909D01*
X96440981Y-70475500D01*
X96461016Y-70475500D01*
X96480414Y-70477026D01*
X96500194Y-70480159D01*
X96500195Y-70480160D01*
X96500195Y-70480159D01*
X96500196Y-70480160D01*
X96546583Y-70475775D01*
X96552422Y-70475500D01*
X109315547Y-70475500D01*
X109382586Y-70495185D01*
X109428341Y-70547989D01*
X109438285Y-70617147D01*
X109409260Y-70680703D01*
X109403228Y-70687181D01*
X97567228Y-82523181D01*
X97505905Y-82556666D01*
X97479547Y-82559500D01*
X92625622Y-82559500D01*
X92558583Y-82539815D01*
X92537941Y-82523181D01*
X84921819Y-74907059D01*
X84888334Y-74845736D01*
X84885500Y-74819378D01*
X84885500Y-69524188D01*
X84905185Y-69457149D01*
X84938377Y-69422613D01*
X85013818Y-69369789D01*
X85099139Y-69310047D01*
X85260047Y-69149139D01*
X85390568Y-68962734D01*
X85417895Y-68904129D01*
X85464064Y-68851695D01*
X85531257Y-68832542D01*
X85598139Y-68852757D01*
X85642657Y-68904133D01*
X85669865Y-68962482D01*
X85800342Y-69148820D01*
X85961179Y-69309657D01*
X86147517Y-69440134D01*
X86353673Y-69536265D01*
X86353682Y-69536269D01*
X86549999Y-69588872D01*
X86550000Y-69588871D01*
X86550000Y-68045501D01*
X86657685Y-68094680D01*
X86764237Y-68110000D01*
X86835763Y-68110000D01*
X86942315Y-68094680D01*
X87050000Y-68045501D01*
X87050000Y-69588872D01*
G37*
%TD.AperFunction*%
%TD*%
M02*
