%TF.GenerationSoftware,KiCad,Pcbnew,7.0.5*%
%TF.CreationDate,2023-07-11T16:18:17+08:00*%
%TF.ProjectId,press-beta,70726573-732d-4626-9574-612e6b696361,rev?*%
%TF.SameCoordinates,Original*%
%TF.FileFunction,Soldermask,Bot*%
%TF.FilePolarity,Negative*%
%FSLAX46Y46*%
G04 Gerber Fmt 4.6, Leading zero omitted, Abs format (unit mm)*
G04 Created by KiCad (PCBNEW 7.0.5) date 2023-07-11 16:18:17*
%MOMM*%
%LPD*%
G01*
G04 APERTURE LIST*
G04 Aperture macros list*
%AMRoundRect*
0 Rectangle with rounded corners*
0 $1 Rounding radius*
0 $2 $3 $4 $5 $6 $7 $8 $9 X,Y pos of 4 corners*
0 Add a 4 corners polygon primitive as box body*
4,1,4,$2,$3,$4,$5,$6,$7,$8,$9,$2,$3,0*
0 Add four circle primitives for the rounded corners*
1,1,$1+$1,$2,$3*
1,1,$1+$1,$4,$5*
1,1,$1+$1,$6,$7*
1,1,$1+$1,$8,$9*
0 Add four rect primitives between the rounded corners*
20,1,$1+$1,$2,$3,$4,$5,0*
20,1,$1+$1,$4,$5,$6,$7,0*
20,1,$1+$1,$6,$7,$8,$9,0*
20,1,$1+$1,$8,$9,$2,$3,0*%
G04 Aperture macros list end*
%ADD10O,1.600000X3.000000*%
%ADD11O,1.800000X1.800000*%
%ADD12O,1.500000X1.500000*%
%ADD13O,1.700000X1.700000*%
%ADD14R,1.700000X1.700000*%
%ADD15RoundRect,0.249999X1.025001X1.025001X-1.025001X1.025001X-1.025001X-1.025001X1.025001X-1.025001X0*%
%ADD16C,2.550000*%
%ADD17C,1.500000*%
%ADD18R,2.000000X1.500000*%
%ADD19R,1.900000X0.800000*%
%ADD20RoundRect,0.250000X1.500000X0.650000X-1.500000X0.650000X-1.500000X-0.650000X1.500000X-0.650000X0*%
G04 APERTURE END LIST*
D10*
%TO.C,U2*%
X99500000Y-67610000D03*
X96960000Y-67610000D03*
X94420000Y-67610000D03*
X91880000Y-67610000D03*
X89340000Y-67610000D03*
X86800000Y-67610000D03*
X84260000Y-67610000D03*
X81720000Y-67610000D03*
X79180000Y-67610000D03*
X76640000Y-67610000D03*
X74100000Y-67610000D03*
X71560000Y-67610000D03*
X70730000Y-105410000D03*
X73270000Y-105410000D03*
X97790000Y-105410000D03*
X100330000Y-105410000D03*
%TD*%
D11*
%TO.C,U1*%
X123005000Y-57280000D03*
D12*
X123305000Y-60310000D03*
X128155000Y-60310000D03*
D11*
X128455000Y-57280000D03*
D13*
X116840000Y-57150000D03*
X116840000Y-59690000D03*
D14*
X116840000Y-62230000D03*
D13*
X116840000Y-64770000D03*
X116840000Y-67310000D03*
X116840000Y-69850000D03*
X116840000Y-72390000D03*
D14*
X116840000Y-74930000D03*
D13*
X116840000Y-77470000D03*
X116840000Y-80010000D03*
X116840000Y-82550000D03*
X116840000Y-85090000D03*
D14*
X116840000Y-87630000D03*
D13*
X116840000Y-90170000D03*
X116840000Y-92710000D03*
X116840000Y-95250000D03*
X116840000Y-97790000D03*
D14*
X116840000Y-100330000D03*
D13*
X116840000Y-102870000D03*
X116840000Y-105410000D03*
X134620000Y-105410000D03*
X134620000Y-102870000D03*
D14*
X134620000Y-100330000D03*
D13*
X134620000Y-97790000D03*
X134620000Y-95250000D03*
X134620000Y-92710000D03*
X134620000Y-90170000D03*
D14*
X134620000Y-87630000D03*
D13*
X134620000Y-85090000D03*
X134620000Y-82550000D03*
X134620000Y-80010000D03*
X134620000Y-77470000D03*
D14*
X134620000Y-74930000D03*
D13*
X134620000Y-72390000D03*
X134620000Y-69850000D03*
X134620000Y-67310000D03*
X134620000Y-64770000D03*
D14*
X134620000Y-62230000D03*
D13*
X134620000Y-59690000D03*
X134620000Y-57150000D03*
X123190000Y-105180000D03*
D14*
X125730000Y-105180000D03*
D13*
X128270000Y-105180000D03*
%TD*%
D15*
%TO.C,BT1*%
X97790000Y-76200000D03*
D16*
X92990000Y-76200000D03*
%TD*%
D17*
%TO.C,J1*%
X106990000Y-65810000D03*
X106990000Y-58810000D03*
D18*
X110490000Y-61810000D03*
X110490000Y-67310000D03*
X103490000Y-58410000D03*
X110490000Y-58410000D03*
X103490000Y-65610000D03*
X103490000Y-67810000D03*
%TD*%
D19*
%TO.C,Q1*%
X88090000Y-75880000D03*
X85090000Y-76830000D03*
X85090000Y-74930000D03*
%TD*%
D20*
%TO.C,D1*%
X109220000Y-76200000D03*
X104220000Y-76200000D03*
%TD*%
M02*
