%TF.GenerationSoftware,KiCad,Pcbnew,7.0.5*%
%TF.CreationDate,2023-07-11T16:18:17+08:00*%
%TF.ProjectId,press-beta,70726573-732d-4626-9574-612e6b696361,rev?*%
%TF.SameCoordinates,Original*%
%TF.FileFunction,Legend,Bot*%
%TF.FilePolarity,Positive*%
%FSLAX46Y46*%
G04 Gerber Fmt 4.6, Leading zero omitted, Abs format (unit mm)*
G04 Created by KiCad (PCBNEW 7.0.5) date 2023-07-11 16:18:17*
%MOMM*%
%LPD*%
G01*
G04 APERTURE LIST*
G04 Aperture macros list*
%AMRoundRect*
0 Rectangle with rounded corners*
0 $1 Rounding radius*
0 $2 $3 $4 $5 $6 $7 $8 $9 X,Y pos of 4 corners*
0 Add a 4 corners polygon primitive as box body*
4,1,4,$2,$3,$4,$5,$6,$7,$8,$9,$2,$3,0*
0 Add four circle primitives for the rounded corners*
1,1,$1+$1,$2,$3*
1,1,$1+$1,$4,$5*
1,1,$1+$1,$6,$7*
1,1,$1+$1,$8,$9*
0 Add four rect primitives between the rounded corners*
20,1,$1+$1,$2,$3,$4,$5,0*
20,1,$1+$1,$4,$5,$6,$7,0*
20,1,$1+$1,$6,$7,$8,$9,0*
20,1,$1+$1,$8,$9,$2,$3,0*%
G04 Aperture macros list end*
%ADD10C,0.150000*%
%ADD11C,0.120000*%
%ADD12O,1.600000X3.000000*%
%ADD13O,1.800000X1.800000*%
%ADD14O,1.500000X1.500000*%
%ADD15O,1.700000X1.700000*%
%ADD16R,1.700000X1.700000*%
%ADD17RoundRect,0.249999X1.025001X1.025001X-1.025001X1.025001X-1.025001X-1.025001X1.025001X-1.025001X0*%
%ADD18C,2.550000*%
%ADD19C,1.500000*%
%ADD20R,2.000000X1.500000*%
%ADD21R,1.900000X0.800000*%
%ADD22RoundRect,0.250000X1.500000X0.650000X-1.500000X0.650000X-1.500000X-0.650000X1.500000X-0.650000X0*%
G04 APERTURE END LIST*
D10*
X108433808Y-183334819D02*
X108433808Y-182334819D01*
X108433808Y-182334819D02*
X108100475Y-183049104D01*
X108100475Y-183049104D02*
X107767142Y-182334819D01*
X107767142Y-182334819D02*
X107767142Y-183334819D01*
X107338570Y-183049104D02*
X106862380Y-183049104D01*
X107433808Y-183334819D02*
X107100475Y-182334819D01*
X107100475Y-182334819D02*
X106767142Y-183334819D01*
X106433808Y-183334819D02*
X106433808Y-182334819D01*
X106433808Y-182811009D02*
X105862380Y-182811009D01*
X105862380Y-183334819D02*
X105862380Y-182334819D01*
X105386189Y-183334819D02*
X105386189Y-182334819D01*
X104338571Y-183334819D02*
X104671904Y-182858628D01*
X104909999Y-183334819D02*
X104909999Y-182334819D01*
X104909999Y-182334819D02*
X104529047Y-182334819D01*
X104529047Y-182334819D02*
X104433809Y-182382438D01*
X104433809Y-182382438D02*
X104386190Y-182430057D01*
X104386190Y-182430057D02*
X104338571Y-182525295D01*
X104338571Y-182525295D02*
X104338571Y-182668152D01*
X104338571Y-182668152D02*
X104386190Y-182763390D01*
X104386190Y-182763390D02*
X104433809Y-182811009D01*
X104433809Y-182811009D02*
X104529047Y-182858628D01*
X104529047Y-182858628D02*
X104909999Y-182858628D01*
X103719523Y-182334819D02*
X103529047Y-182334819D01*
X103529047Y-182334819D02*
X103433809Y-182382438D01*
X103433809Y-182382438D02*
X103338571Y-182477676D01*
X103338571Y-182477676D02*
X103290952Y-182668152D01*
X103290952Y-182668152D02*
X103290952Y-183001485D01*
X103290952Y-183001485D02*
X103338571Y-183191961D01*
X103338571Y-183191961D02*
X103433809Y-183287200D01*
X103433809Y-183287200D02*
X103529047Y-183334819D01*
X103529047Y-183334819D02*
X103719523Y-183334819D01*
X103719523Y-183334819D02*
X103814761Y-183287200D01*
X103814761Y-183287200D02*
X103909999Y-183191961D01*
X103909999Y-183191961D02*
X103957618Y-183001485D01*
X103957618Y-183001485D02*
X103957618Y-182668152D01*
X103957618Y-182668152D02*
X103909999Y-182477676D01*
X103909999Y-182477676D02*
X103814761Y-182382438D01*
X103814761Y-182382438D02*
X103719523Y-182334819D01*
X102338571Y-183334819D02*
X102909999Y-183334819D01*
X102624285Y-183334819D02*
X102624285Y-182334819D01*
X102624285Y-182334819D02*
X102719523Y-182477676D01*
X102719523Y-182477676D02*
X102814761Y-182572914D01*
X102814761Y-182572914D02*
X102909999Y-182620533D01*
%TO.C,U1*%
X126491904Y-80734819D02*
X126491904Y-81544342D01*
X126491904Y-81544342D02*
X126444285Y-81639580D01*
X126444285Y-81639580D02*
X126396666Y-81687200D01*
X126396666Y-81687200D02*
X126301428Y-81734819D01*
X126301428Y-81734819D02*
X126110952Y-81734819D01*
X126110952Y-81734819D02*
X126015714Y-81687200D01*
X126015714Y-81687200D02*
X125968095Y-81639580D01*
X125968095Y-81639580D02*
X125920476Y-81544342D01*
X125920476Y-81544342D02*
X125920476Y-80734819D01*
X124920476Y-81734819D02*
X125491904Y-81734819D01*
X125206190Y-81734819D02*
X125206190Y-80734819D01*
X125206190Y-80734819D02*
X125301428Y-80877676D01*
X125301428Y-80877676D02*
X125396666Y-80972914D01*
X125396666Y-80972914D02*
X125491904Y-81020533D01*
%TO.C,BT1*%
X96175714Y-78601009D02*
X96032857Y-78648628D01*
X96032857Y-78648628D02*
X95985238Y-78696247D01*
X95985238Y-78696247D02*
X95937619Y-78791485D01*
X95937619Y-78791485D02*
X95937619Y-78934342D01*
X95937619Y-78934342D02*
X95985238Y-79029580D01*
X95985238Y-79029580D02*
X96032857Y-79077200D01*
X96032857Y-79077200D02*
X96128095Y-79124819D01*
X96128095Y-79124819D02*
X96509047Y-79124819D01*
X96509047Y-79124819D02*
X96509047Y-78124819D01*
X96509047Y-78124819D02*
X96175714Y-78124819D01*
X96175714Y-78124819D02*
X96080476Y-78172438D01*
X96080476Y-78172438D02*
X96032857Y-78220057D01*
X96032857Y-78220057D02*
X95985238Y-78315295D01*
X95985238Y-78315295D02*
X95985238Y-78410533D01*
X95985238Y-78410533D02*
X96032857Y-78505771D01*
X96032857Y-78505771D02*
X96080476Y-78553390D01*
X96080476Y-78553390D02*
X96175714Y-78601009D01*
X96175714Y-78601009D02*
X96509047Y-78601009D01*
X95651904Y-78124819D02*
X95080476Y-78124819D01*
X95366190Y-79124819D02*
X95366190Y-78124819D01*
X94223333Y-79124819D02*
X94794761Y-79124819D01*
X94509047Y-79124819D02*
X94509047Y-78124819D01*
X94509047Y-78124819D02*
X94604285Y-78267676D01*
X94604285Y-78267676D02*
X94699523Y-78362914D01*
X94699523Y-78362914D02*
X94794761Y-78410533D01*
%TO.C,J1*%
X102568333Y-61684819D02*
X102568333Y-62399104D01*
X102568333Y-62399104D02*
X102615952Y-62541961D01*
X102615952Y-62541961D02*
X102711190Y-62637200D01*
X102711190Y-62637200D02*
X102854047Y-62684819D01*
X102854047Y-62684819D02*
X102949285Y-62684819D01*
X101568333Y-62684819D02*
X102139761Y-62684819D01*
X101854047Y-62684819D02*
X101854047Y-61684819D01*
X101854047Y-61684819D02*
X101949285Y-61827676D01*
X101949285Y-61827676D02*
X102044523Y-61922914D01*
X102044523Y-61922914D02*
X102139761Y-61970533D01*
%TO.C,Q1*%
X86685238Y-78930057D02*
X86780476Y-78882438D01*
X86780476Y-78882438D02*
X86875714Y-78787200D01*
X86875714Y-78787200D02*
X87018571Y-78644342D01*
X87018571Y-78644342D02*
X87113809Y-78596723D01*
X87113809Y-78596723D02*
X87209047Y-78596723D01*
X87161428Y-78834819D02*
X87256666Y-78787200D01*
X87256666Y-78787200D02*
X87351904Y-78691961D01*
X87351904Y-78691961D02*
X87399523Y-78501485D01*
X87399523Y-78501485D02*
X87399523Y-78168152D01*
X87399523Y-78168152D02*
X87351904Y-77977676D01*
X87351904Y-77977676D02*
X87256666Y-77882438D01*
X87256666Y-77882438D02*
X87161428Y-77834819D01*
X87161428Y-77834819D02*
X86970952Y-77834819D01*
X86970952Y-77834819D02*
X86875714Y-77882438D01*
X86875714Y-77882438D02*
X86780476Y-77977676D01*
X86780476Y-77977676D02*
X86732857Y-78168152D01*
X86732857Y-78168152D02*
X86732857Y-78501485D01*
X86732857Y-78501485D02*
X86780476Y-78691961D01*
X86780476Y-78691961D02*
X86875714Y-78787200D01*
X86875714Y-78787200D02*
X86970952Y-78834819D01*
X86970952Y-78834819D02*
X87161428Y-78834819D01*
X85780476Y-78834819D02*
X86351904Y-78834819D01*
X86066190Y-78834819D02*
X86066190Y-77834819D01*
X86066190Y-77834819D02*
X86161428Y-77977676D01*
X86161428Y-77977676D02*
X86256666Y-78072914D01*
X86256666Y-78072914D02*
X86351904Y-78120533D01*
%TO.C,D1*%
X107458094Y-74154819D02*
X107458094Y-73154819D01*
X107458094Y-73154819D02*
X107219999Y-73154819D01*
X107219999Y-73154819D02*
X107077142Y-73202438D01*
X107077142Y-73202438D02*
X106981904Y-73297676D01*
X106981904Y-73297676D02*
X106934285Y-73392914D01*
X106934285Y-73392914D02*
X106886666Y-73583390D01*
X106886666Y-73583390D02*
X106886666Y-73726247D01*
X106886666Y-73726247D02*
X106934285Y-73916723D01*
X106934285Y-73916723D02*
X106981904Y-74011961D01*
X106981904Y-74011961D02*
X107077142Y-74107200D01*
X107077142Y-74107200D02*
X107219999Y-74154819D01*
X107219999Y-74154819D02*
X107458094Y-74154819D01*
X105934285Y-74154819D02*
X106505713Y-74154819D01*
X106219999Y-74154819D02*
X106219999Y-73154819D01*
X106219999Y-73154819D02*
X106315237Y-73297676D01*
X106315237Y-73297676D02*
X106410475Y-73392914D01*
X106410475Y-73392914D02*
X106505713Y-73440533D01*
%TO.C,G\u002A\u002A\u002A*%
G36*
X139695893Y-118158605D02*
G01*
X139704661Y-119335576D01*
X139704932Y-119371910D01*
X139706843Y-119710929D01*
X139711220Y-120487531D01*
X139713146Y-120829330D01*
X139720499Y-122516192D01*
X139722371Y-123067821D01*
X139726954Y-124417823D01*
X139732472Y-126519551D01*
X139733328Y-126950405D01*
X139737017Y-128806702D01*
X139738410Y-129775185D01*
X139740552Y-131264604D01*
X139743039Y-133878584D01*
X139744441Y-136633970D01*
X139744722Y-139516088D01*
X139743843Y-142510265D01*
X139742269Y-144855194D01*
X139741768Y-145601830D01*
X139738459Y-148776108D01*
X139721949Y-162238580D01*
X139719571Y-164177551D01*
X139714454Y-168350324D01*
X139710807Y-171324568D01*
X139708243Y-173415103D01*
X139707456Y-174056546D01*
X139705671Y-175512266D01*
X139704518Y-176452013D01*
X139703948Y-176916961D01*
X139699178Y-180805899D01*
X139698524Y-181339378D01*
X139189694Y-181388454D01*
X138983499Y-181398401D01*
X138478118Y-181407997D01*
X137746434Y-181413930D01*
X136837362Y-181415993D01*
X135799817Y-181413976D01*
X134682716Y-181407672D01*
X134412528Y-181405808D01*
X133454858Y-181400688D01*
X132235932Y-181395811D01*
X130794352Y-181391259D01*
X129168721Y-181387116D01*
X127397640Y-181383464D01*
X125519712Y-181380386D01*
X123573539Y-181377965D01*
X121597722Y-181376283D01*
X119630864Y-181375423D01*
X117436032Y-181374927D01*
X115134669Y-181374298D01*
X113109241Y-181373527D01*
X111339426Y-181372521D01*
X109804902Y-181371184D01*
X108485347Y-181369423D01*
X107360438Y-181367141D01*
X106409855Y-181364245D01*
X105613274Y-181360640D01*
X104950373Y-181356231D01*
X104400831Y-181350924D01*
X103944325Y-181344624D01*
X103560533Y-181337236D01*
X103229133Y-181328666D01*
X102929803Y-181318819D01*
X102642221Y-181307600D01*
X102346064Y-181294915D01*
X101956869Y-181282533D01*
X101348354Y-181285164D01*
X100916007Y-181316955D01*
X100728131Y-181374544D01*
X100672299Y-181425750D01*
X100452630Y-181406728D01*
X100285912Y-181380154D01*
X99841056Y-181355814D01*
X99165446Y-181337877D01*
X98302765Y-181327125D01*
X97296699Y-181324343D01*
X96190933Y-181330312D01*
X94466400Y-181345314D01*
X90881830Y-181369059D01*
X87508060Y-181380491D01*
X84274691Y-181379903D01*
X84243845Y-181379840D01*
X83414601Y-181378304D01*
X82314608Y-181376481D01*
X80984823Y-181374425D01*
X79466199Y-181372195D01*
X77799692Y-181369844D01*
X76026257Y-181367429D01*
X74186848Y-181365006D01*
X72322421Y-181362630D01*
X70473931Y-181360358D01*
X68682332Y-181358245D01*
X66988580Y-181356347D01*
X63500000Y-181352557D01*
X63499726Y-180871949D01*
X71964633Y-180871949D01*
X73964724Y-180841160D01*
X75076277Y-180819972D01*
X75910855Y-180793301D01*
X76500326Y-180758309D01*
X76878955Y-180712122D01*
X77081005Y-180651863D01*
X77140741Y-180574657D01*
X77094011Y-180461682D01*
X76866499Y-180156229D01*
X76504406Y-179746759D01*
X76068925Y-179295807D01*
X75621245Y-178865910D01*
X75222558Y-178519605D01*
X74934052Y-178319429D01*
X74676482Y-178206326D01*
X74372726Y-178180277D01*
X73999177Y-178328103D01*
X73784601Y-178472950D01*
X73366101Y-178868599D01*
X72905895Y-179398476D01*
X72474353Y-179979247D01*
X72141847Y-180527579D01*
X71964633Y-180871949D01*
X63499726Y-180871949D01*
X63499651Y-180740310D01*
X64449077Y-180740310D01*
X66739804Y-180696945D01*
X69030531Y-180653580D01*
X69050840Y-180614382D01*
X69487952Y-180614382D01*
X69560321Y-180666903D01*
X69869629Y-180713276D01*
X70346502Y-180730604D01*
X71261111Y-180729232D01*
X71843992Y-179829061D01*
X72157997Y-179375418D01*
X72561555Y-178857243D01*
X72902325Y-178484425D01*
X73225698Y-178095324D01*
X73377778Y-177601127D01*
X73388970Y-177562480D01*
X73895822Y-177562480D01*
X73919575Y-177694672D01*
X74211489Y-177667744D01*
X74638524Y-177667968D01*
X75198431Y-177850203D01*
X75253967Y-177878483D01*
X75676287Y-178160312D01*
X76191717Y-178582259D01*
X76701226Y-179064317D01*
X76828771Y-179193198D01*
X77243348Y-179578279D01*
X77514156Y-179770272D01*
X77611111Y-179746619D01*
X77596153Y-179624332D01*
X77473042Y-179410829D01*
X77372663Y-179285185D01*
X77256029Y-178970403D01*
X77175214Y-178616422D01*
X76943079Y-177692429D01*
X76712326Y-176895023D01*
X76497932Y-176269441D01*
X76314872Y-175860918D01*
X76178125Y-175714691D01*
X76142062Y-175728302D01*
X75903072Y-175880269D01*
X75505619Y-176165042D01*
X75013087Y-176537839D01*
X74648331Y-176827037D01*
X74139113Y-177272744D01*
X73895822Y-177562480D01*
X73388970Y-177562480D01*
X73480239Y-177247307D01*
X73846680Y-176753183D01*
X74450322Y-176205320D01*
X75261022Y-175635183D01*
X75463079Y-175500010D01*
X75808235Y-175226688D01*
X75979658Y-175026992D01*
X75991511Y-174968243D01*
X75975067Y-174735784D01*
X75893726Y-174334599D01*
X75739483Y-173732313D01*
X75504329Y-172896550D01*
X75180258Y-171794938D01*
X75094996Y-171502915D01*
X74923102Y-170899952D01*
X74716236Y-170163532D01*
X74502334Y-169392646D01*
X74332782Y-168791819D01*
X74157366Y-168202917D01*
X74022762Y-167787485D01*
X73949063Y-167610256D01*
X73922065Y-167592688D01*
X73870387Y-167632711D01*
X73809426Y-167806289D01*
X73728250Y-168157301D01*
X73615927Y-168729624D01*
X73461525Y-169567136D01*
X73427461Y-169748781D01*
X73294820Y-170373746D01*
X73164614Y-170880841D01*
X73060742Y-171174235D01*
X72974955Y-171366339D01*
X72973331Y-171481358D01*
X72985821Y-171504646D01*
X72947361Y-171727756D01*
X72828242Y-172110701D01*
X72774854Y-172264403D01*
X72649962Y-172647164D01*
X72594446Y-172855454D01*
X72525099Y-173205865D01*
X72343331Y-173834474D01*
X72075464Y-174635892D01*
X71744583Y-175548705D01*
X71373770Y-176511503D01*
X70986111Y-177462872D01*
X70604688Y-178341402D01*
X70252587Y-179085679D01*
X70049423Y-179490519D01*
X69776329Y-180035587D01*
X69578194Y-180432155D01*
X69487952Y-180614382D01*
X69050840Y-180614382D01*
X69761630Y-179242469D01*
X69936370Y-178893290D01*
X70344336Y-178011841D01*
X70751783Y-177058098D01*
X71092130Y-176185062D01*
X71297513Y-175622780D01*
X71531397Y-174987123D01*
X71713947Y-174496254D01*
X71817405Y-174225185D01*
X71866459Y-174093139D01*
X72014237Y-173651951D01*
X72203095Y-173055620D01*
X72405473Y-172394832D01*
X72593808Y-171760274D01*
X72740538Y-171242632D01*
X72818102Y-170932592D01*
X72818719Y-170929394D01*
X72885856Y-170619042D01*
X73002184Y-170113817D01*
X73142897Y-169521481D01*
X73282715Y-168916968D01*
X73396399Y-168380610D01*
X73458523Y-168031975D01*
X73472408Y-167927718D01*
X73537095Y-167464343D01*
X73613940Y-166934444D01*
X73653558Y-166558241D01*
X73609957Y-166194530D01*
X73429207Y-165915308D01*
X73013317Y-165400377D01*
X72423942Y-164327966D01*
X72079942Y-163155687D01*
X72006930Y-162085218D01*
X72453242Y-162085218D01*
X72460689Y-162547179D01*
X72538173Y-163355243D01*
X72683651Y-163996184D01*
X72768686Y-164223634D01*
X72972161Y-164652159D01*
X73154022Y-164905658D01*
X73240294Y-164975254D01*
X73327692Y-165016886D01*
X73357266Y-164937899D01*
X73326274Y-164691961D01*
X73231971Y-164232742D01*
X73071616Y-163513913D01*
X72932483Y-162894333D01*
X72750871Y-162090820D01*
X72623807Y-161555503D01*
X72541192Y-161265049D01*
X72492926Y-161196125D01*
X72468912Y-161325401D01*
X72459050Y-161629542D01*
X72453242Y-162085218D01*
X72006930Y-162085218D01*
X71997862Y-161952262D01*
X72194250Y-160786410D01*
X72257599Y-160553763D01*
X72351387Y-160051593D01*
X72363254Y-159688879D01*
X72182581Y-158337449D01*
X72001572Y-156305908D01*
X71918168Y-154265098D01*
X71933093Y-152291595D01*
X72047071Y-150461976D01*
X72260825Y-148852819D01*
X72429434Y-148015460D01*
X72808457Y-146556111D01*
X73274473Y-145154221D01*
X73805567Y-143860849D01*
X74379821Y-142727059D01*
X74975321Y-141803912D01*
X75570150Y-141142469D01*
X75642593Y-141089685D01*
X75662087Y-141160728D01*
X75506984Y-141467343D01*
X75183099Y-141996700D01*
X74432093Y-143314212D01*
X73724995Y-144919714D01*
X73138132Y-146714021D01*
X72659326Y-148734932D01*
X72276403Y-151020247D01*
X72249841Y-151230322D01*
X72172545Y-152364218D01*
X72167108Y-153753485D01*
X72232910Y-155357354D01*
X72369332Y-157135062D01*
X72371355Y-157156619D01*
X72461312Y-157906934D01*
X72606882Y-158891468D01*
X72795516Y-160040929D01*
X73014663Y-161286025D01*
X73251774Y-162557464D01*
X73494298Y-163785953D01*
X73729686Y-164902201D01*
X73737924Y-164937899D01*
X73945386Y-165836913D01*
X74035213Y-166202668D01*
X74226904Y-166984191D01*
X74387925Y-167642028D01*
X74503534Y-168115908D01*
X74558988Y-168345555D01*
X74601771Y-168511832D01*
X74715629Y-168926695D01*
X74862015Y-169443086D01*
X74967596Y-169810901D01*
X75088538Y-170234223D01*
X75152905Y-170462222D01*
X75231473Y-170734309D01*
X75400100Y-171282770D01*
X75613401Y-171952922D01*
X75848261Y-172674625D01*
X76081565Y-173377737D01*
X76290195Y-173992118D01*
X76451038Y-174447628D01*
X76540977Y-174674124D01*
X76629606Y-174866616D01*
X76662396Y-174968243D01*
X76744756Y-175223501D01*
X76746818Y-175234152D01*
X76859934Y-175738330D01*
X77011313Y-176320027D01*
X77165838Y-176851299D01*
X77288392Y-177204197D01*
X77349607Y-177359935D01*
X77529448Y-177904229D01*
X77732782Y-178606513D01*
X77930157Y-179361929D01*
X78018698Y-179746619D01*
X78092119Y-180065617D01*
X78198570Y-180574657D01*
X78264256Y-180888765D01*
X79289231Y-180888765D01*
X80314206Y-180888765D01*
X80230710Y-178340926D01*
X80211179Y-177795960D01*
X80173971Y-176948482D01*
X80133894Y-176224668D01*
X80094625Y-175687788D01*
X80059842Y-175401111D01*
X80039342Y-175299792D01*
X79966468Y-174835585D01*
X79903382Y-174303580D01*
X79861622Y-173926607D01*
X79834619Y-173744289D01*
X80243411Y-173744289D01*
X80342187Y-174455107D01*
X80460868Y-175324856D01*
X80577226Y-176245306D01*
X80656406Y-176996584D01*
X80705323Y-177658221D01*
X80730892Y-178309747D01*
X80740028Y-179030693D01*
X80746913Y-180700400D01*
X81413272Y-180755385D01*
X81432571Y-180756853D01*
X81818979Y-180769248D01*
X82452731Y-180772584D01*
X83272863Y-180767234D01*
X84218408Y-180753573D01*
X85228404Y-180731975D01*
X88377178Y-180653580D01*
X88306729Y-180549842D01*
X89576041Y-180549842D01*
X89596229Y-180628882D01*
X89645008Y-180653580D01*
X89716657Y-180689858D01*
X89967792Y-180734416D01*
X90380102Y-180764199D01*
X90984055Y-180780853D01*
X91810117Y-180786021D01*
X92888756Y-180781347D01*
X94250440Y-180768476D01*
X98111374Y-180726583D01*
X98132698Y-180646261D01*
X98707144Y-180646261D01*
X98707388Y-180653370D01*
X98856856Y-180749767D01*
X99209775Y-180808789D01*
X99663660Y-180820942D01*
X100116031Y-180776738D01*
X100175917Y-180758930D01*
X100289103Y-180666403D01*
X101286420Y-180666403D01*
X101384082Y-180709532D01*
X101679724Y-180731975D01*
X101860478Y-180725732D01*
X101985831Y-180648785D01*
X101877193Y-180418395D01*
X101731682Y-180221815D01*
X101579059Y-180104815D01*
X101483563Y-180182910D01*
X101350323Y-180423645D01*
X101286420Y-180666403D01*
X100289103Y-180666403D01*
X100491162Y-180501225D01*
X100866226Y-179975198D01*
X101069295Y-179605244D01*
X101895605Y-179605244D01*
X102374963Y-180095620D01*
X102498872Y-180227538D01*
X102753133Y-180541112D01*
X102808645Y-180648785D01*
X102854321Y-180737381D01*
X102886685Y-180782615D01*
X103139085Y-180858695D01*
X103559876Y-180888765D01*
X103770312Y-180885592D01*
X104125166Y-180860757D01*
X104265432Y-180819332D01*
X104259883Y-180796844D01*
X104153960Y-180577148D01*
X103955909Y-180225296D01*
X103790628Y-179900396D01*
X103550075Y-179329060D01*
X103332354Y-178717691D01*
X103169355Y-178226437D01*
X103014252Y-177796622D01*
X102916328Y-177569656D01*
X102900825Y-177557798D01*
X102776749Y-177671677D01*
X102583226Y-178006667D01*
X102354969Y-178504934D01*
X101895605Y-179605244D01*
X101069295Y-179605244D01*
X101286307Y-179209889D01*
X101736603Y-178234341D01*
X102202312Y-177077594D01*
X102268926Y-176890617D01*
X103148246Y-176890617D01*
X103192334Y-177129926D01*
X103412125Y-177878568D01*
X103764881Y-178778666D01*
X104221284Y-179752037D01*
X104761960Y-180819332D01*
X104797134Y-180888765D01*
X106883135Y-180888765D01*
X107074414Y-180888417D01*
X107817036Y-180879941D01*
X108418727Y-180861838D01*
X108821943Y-180836396D01*
X108969136Y-180805899D01*
X108969110Y-180804989D01*
X108901154Y-180629026D01*
X108727369Y-180255315D01*
X108484725Y-179763420D01*
X108235453Y-179245057D01*
X107735463Y-178072525D01*
X107403941Y-177191131D01*
X129508642Y-177191131D01*
X129540908Y-177313142D01*
X129756893Y-177439382D01*
X129874842Y-177413132D01*
X129943081Y-177253194D01*
X129851117Y-177130733D01*
X135355782Y-177130733D01*
X135414204Y-177253194D01*
X135464226Y-177358046D01*
X135620513Y-177516282D01*
X135863557Y-177569737D01*
X136161023Y-177349788D01*
X136346698Y-177132803D01*
X136366104Y-176916961D01*
X136110121Y-176701994D01*
X136040053Y-176661041D01*
X135792026Y-176616482D01*
X135539717Y-176818128D01*
X135480494Y-176886124D01*
X135355782Y-177130733D01*
X129851117Y-177130733D01*
X129788094Y-177046810D01*
X129600037Y-177019431D01*
X129508642Y-177191131D01*
X107403941Y-177191131D01*
X107235067Y-176742156D01*
X107092236Y-176320253D01*
X120431681Y-176320253D01*
X120455528Y-176655935D01*
X120662823Y-176873842D01*
X120876395Y-176948276D01*
X121046435Y-176923089D01*
X121265650Y-176722939D01*
X121277740Y-176710708D01*
X121427047Y-176452013D01*
X121334007Y-176134976D01*
X121282833Y-176036481D01*
X121130944Y-175786046D01*
X120988505Y-175745973D01*
X120741823Y-175864295D01*
X120581190Y-175995749D01*
X120431681Y-176320253D01*
X107092236Y-176320253D01*
X106791023Y-175430509D01*
X124527289Y-175430509D01*
X124562692Y-175507882D01*
X124777357Y-175673093D01*
X125010725Y-175613431D01*
X125089703Y-175512266D01*
X125073924Y-175320173D01*
X124791872Y-175244321D01*
X124604572Y-175282570D01*
X124527289Y-175430509D01*
X106791023Y-175430509D01*
X106750080Y-175309568D01*
X106440287Y-174299693D01*
X115566262Y-174299693D01*
X115593847Y-174751077D01*
X115750309Y-175048634D01*
X115859710Y-175113355D01*
X116269792Y-175239313D01*
X116751917Y-175302003D01*
X117136336Y-175273843D01*
X117146022Y-175270895D01*
X117515221Y-175010681D01*
X117711895Y-174573916D01*
X117715453Y-174056546D01*
X117505307Y-173554516D01*
X117459518Y-173493857D01*
X117415211Y-173462262D01*
X125616623Y-173462262D01*
X125745679Y-173519629D01*
X125828683Y-173508314D01*
X125850206Y-173415103D01*
X125827225Y-173396338D01*
X125641152Y-173415103D01*
X125616623Y-173462262D01*
X117415211Y-173462262D01*
X117146202Y-173270432D01*
X116651852Y-173206049D01*
X116544452Y-173207937D01*
X116090926Y-173297614D01*
X115798397Y-173554516D01*
X115663366Y-173824602D01*
X115661607Y-173833210D01*
X115566262Y-174299693D01*
X106440287Y-174299693D01*
X106297187Y-173833210D01*
X112104938Y-173833210D01*
X112111319Y-173876184D01*
X112270982Y-173990000D01*
X112327692Y-173977689D01*
X112340123Y-173833210D01*
X112307943Y-173786288D01*
X112174080Y-173676420D01*
X112158433Y-173680496D01*
X112104938Y-173833210D01*
X106297187Y-173833210D01*
X106296318Y-173830378D01*
X105889594Y-172360204D01*
X105636222Y-171324568D01*
X125196913Y-171324568D01*
X125229005Y-171367387D01*
X125441352Y-171481358D01*
X125476356Y-171476870D01*
X125588889Y-171324568D01*
X125558973Y-171249638D01*
X125344450Y-171167778D01*
X125232458Y-171190340D01*
X125196913Y-171324568D01*
X105636222Y-171324568D01*
X105545724Y-170954663D01*
X105280522Y-169669372D01*
X105109803Y-168559950D01*
X105049383Y-167682013D01*
X105049319Y-167638194D01*
X105034027Y-167158358D01*
X104993354Y-166986399D01*
X104929477Y-167118126D01*
X104844575Y-167549346D01*
X104740825Y-168275868D01*
X104692044Y-168645389D01*
X104564751Y-169547532D01*
X104431252Y-170423441D01*
X104306347Y-171178113D01*
X104204835Y-171716543D01*
X104024428Y-172555631D01*
X103718306Y-173935559D01*
X103380149Y-175401111D01*
X103360664Y-175485534D01*
X103237879Y-176088560D01*
X103161811Y-176590718D01*
X103148246Y-176890617D01*
X102268926Y-176890617D01*
X102668631Y-175768689D01*
X102747557Y-175532976D01*
X103100280Y-174453606D01*
X103369683Y-173561350D01*
X103577474Y-172766546D01*
X103745360Y-171979535D01*
X103895048Y-171110655D01*
X104048245Y-170070247D01*
X104056740Y-170003516D01*
X104097695Y-169598078D01*
X104148189Y-169011168D01*
X104199223Y-168345555D01*
X104201352Y-168316111D01*
X104266116Y-167489177D01*
X104343097Y-166600299D01*
X104416093Y-165836913D01*
X104460540Y-165293520D01*
X104507206Y-164475206D01*
X104544080Y-163558557D01*
X104565749Y-162658565D01*
X104594521Y-160656142D01*
X103281897Y-162109799D01*
X102755853Y-162675277D01*
X102186864Y-163253362D01*
X101686785Y-163728560D01*
X101323846Y-164033827D01*
X100678420Y-164504197D01*
X100666951Y-165758518D01*
X100656672Y-166208820D01*
X100603220Y-166795504D01*
X100485190Y-167245387D01*
X100280165Y-167669198D01*
X100188717Y-167838115D01*
X100060291Y-168142151D01*
X99967996Y-168503216D01*
X99901267Y-168985433D01*
X99884579Y-169200775D01*
X99849538Y-169652926D01*
X99802245Y-170569816D01*
X99784188Y-170958381D01*
X99731165Y-171999649D01*
X99679740Y-172817686D01*
X99624471Y-173480967D01*
X99559917Y-174057967D01*
X99480638Y-174617160D01*
X99434642Y-174987573D01*
X99378047Y-175589146D01*
X99331269Y-176233371D01*
X99288859Y-176765615D01*
X99215087Y-177419231D01*
X99205594Y-177503342D01*
X99111066Y-178114852D01*
X99028089Y-178566136D01*
X98916754Y-179213829D01*
X98815969Y-179840232D01*
X98741007Y-180349619D01*
X98707144Y-180646261D01*
X98132698Y-180646261D01*
X98287564Y-180062921D01*
X98545938Y-179013057D01*
X98716035Y-178105613D01*
X98773945Y-177419231D01*
X98756915Y-177143175D01*
X98652077Y-176856937D01*
X98403006Y-176556854D01*
X97954630Y-176158162D01*
X97436864Y-175745900D01*
X96684014Y-175209526D01*
X95926319Y-174729843D01*
X95225303Y-174342756D01*
X94642495Y-174084173D01*
X94239420Y-173990000D01*
X94038712Y-173906807D01*
X93686658Y-173647130D01*
X93283571Y-173272382D01*
X92854024Y-172844041D01*
X92458423Y-172508808D01*
X92153196Y-172362397D01*
X91875492Y-172377595D01*
X91562459Y-172527191D01*
X91423589Y-172615974D01*
X91162756Y-172906152D01*
X91095062Y-173332315D01*
X91148532Y-173710921D01*
X91410420Y-174121658D01*
X91472650Y-174173680D01*
X91589472Y-174299896D01*
X91636802Y-174463950D01*
X91611608Y-174732075D01*
X91602589Y-174771322D01*
X91510859Y-175170505D01*
X91331523Y-175845473D01*
X91071675Y-176709572D01*
X90653772Y-177904858D01*
X90147563Y-179204583D01*
X89587374Y-180516810D01*
X89576041Y-180549842D01*
X88306729Y-180549842D01*
X87152691Y-178850494D01*
X87023495Y-178659808D01*
X86582296Y-178001701D01*
X86211301Y-177437893D01*
X85946238Y-177023146D01*
X85822837Y-176812222D01*
X85699845Y-176597096D01*
X85455460Y-176263457D01*
X85278047Y-176035043D01*
X84929327Y-175509812D01*
X84599828Y-174931704D01*
X84329276Y-174378458D01*
X84157392Y-173927816D01*
X84145511Y-173831923D01*
X84761869Y-173831923D01*
X84837953Y-174074927D01*
X85043532Y-174445480D01*
X85400897Y-175010219D01*
X85539281Y-175225547D01*
X85884862Y-175767908D01*
X86159339Y-176205118D01*
X86312963Y-176458197D01*
X86422177Y-176635893D01*
X86691623Y-177050524D01*
X87055585Y-177597934D01*
X87465403Y-178206038D01*
X87872419Y-178802748D01*
X88227974Y-179315979D01*
X88483409Y-179673642D01*
X88511834Y-179711381D01*
X88762003Y-179990466D01*
X88939319Y-180104815D01*
X88996197Y-180068925D01*
X89150443Y-179838015D01*
X89386916Y-179375569D01*
X89715743Y-178661212D01*
X90147050Y-177674568D01*
X90192938Y-177566480D01*
X90486123Y-176829028D01*
X90785682Y-176013846D01*
X91024314Y-175302880D01*
X91091177Y-175081481D01*
X91149280Y-174771322D01*
X91069807Y-174595497D01*
X90827313Y-174442943D01*
X90786086Y-174420625D01*
X90589834Y-174285096D01*
X90495135Y-174099714D01*
X90480081Y-173777254D01*
X90522762Y-173230491D01*
X90534730Y-173101023D01*
X90570187Y-172617383D01*
X90552150Y-172368310D01*
X90464221Y-172289402D01*
X90290004Y-172316258D01*
X90069106Y-172338146D01*
X89532990Y-172300800D01*
X88823090Y-172190755D01*
X88061976Y-172032326D01*
X91147325Y-172032326D01*
X91152047Y-172111878D01*
X91260148Y-172258067D01*
X91494876Y-172123737D01*
X91620850Y-172027804D01*
X92086881Y-171918742D01*
X92662493Y-172059816D01*
X93309147Y-172436927D01*
X93988302Y-173035974D01*
X94259332Y-173300784D01*
X94580960Y-173571571D01*
X94772252Y-173676571D01*
X94976389Y-173738938D01*
X95385506Y-173916419D01*
X95915707Y-174170253D01*
X96488217Y-174461437D01*
X97024260Y-174750973D01*
X97445062Y-174999857D01*
X97510480Y-175042911D01*
X97963761Y-175379498D01*
X98407463Y-175756688D01*
X98899494Y-176212581D01*
X99001166Y-174905303D01*
X99050994Y-174260554D01*
X99167452Y-172708763D01*
X99256238Y-171444773D01*
X99318280Y-170450700D01*
X99354507Y-169708662D01*
X99365850Y-169200775D01*
X99353238Y-168909158D01*
X99317598Y-168815926D01*
X99261346Y-168835830D01*
X99005304Y-168993435D01*
X98643550Y-169256768D01*
X98437222Y-169406552D01*
X97617369Y-169895204D01*
X96583334Y-170390960D01*
X95406790Y-170858354D01*
X95134330Y-170952924D01*
X94690885Y-171088346D01*
X94179155Y-171218412D01*
X93538791Y-171356781D01*
X92709443Y-171517115D01*
X91630761Y-171713074D01*
X91288782Y-171836156D01*
X91147325Y-172032326D01*
X88061976Y-172032326D01*
X88014646Y-172022474D01*
X87182900Y-171810421D01*
X86403093Y-171569060D01*
X86261440Y-171520363D01*
X85732273Y-171340969D01*
X85349487Y-171215197D01*
X85187970Y-171167778D01*
X85168105Y-171265719D01*
X85163709Y-171287390D01*
X85144427Y-171642982D01*
X85137037Y-172152027D01*
X85135141Y-172313073D01*
X85062957Y-173030893D01*
X84891329Y-173487073D01*
X84792984Y-173649831D01*
X84761869Y-173831923D01*
X84145511Y-173831923D01*
X84123901Y-173657517D01*
X84202086Y-173491643D01*
X84363652Y-173362839D01*
X84407823Y-173329561D01*
X84480978Y-173075551D01*
X84509876Y-172653403D01*
X84509641Y-172585756D01*
X84478432Y-172160134D01*
X84360651Y-171929973D01*
X84107694Y-171791057D01*
X83864798Y-171709111D01*
X83328495Y-171648565D01*
X82856016Y-171827882D01*
X82355913Y-172272179D01*
X82157394Y-172469129D01*
X81583526Y-172943758D01*
X81004730Y-173325250D01*
X80243411Y-173744289D01*
X79834619Y-173744289D01*
X79681268Y-172708917D01*
X79418813Y-171292208D01*
X79090696Y-169747489D01*
X78713358Y-168145771D01*
X78557754Y-167543376D01*
X79068728Y-167543376D01*
X79353538Y-168846009D01*
X79446020Y-169272109D01*
X79570672Y-169870225D01*
X79672111Y-170407614D01*
X79773106Y-171007957D01*
X79896426Y-171794938D01*
X79898026Y-171805297D01*
X79978402Y-172291713D01*
X80053379Y-172696481D01*
X80124097Y-172915813D01*
X80240333Y-173042187D01*
X80280126Y-173038166D01*
X80700314Y-172885291D01*
X81166992Y-172579941D01*
X81548244Y-172206413D01*
X81613135Y-172129720D01*
X82031918Y-171766688D01*
X82521178Y-171476624D01*
X82555998Y-171461108D01*
X82983657Y-171302939D01*
X83328461Y-171291337D01*
X83768337Y-171417926D01*
X83818536Y-171435668D01*
X84236406Y-171579178D01*
X84439626Y-171609218D01*
X84505137Y-171509996D01*
X84509876Y-171265719D01*
X84503664Y-171181643D01*
X84419787Y-170993461D01*
X84197870Y-170798431D01*
X83787425Y-170558670D01*
X83137963Y-170236293D01*
X82374902Y-169859695D01*
X81233977Y-169236025D01*
X80333709Y-168649307D01*
X79633438Y-168074459D01*
X79068728Y-167543376D01*
X78557754Y-167543376D01*
X78303239Y-166558061D01*
X77876780Y-165055371D01*
X77450421Y-163708709D01*
X77217391Y-163063541D01*
X76963503Y-162514166D01*
X76676182Y-162091258D01*
X76300180Y-161698251D01*
X76188160Y-161589939D01*
X75771535Y-161142866D01*
X75321645Y-160608748D01*
X74887104Y-160051604D01*
X74516527Y-159535452D01*
X74258531Y-159124312D01*
X74161728Y-158882203D01*
X74230328Y-158893491D01*
X74430616Y-159109360D01*
X74716482Y-159487415D01*
X74811738Y-159617262D01*
X75274554Y-160170527D01*
X75848896Y-160770379D01*
X76488247Y-161377431D01*
X77146095Y-161952291D01*
X77775925Y-162455572D01*
X78331222Y-162847882D01*
X78765472Y-163089834D01*
X79032161Y-163142036D01*
X79035456Y-163005241D01*
X78893812Y-162680077D01*
X78636151Y-162239904D01*
X78628302Y-162227684D01*
X78111849Y-161249037D01*
X77656364Y-160051806D01*
X77291896Y-158728154D01*
X77048492Y-157370247D01*
X77045983Y-157350988D01*
X76969215Y-156885099D01*
X76884143Y-156522405D01*
X76845556Y-156341182D01*
X76798656Y-155906957D01*
X76779475Y-155557652D01*
X77213543Y-155557652D01*
X77238337Y-155809370D01*
X77307741Y-156284986D01*
X77407946Y-156902248D01*
X77525142Y-157578900D01*
X77645518Y-158232688D01*
X77755264Y-158781358D01*
X78117240Y-160038188D01*
X78786231Y-161595208D01*
X79731031Y-163292077D01*
X80141108Y-163961437D01*
X79464072Y-163699604D01*
X79329193Y-163644370D01*
X78765898Y-163366601D01*
X78287930Y-163069441D01*
X78186255Y-162995574D01*
X77874844Y-162785530D01*
X77711034Y-162701111D01*
X77707660Y-162702325D01*
X77717935Y-162862718D01*
X77803727Y-163240190D01*
X77948164Y-163759444D01*
X78112328Y-164315943D01*
X78313944Y-165009715D01*
X78473901Y-165570982D01*
X78615824Y-165978145D01*
X79170483Y-166925582D01*
X80018562Y-167830376D01*
X81146839Y-168683369D01*
X82542094Y-169475405D01*
X84191108Y-170197324D01*
X86080658Y-170839970D01*
X86266292Y-170895129D01*
X86959941Y-171087611D01*
X87540842Y-171211188D01*
X88115504Y-171279710D01*
X88790436Y-171307027D01*
X89672148Y-171306988D01*
X90320375Y-171295942D01*
X91399090Y-171241708D01*
X92376268Y-171129740D01*
X93349264Y-170943387D01*
X94415431Y-170666002D01*
X95672123Y-170280935D01*
X96056177Y-170147171D01*
X97063522Y-169704446D01*
X98022409Y-169162345D01*
X98868776Y-168564230D01*
X99538561Y-167953462D01*
X99967701Y-167373403D01*
X99972968Y-167363141D01*
X100100179Y-166968621D01*
X100174572Y-166452477D01*
X100196634Y-165900933D01*
X100166852Y-165400217D01*
X100085712Y-165036555D01*
X99953704Y-164896173D01*
X99787395Y-164877896D01*
X99738268Y-164778013D01*
X99813178Y-164529271D01*
X100017266Y-164064422D01*
X100160015Y-163691451D01*
X100349523Y-163047060D01*
X100494822Y-162387531D01*
X100578652Y-161911166D01*
X100712300Y-161155716D01*
X100827969Y-160506049D01*
X100847402Y-160390882D01*
X100932293Y-159763967D01*
X101013320Y-158997845D01*
X101075246Y-158232592D01*
X101099581Y-157828694D01*
X101113163Y-157231838D01*
X101070594Y-156773244D01*
X100956856Y-156338830D01*
X100756931Y-155814511D01*
X100754431Y-155808388D01*
X100548383Y-155280522D01*
X100401452Y-154860436D01*
X100345301Y-154638585D01*
X100344730Y-154630314D01*
X100282378Y-154400136D01*
X100131845Y-153944944D01*
X99914289Y-153326630D01*
X99650866Y-152607086D01*
X99496509Y-152202147D01*
X99111266Y-151292312D01*
X98764018Y-150639209D01*
X98436121Y-150205982D01*
X97914589Y-149757042D01*
X97217706Y-149278667D01*
X96480304Y-148857748D01*
X95831226Y-148574956D01*
X95781262Y-148558116D01*
X95612128Y-148486807D01*
X95707504Y-148469474D01*
X96090618Y-148499346D01*
X96277446Y-148527863D01*
X96914490Y-148727038D01*
X97551345Y-149047794D01*
X97895067Y-149258267D01*
X98229863Y-149454853D01*
X98379366Y-149530741D01*
X98381470Y-149522099D01*
X98308038Y-149331848D01*
X98125561Y-148935648D01*
X97862910Y-148391026D01*
X97548956Y-147755512D01*
X97212568Y-147086634D01*
X96882617Y-146441921D01*
X96587974Y-145878902D01*
X96357509Y-145455104D01*
X96220092Y-145228056D01*
X96168235Y-145161781D01*
X96065109Y-145088644D01*
X95985222Y-145188426D01*
X95906593Y-145507041D01*
X95807243Y-146090402D01*
X95789805Y-146194351D01*
X95624554Y-146967357D01*
X95383255Y-147870892D01*
X95085463Y-148850752D01*
X94750732Y-149852733D01*
X94398614Y-150822632D01*
X94048665Y-151706245D01*
X93720438Y-152449367D01*
X93433487Y-152997794D01*
X93207366Y-153297324D01*
X93083634Y-153421268D01*
X92976543Y-153624389D01*
X92974901Y-153640892D01*
X92870833Y-153872020D01*
X92653347Y-154221946D01*
X92390655Y-154593462D01*
X92150970Y-154889364D01*
X92002504Y-155012444D01*
X91967307Y-154961262D01*
X91945454Y-154674080D01*
X91961808Y-154121000D01*
X92016944Y-153286980D01*
X92111435Y-152156975D01*
X92120804Y-151763037D01*
X92032777Y-151447586D01*
X91837195Y-151414609D01*
X91545433Y-151673816D01*
X91217141Y-151991751D01*
X90679573Y-152419020D01*
X90001545Y-152908230D01*
X89247760Y-153417020D01*
X88482921Y-153903032D01*
X87771731Y-154323903D01*
X87178893Y-154637276D01*
X86769110Y-154800790D01*
X86384419Y-154897341D01*
X86505481Y-153977930D01*
X86540937Y-153675586D01*
X86617733Y-152235089D01*
X86575278Y-150614861D01*
X86415149Y-148903580D01*
X86354360Y-148418003D01*
X86267603Y-147707694D01*
X86198730Y-147123055D01*
X86158807Y-146756759D01*
X86137776Y-146541406D01*
X86030650Y-145561746D01*
X85933076Y-144883213D01*
X85843312Y-144495482D01*
X85759620Y-144388225D01*
X85650168Y-144489869D01*
X85386536Y-144794080D01*
X85013061Y-145250925D01*
X84568058Y-145810793D01*
X84089839Y-146424074D01*
X83616717Y-147041159D01*
X83187004Y-147612436D01*
X82839015Y-148088296D01*
X82611061Y-148419129D01*
X82541456Y-148555324D01*
X82672627Y-148546405D01*
X82960512Y-148423289D01*
X83144751Y-148338679D01*
X83644136Y-148161059D01*
X84234393Y-147989724D01*
X84787700Y-147860174D01*
X85176234Y-147807910D01*
X85206875Y-147808011D01*
X85442068Y-147855589D01*
X85424580Y-147961051D01*
X85195238Y-148084093D01*
X84794866Y-148184410D01*
X84769767Y-148188664D01*
X84285185Y-148318238D01*
X83660169Y-148543617D01*
X83023377Y-148818732D01*
X82738909Y-148957366D01*
X82248322Y-149234781D01*
X81849955Y-149546514D01*
X81455517Y-149968380D01*
X80976715Y-150576196D01*
X80845343Y-150748641D01*
X80283938Y-151472517D01*
X79693207Y-152218131D01*
X79181228Y-152848691D01*
X78650239Y-153500156D01*
X78059328Y-154255217D01*
X77607608Y-154870468D01*
X77318045Y-155314315D01*
X77213606Y-155555169D01*
X77213543Y-155557652D01*
X76779475Y-155557652D01*
X76768709Y-155361583D01*
X76756965Y-154789833D01*
X76764675Y-154276483D01*
X76793089Y-153906305D01*
X76843457Y-153764074D01*
X76852450Y-153765443D01*
X76947196Y-153926161D01*
X77013214Y-154272857D01*
X77062346Y-154781639D01*
X77953674Y-153684894D01*
X79311255Y-151997707D01*
X81075772Y-149750977D01*
X82699442Y-147619199D01*
X84141427Y-145655367D01*
X84251312Y-145502781D01*
X84803378Y-144748713D01*
X85291294Y-144102402D01*
X85685958Y-143601004D01*
X85958265Y-143281673D01*
X86079114Y-143181566D01*
X86092340Y-143197100D01*
X86160078Y-143434208D01*
X86231785Y-143885402D01*
X86293987Y-144469903D01*
X86354228Y-145101496D01*
X86444012Y-145942187D01*
X86550573Y-146875133D01*
X86661725Y-147790274D01*
X86750439Y-148458040D01*
X86855955Y-149105840D01*
X86946964Y-149444067D01*
X87027897Y-149471937D01*
X87103186Y-149188668D01*
X87177262Y-148593477D01*
X87254557Y-147685582D01*
X87275123Y-147426240D01*
X87329322Y-146842771D01*
X87380343Y-146415902D01*
X87419374Y-146223779D01*
X87441451Y-146100561D01*
X87470884Y-145715818D01*
X87497873Y-145140748D01*
X87518554Y-144444704D01*
X87538251Y-143895014D01*
X87580465Y-143290593D01*
X87635344Y-142862467D01*
X87695988Y-142679278D01*
X87696662Y-142678895D01*
X87732796Y-142800947D01*
X87752763Y-143170000D01*
X87758233Y-143720959D01*
X87750872Y-144388732D01*
X87732352Y-145108223D01*
X87704340Y-145814339D01*
X87668506Y-146441987D01*
X87626518Y-146926072D01*
X87580045Y-147201501D01*
X87567910Y-147252726D01*
X87522288Y-147583887D01*
X87470411Y-148111209D01*
X87421309Y-148746790D01*
X87373996Y-149384327D01*
X87248750Y-150786541D01*
X87095627Y-152238440D01*
X86932074Y-153568086D01*
X86897002Y-153892004D01*
X86886708Y-154251455D01*
X86926170Y-154391234D01*
X87094017Y-154339917D01*
X87467230Y-154167111D01*
X87939997Y-153918875D01*
X88420468Y-153643822D01*
X88816794Y-153390567D01*
X88940280Y-153303473D01*
X90030683Y-152466069D01*
X91045288Y-151570515D01*
X91915182Y-150681539D01*
X92571452Y-149863870D01*
X92739946Y-149628116D01*
X93006925Y-149286217D01*
X93175058Y-149112978D01*
X93192257Y-149104217D01*
X93215250Y-149177412D01*
X93118171Y-149410703D01*
X92944789Y-149714975D01*
X92738870Y-150001111D01*
X92692313Y-150088459D01*
X92598790Y-150496093D01*
X92524871Y-151167456D01*
X92474942Y-152068197D01*
X92453370Y-152764474D01*
X92449965Y-153304495D01*
X92472575Y-153603970D01*
X92524512Y-153701602D01*
X92609087Y-153636098D01*
X92723248Y-153457680D01*
X92814767Y-153204806D01*
X92875658Y-153009791D01*
X93046806Y-152616139D01*
X93288780Y-152120405D01*
X93917621Y-150803114D01*
X94561544Y-149132469D01*
X95011215Y-147460706D01*
X95291101Y-145691745D01*
X95425672Y-143729506D01*
X95426329Y-143709808D01*
X95446433Y-141530969D01*
X95348743Y-139591884D01*
X95126548Y-137839494D01*
X94773141Y-136220737D01*
X94530702Y-135461744D01*
X95207061Y-135461744D01*
X95241728Y-135741574D01*
X95409963Y-136267529D01*
X95492033Y-136527672D01*
X95710090Y-137469016D01*
X95873882Y-138631558D01*
X95986908Y-140045068D01*
X96044579Y-141530969D01*
X96052665Y-141739319D01*
X96060790Y-142065273D01*
X96094708Y-143011795D01*
X96145960Y-143716114D01*
X96225558Y-144233612D01*
X96344514Y-144619673D01*
X96513840Y-144929679D01*
X96744547Y-145219012D01*
X96768402Y-145247463D01*
X96988201Y-145581722D01*
X97291250Y-146119199D01*
X97641067Y-146786770D01*
X98001170Y-147511314D01*
X98335077Y-148219707D01*
X98606308Y-148838829D01*
X98778381Y-149295555D01*
X98822740Y-149431921D01*
X98973731Y-149839040D01*
X99091328Y-150079506D01*
X99202734Y-150302667D01*
X99401587Y-150783270D01*
X99670116Y-151476144D01*
X99992323Y-152338460D01*
X100352212Y-153327386D01*
X100733785Y-154400093D01*
X101121046Y-155513752D01*
X101220845Y-155804734D01*
X101479678Y-156576179D01*
X101651530Y-157144666D01*
X101671112Y-157231838D01*
X101749558Y-157581061D01*
X101786914Y-157956228D01*
X101776754Y-158341034D01*
X101732232Y-158806344D01*
X101688762Y-159127874D01*
X101547803Y-159904224D01*
X101345444Y-160843831D01*
X101102291Y-161858420D01*
X100838951Y-162859716D01*
X100576029Y-163759444D01*
X100535968Y-163915272D01*
X100559158Y-164074520D01*
X100734402Y-164042284D01*
X101086022Y-163809592D01*
X101638336Y-163367469D01*
X101742072Y-163279103D01*
X102415635Y-162621269D01*
X103107429Y-161822710D01*
X103767116Y-160953446D01*
X104344363Y-160083492D01*
X104788831Y-159282868D01*
X105050184Y-158621590D01*
X105068885Y-158553901D01*
X105203075Y-158164697D01*
X105302922Y-158008968D01*
X105339429Y-158105275D01*
X105283601Y-158472177D01*
X105275713Y-158515063D01*
X105260713Y-158904423D01*
X105294923Y-159439876D01*
X105365473Y-160029561D01*
X105459496Y-160581616D01*
X105477949Y-160656142D01*
X105564122Y-161004178D01*
X105666484Y-161205388D01*
X105666785Y-161205572D01*
X105780706Y-161116007D01*
X105921714Y-160758182D01*
X106079545Y-160175050D01*
X106243933Y-159409560D01*
X106404612Y-158504663D01*
X106551315Y-157503311D01*
X106622504Y-156814354D01*
X106684235Y-155824020D01*
X106721134Y-154716117D01*
X106733331Y-153562350D01*
X106720955Y-152434422D01*
X106684134Y-151404037D01*
X106622999Y-150542901D01*
X106537678Y-149922716D01*
X106497680Y-149705703D01*
X106506760Y-149588543D01*
X106615513Y-149726685D01*
X106626004Y-149745063D01*
X106727145Y-150060903D01*
X106840706Y-150607894D01*
X106956590Y-151312996D01*
X107064697Y-152103169D01*
X107154930Y-152905373D01*
X107217192Y-153646567D01*
X107241383Y-154253711D01*
X107324117Y-155062833D01*
X107562489Y-155854315D01*
X107599719Y-155937412D01*
X107848797Y-156425268D01*
X108025303Y-156643631D01*
X108117373Y-156584219D01*
X108113147Y-156238751D01*
X108101429Y-156116713D01*
X108067705Y-155658796D01*
X108025643Y-154989424D01*
X107979473Y-154177945D01*
X107933427Y-153293703D01*
X107909193Y-152811836D01*
X107868445Y-152029701D01*
X107833517Y-151394168D01*
X107807508Y-150960776D01*
X107793514Y-150785062D01*
X107775491Y-150678891D01*
X107724168Y-150332088D01*
X107655664Y-149844321D01*
X107647511Y-149786282D01*
X107332963Y-148267103D01*
X106825110Y-146636403D01*
X106161906Y-144988896D01*
X105381306Y-143419297D01*
X104521261Y-142022321D01*
X104475428Y-141956967D01*
X103875149Y-141184338D01*
X103129593Y-140335406D01*
X102319208Y-139494043D01*
X101524439Y-138744120D01*
X100825736Y-138169508D01*
X100697673Y-138073518D01*
X100371491Y-137811123D01*
X100198575Y-137643992D01*
X100158561Y-137593004D01*
X99806618Y-137302557D01*
X99228399Y-136950172D01*
X98483165Y-136564945D01*
X97630174Y-136175967D01*
X96728687Y-135812334D01*
X95837963Y-135503138D01*
X95648032Y-135444715D01*
X95333362Y-135379103D01*
X95207061Y-135461744D01*
X94530702Y-135461744D01*
X94281812Y-134682553D01*
X94275349Y-134665205D01*
X93989590Y-134052232D01*
X93643408Y-133687674D01*
X93157210Y-133520006D01*
X92451399Y-133497707D01*
X92223441Y-133514288D01*
X91588027Y-133608417D01*
X90881733Y-133760290D01*
X90200000Y-133945209D01*
X89638267Y-134138471D01*
X89291975Y-134315378D01*
X89258181Y-134329815D01*
X88966219Y-134373227D01*
X88441512Y-134409785D01*
X87745624Y-134436005D01*
X86940123Y-134448407D01*
X86623722Y-134451973D01*
X84333667Y-134600768D01*
X82213842Y-134960962D01*
X80289440Y-135526990D01*
X78585652Y-136293290D01*
X78538367Y-136319040D01*
X78053586Y-136577820D01*
X77693152Y-136761136D01*
X77532044Y-136830741D01*
X77528242Y-136808076D01*
X77628485Y-136608558D01*
X77844218Y-136270121D01*
X77924227Y-136148807D01*
X78173084Y-135726661D01*
X78320429Y-135407775D01*
X78400666Y-135234973D01*
X78556118Y-135106049D01*
X78563455Y-135105233D01*
X78690524Y-134945163D01*
X78850840Y-134562820D01*
X79020794Y-134038152D01*
X79176777Y-133451107D01*
X79269747Y-133003947D01*
X94080164Y-133003947D01*
X94469094Y-133576309D01*
X94566260Y-133726103D01*
X94774879Y-134108402D01*
X94858025Y-134362534D01*
X94901945Y-134448980D01*
X95186426Y-134622973D01*
X95677835Y-134786508D01*
X96729902Y-135105110D01*
X98591835Y-135909461D01*
X100407898Y-137000612D01*
X102151253Y-138361409D01*
X103795062Y-139974697D01*
X103985373Y-140182478D01*
X104603046Y-140847774D01*
X105153583Y-141418463D01*
X105682478Y-141934852D01*
X106235224Y-142437248D01*
X106857314Y-142965958D01*
X107594242Y-143561289D01*
X108491502Y-144263547D01*
X109594586Y-145113039D01*
X109654107Y-145158945D01*
X110187901Y-145591869D01*
X110680733Y-146024871D01*
X111081454Y-146409175D01*
X111338916Y-146696006D01*
X111401971Y-146836588D01*
X111401166Y-146837363D01*
X111239078Y-146802113D01*
X110967592Y-146606261D01*
X110724534Y-146414138D01*
X110269177Y-146093623D01*
X109753086Y-145758818D01*
X109373850Y-145519919D01*
X108861875Y-145177402D01*
X108379011Y-144819754D01*
X107861526Y-144396362D01*
X107245687Y-143856617D01*
X106467761Y-143149908D01*
X106286733Y-142987717D01*
X106010054Y-142758681D01*
X105885428Y-142684407D01*
X105884783Y-142695614D01*
X105957740Y-142896690D01*
X106131572Y-143292593D01*
X106375628Y-143812771D01*
X106444670Y-143958887D01*
X106840398Y-144883249D01*
X107230143Y-145919072D01*
X107567431Y-146936594D01*
X107805787Y-147806049D01*
X107821752Y-147875299D01*
X107906374Y-148242306D01*
X107950413Y-148433210D01*
X108067656Y-149071556D01*
X108191280Y-150027870D01*
X108308332Y-151222366D01*
X108415449Y-152615868D01*
X108509268Y-154169202D01*
X108586428Y-155843193D01*
X108596315Y-156100290D01*
X108610941Y-156584219D01*
X108626044Y-157083906D01*
X108624828Y-157780111D01*
X108584522Y-158209775D01*
X108496982Y-158393771D01*
X108354065Y-158352968D01*
X108147626Y-158108240D01*
X107869521Y-157680456D01*
X107587659Y-157264930D01*
X107386163Y-157089113D01*
X107277169Y-157196690D01*
X107244444Y-157585186D01*
X107222622Y-157815956D01*
X107124013Y-158340981D01*
X106964118Y-159012618D01*
X106762996Y-159741050D01*
X106519943Y-160553239D01*
X106258363Y-161387256D01*
X106053591Y-161970396D01*
X105891748Y-162332325D01*
X105758958Y-162502713D01*
X105641342Y-162511226D01*
X105525023Y-162387531D01*
X105478996Y-162320152D01*
X105414860Y-162253005D01*
X105373035Y-162292574D01*
X105350002Y-162480224D01*
X105342243Y-162857320D01*
X105346239Y-163465230D01*
X105358470Y-164345318D01*
X105380088Y-165078859D01*
X105419693Y-165718149D01*
X105471386Y-166180421D01*
X105529477Y-166397396D01*
X105716390Y-166514337D01*
X106125515Y-166683931D01*
X106654606Y-166858178D01*
X107140481Y-167009199D01*
X107569365Y-167160259D01*
X107793210Y-167262055D01*
X107810780Y-167272864D01*
X108098564Y-167361912D01*
X108650725Y-167473613D01*
X109425694Y-167601046D01*
X110381901Y-167737292D01*
X111477778Y-167875431D01*
X111541730Y-167882963D01*
X112425881Y-167972748D01*
X113134160Y-168017377D01*
X113622012Y-168015174D01*
X113706181Y-167996022D01*
X130245296Y-167996022D01*
X130300796Y-168179930D01*
X130563521Y-168295118D01*
X130920544Y-168358574D01*
X131294997Y-168363706D01*
X131310047Y-168362008D01*
X131604218Y-168462130D01*
X131940161Y-168731598D01*
X132216251Y-169070725D01*
X132330864Y-169379825D01*
X132354642Y-169559357D01*
X132488378Y-169669237D01*
X132693710Y-169535667D01*
X132917378Y-169177061D01*
X133116348Y-168780257D01*
X133350615Y-168487240D01*
X133643420Y-168386352D01*
X134085290Y-168418821D01*
X134177361Y-168430156D01*
X134556150Y-168429358D01*
X134758164Y-168350324D01*
X134750318Y-168139121D01*
X134586454Y-167790974D01*
X134321942Y-167417445D01*
X134018531Y-167121155D01*
X133831674Y-166895288D01*
X133907607Y-166604342D01*
X134004931Y-166289131D01*
X134025752Y-165842267D01*
X133977160Y-165391739D01*
X133361201Y-165692721D01*
X132902670Y-165900238D01*
X132564390Y-165968465D01*
X132258702Y-165871491D01*
X131860494Y-165601728D01*
X131733982Y-165511312D01*
X131390812Y-165295891D01*
X131182673Y-165209753D01*
X131137943Y-165251538D01*
X131104501Y-165526270D01*
X131140257Y-165994595D01*
X131166294Y-166207060D01*
X131178427Y-166622890D01*
X131079687Y-166913091D01*
X130837129Y-167209718D01*
X130799417Y-167249708D01*
X130407882Y-167700310D01*
X130245296Y-167996022D01*
X113706181Y-167996022D01*
X113844880Y-167964462D01*
X113928907Y-167934611D01*
X114254969Y-167880430D01*
X114727669Y-167831590D01*
X115019661Y-167796429D01*
X115504761Y-167686017D01*
X115813916Y-167546325D01*
X115981296Y-167433471D01*
X115967140Y-167522407D01*
X115966356Y-167523716D01*
X115927038Y-167645453D01*
X116021444Y-167702439D01*
X116292534Y-167693259D01*
X116783274Y-167616500D01*
X117536624Y-167470748D01*
X117754348Y-167426385D01*
X119187164Y-167094941D01*
X120452189Y-166715353D01*
X121650989Y-166248749D01*
X122885129Y-165656257D01*
X124256173Y-164899008D01*
X124384958Y-164824113D01*
X125291911Y-164239614D01*
X136286548Y-164239614D01*
X136289873Y-164334638D01*
X136472737Y-164425802D01*
X136594747Y-164393537D01*
X136720988Y-164177551D01*
X136630485Y-164006237D01*
X136442609Y-164032562D01*
X136286548Y-164239614D01*
X125291911Y-164239614D01*
X126701672Y-163331073D01*
X128143596Y-162187623D01*
X133103055Y-162187623D01*
X133111205Y-162232097D01*
X133279444Y-162364012D01*
X133355559Y-162372339D01*
X133404876Y-162238580D01*
X133362162Y-162153922D01*
X133205342Y-162065557D01*
X133103055Y-162187623D01*
X128143596Y-162187623D01*
X128735826Y-161717983D01*
X130499986Y-159966863D01*
X132006720Y-158059737D01*
X133268592Y-155978625D01*
X134298170Y-153705552D01*
X135108019Y-151222538D01*
X135710707Y-148511605D01*
X135782462Y-148032049D01*
X135874886Y-147076721D01*
X135932771Y-145993339D01*
X135956164Y-144855194D01*
X135945115Y-143735581D01*
X135899673Y-142707793D01*
X135819888Y-141845123D01*
X135705809Y-141220864D01*
X135620554Y-140874877D01*
X135511835Y-140297248D01*
X135468527Y-139856328D01*
X135430587Y-139418351D01*
X135329929Y-138993982D01*
X135305564Y-138928422D01*
X135157430Y-138501879D01*
X134996106Y-138006666D01*
X134712916Y-137263767D01*
X134266428Y-136309803D01*
X133703313Y-135238593D01*
X133061861Y-134116982D01*
X132380359Y-133011816D01*
X131697097Y-131989939D01*
X131050365Y-131118196D01*
X130946823Y-130990586D01*
X130257695Y-130222995D01*
X129808451Y-129775185D01*
X136799383Y-129775185D01*
X136813299Y-129856993D01*
X136995370Y-130049568D01*
X137119114Y-130023864D01*
X137191358Y-129775185D01*
X137152732Y-129573572D01*
X136995370Y-129500802D01*
X136923024Y-129539762D01*
X136799383Y-129775185D01*
X129808451Y-129775185D01*
X129396478Y-129364527D01*
X128426123Y-128469787D01*
X127409580Y-127593383D01*
X126721743Y-127040611D01*
X131076543Y-127040611D01*
X131105955Y-127073393D01*
X131320982Y-127109753D01*
X131432873Y-127086757D01*
X131466938Y-126950405D01*
X131398167Y-126890999D01*
X131191435Y-126894261D01*
X131076543Y-127040611D01*
X126721743Y-127040611D01*
X126409799Y-126789921D01*
X125489730Y-126114006D01*
X124712324Y-125620247D01*
X124301547Y-125390811D01*
X123757576Y-125090739D01*
X123354614Y-124873113D01*
X123158642Y-124773877D01*
X123023662Y-124716202D01*
X122661050Y-124555459D01*
X122187790Y-124342265D01*
X121271516Y-123969509D01*
X119993182Y-123539567D01*
X118946769Y-123245673D01*
X130735990Y-123245673D01*
X130779309Y-123500807D01*
X131065983Y-123636269D01*
X131629689Y-123690714D01*
X131998024Y-123741045D01*
X132272768Y-123921062D01*
X132537011Y-124312110D01*
X132635290Y-124476856D01*
X132852493Y-124789025D01*
X132990117Y-124913484D01*
X133012221Y-124903571D01*
X133109792Y-124703461D01*
X133198321Y-124326728D01*
X133207751Y-124270174D01*
X133303279Y-123771463D01*
X133412644Y-123493577D01*
X133589668Y-123354126D01*
X133888171Y-123270722D01*
X134157006Y-123199008D01*
X134334150Y-123067821D01*
X134271899Y-122845952D01*
X133977352Y-122469634D01*
X133691228Y-122010023D01*
X133585377Y-121373848D01*
X133582954Y-121235198D01*
X133546890Y-120839546D01*
X133481409Y-120629845D01*
X133441910Y-120616415D01*
X133205679Y-120696998D01*
X132883134Y-120905389D01*
X132864709Y-120917293D01*
X132662475Y-121057018D01*
X132181226Y-121253443D01*
X131557375Y-121308518D01*
X131076152Y-121322225D01*
X130833547Y-121396059D01*
X130816077Y-121577132D01*
X130978616Y-121912538D01*
X131082845Y-122156689D01*
X131078491Y-122255373D01*
X131070279Y-122441529D01*
X130894739Y-122847087D01*
X130735990Y-123245673D01*
X118946769Y-123245673D01*
X118615360Y-123152594D01*
X117253910Y-122840668D01*
X116024691Y-122635868D01*
X114955145Y-122535912D01*
X113017947Y-122492408D01*
X110984760Y-122596036D01*
X109048877Y-122825822D01*
X108953113Y-122837189D01*
X107020539Y-123206264D01*
X105284568Y-123693653D01*
X104762842Y-123885876D01*
X104101687Y-124159350D01*
X103422235Y-124464347D01*
X102786253Y-124770965D01*
X102255507Y-125049301D01*
X101891764Y-125269454D01*
X101756790Y-125401520D01*
X101734290Y-125462638D01*
X101532792Y-125541852D01*
X101317035Y-125627486D01*
X100904083Y-125882698D01*
X100518579Y-126152356D01*
X100350589Y-126269864D01*
X99706120Y-126750990D01*
X99020245Y-127288083D01*
X98342534Y-127843152D01*
X97722555Y-128378202D01*
X97209876Y-128855241D01*
X96597135Y-129474713D01*
X95768732Y-130395344D01*
X95110864Y-131258274D01*
X94566440Y-132134319D01*
X94533981Y-132192366D01*
X94080164Y-133003947D01*
X79269747Y-133003947D01*
X79295178Y-132881633D01*
X79352387Y-132409678D01*
X79344282Y-132254429D01*
X88935931Y-132254429D01*
X88939256Y-132349453D01*
X89122119Y-132440617D01*
X89244130Y-132408351D01*
X89370370Y-132192366D01*
X89279868Y-132021052D01*
X89091991Y-132047377D01*
X88935931Y-132254429D01*
X79344282Y-132254429D01*
X79306513Y-131530995D01*
X78988674Y-130497755D01*
X78385576Y-129588003D01*
X77503806Y-128814554D01*
X76741913Y-128358277D01*
X75545919Y-127894482D01*
X74348975Y-127718422D01*
X73183597Y-127829605D01*
X72082299Y-128227538D01*
X71766683Y-128442469D01*
X71077597Y-128911730D01*
X70875603Y-129095674D01*
X70081203Y-129989261D01*
X69472973Y-130965664D01*
X69074462Y-131969069D01*
X68909221Y-132943661D01*
X69000802Y-133833626D01*
X69094391Y-134137039D01*
X69599630Y-135207713D01*
X70310590Y-136122118D01*
X71176228Y-136810409D01*
X71718505Y-137133652D01*
X71921955Y-136338674D01*
X71998116Y-136077735D01*
X72211439Y-135523471D01*
X72437015Y-135106081D01*
X72586079Y-134859700D01*
X72597261Y-134635458D01*
X72357353Y-134513557D01*
X71836251Y-134461710D01*
X71692897Y-134444588D01*
X71753070Y-134392209D01*
X72123457Y-134306155D01*
X72514943Y-134265091D01*
X73326570Y-134319101D01*
X74182799Y-134512110D01*
X74947659Y-134819406D01*
X75464741Y-135123720D01*
X76116723Y-135600743D01*
X76649502Y-136097155D01*
X77008901Y-136560599D01*
X77140741Y-136938719D01*
X77133977Y-136965046D01*
X76962179Y-137146860D01*
X76631173Y-137371897D01*
X76477969Y-137473410D01*
X76035078Y-137827707D01*
X75465344Y-138333355D01*
X74824856Y-138935754D01*
X74169705Y-139580305D01*
X73555980Y-140212407D01*
X73039773Y-140777460D01*
X72677172Y-141220864D01*
X72615734Y-141306707D01*
X72326478Y-141747323D01*
X71999202Y-142288681D01*
X71667428Y-142869353D01*
X71364680Y-143427914D01*
X71124480Y-143902937D01*
X70980352Y-144232996D01*
X70965819Y-144356666D01*
X70968393Y-144356817D01*
X70956799Y-144475433D01*
X70805159Y-144748642D01*
X70799210Y-144757751D01*
X70644436Y-145028468D01*
X70623381Y-145140617D01*
X70635005Y-145172292D01*
X70588091Y-145410998D01*
X70462936Y-145806975D01*
X70410683Y-145960307D01*
X70259217Y-146469186D01*
X70170682Y-146865308D01*
X70097301Y-147309926D01*
X69989919Y-147868867D01*
X69874508Y-148408806D01*
X69771814Y-148833124D01*
X69702585Y-149045201D01*
X69642982Y-149263577D01*
X69578086Y-149747827D01*
X69517232Y-150429643D01*
X69464285Y-151248441D01*
X69423111Y-152143634D01*
X69397574Y-153054637D01*
X69391540Y-153920864D01*
X69412134Y-155128193D01*
X69442666Y-155880741D01*
X69478749Y-156770121D01*
X69522710Y-157466537D01*
X69593873Y-158593867D01*
X69640676Y-159173333D01*
X69760982Y-160662839D01*
X69806297Y-161256356D01*
X69830971Y-161854301D01*
X69826549Y-162457655D01*
X69788969Y-163117013D01*
X69714167Y-163882972D01*
X69598078Y-164806128D01*
X69436640Y-165937079D01*
X69225787Y-167326420D01*
X68937856Y-168901116D01*
X68931975Y-168924678D01*
X68295068Y-171476239D01*
X67440750Y-174115081D01*
X66400003Y-176743120D01*
X65197924Y-179285834D01*
X64449077Y-180740310D01*
X63499651Y-180740310D01*
X63492991Y-169060364D01*
X64911111Y-169060364D01*
X64927810Y-169160056D01*
X65072822Y-169286296D01*
X65247072Y-169173741D01*
X65363607Y-168924678D01*
X65332887Y-168715068D01*
X65194870Y-168678503D01*
X65002562Y-168812439D01*
X64911111Y-169060364D01*
X63492991Y-169060364D01*
X63487353Y-159173333D01*
X66479012Y-159173333D01*
X66496701Y-159281525D01*
X66635802Y-159408518D01*
X66707930Y-159381985D01*
X66792592Y-159173333D01*
X66774903Y-159065141D01*
X66635802Y-158938148D01*
X66563674Y-158964682D01*
X66479012Y-159173333D01*
X63487353Y-159173333D01*
X63486409Y-157517784D01*
X65695062Y-157517784D01*
X65711249Y-157604622D01*
X65869720Y-157763537D01*
X66065168Y-157731828D01*
X66107737Y-157683010D01*
X66146483Y-157466537D01*
X65930247Y-157370247D01*
X65822194Y-157386846D01*
X65695062Y-157517784D01*
X63486409Y-157517784D01*
X63485476Y-155880741D01*
X67262963Y-155880741D01*
X67341358Y-155959136D01*
X67419753Y-155880741D01*
X67341358Y-155802345D01*
X67262963Y-155880741D01*
X63485476Y-155880741D01*
X63481965Y-149723439D01*
X63481735Y-149317991D01*
X63479626Y-145523191D01*
X63477817Y-142028330D01*
X63476356Y-138821031D01*
X63475286Y-135888921D01*
X63474654Y-133219623D01*
X63474506Y-130800761D01*
X63474887Y-128619960D01*
X63474974Y-128442469D01*
X66479012Y-128442469D01*
X66506330Y-128552149D01*
X66714197Y-128677654D01*
X66823877Y-128650336D01*
X66949383Y-128442469D01*
X66922065Y-128332789D01*
X66714197Y-128207284D01*
X66604518Y-128234601D01*
X66479012Y-128442469D01*
X63474974Y-128442469D01*
X63475843Y-126664844D01*
X63477420Y-124923037D01*
X63477674Y-124748648D01*
X66792592Y-124748648D01*
X66808780Y-124835486D01*
X66967251Y-124994401D01*
X67162699Y-124962692D01*
X67205268Y-124913874D01*
X67244013Y-124697401D01*
X67027778Y-124601111D01*
X66919725Y-124617711D01*
X66792592Y-124748648D01*
X63477674Y-124748648D01*
X63478303Y-124316820D01*
X81565601Y-124316820D01*
X81591663Y-124360832D01*
X81842030Y-124523997D01*
X82248328Y-124655589D01*
X82420658Y-124697401D01*
X82691801Y-124763188D01*
X83091241Y-124923143D01*
X83309033Y-125143831D01*
X83420950Y-125478421D01*
X83526896Y-125857382D01*
X83704216Y-126286605D01*
X83874990Y-126543709D01*
X84049530Y-126600936D01*
X84252370Y-126403859D01*
X84492655Y-125992634D01*
X91434150Y-125992634D01*
X91506567Y-126465413D01*
X91626466Y-126673825D01*
X91971228Y-126889954D01*
X92405283Y-126929143D01*
X92833322Y-126808120D01*
X93160038Y-126543615D01*
X93290123Y-126152356D01*
X93289392Y-126116775D01*
X93130526Y-125660659D01*
X92740571Y-125345743D01*
X92186689Y-125228271D01*
X91800865Y-125251973D01*
X91579695Y-125369620D01*
X91467501Y-125642265D01*
X91434150Y-125992634D01*
X84492655Y-125992634D01*
X84527017Y-125933827D01*
X84671144Y-125680993D01*
X84900910Y-125350727D01*
X85058373Y-125216375D01*
X85275320Y-125213444D01*
X85713813Y-125217162D01*
X86273765Y-125226895D01*
X86285089Y-125227131D01*
X86812947Y-125229210D01*
X87188857Y-125213917D01*
X87332099Y-125184485D01*
X87331944Y-125178837D01*
X87245200Y-124933144D01*
X87049126Y-124566025D01*
X86817298Y-124203415D01*
X86623290Y-123971250D01*
X86484337Y-123833661D01*
X86414624Y-123606145D01*
X86564290Y-123326679D01*
X86953155Y-122932864D01*
X87137246Y-122749128D01*
X87159675Y-122719629D01*
X95171605Y-122719629D01*
X95214373Y-122902665D01*
X95397537Y-123033210D01*
X95536910Y-123009643D01*
X95740804Y-122825822D01*
X95720370Y-122562839D01*
X95520819Y-122412300D01*
X95283182Y-122467393D01*
X95171605Y-122719629D01*
X87159675Y-122719629D01*
X87367856Y-122445826D01*
X87414273Y-122255373D01*
X87412465Y-122252687D01*
X87207793Y-122171873D01*
X86782168Y-122114369D01*
X86225315Y-122092469D01*
X85953788Y-122091583D01*
X85467703Y-122068596D01*
X85138850Y-121983546D01*
X84856489Y-121795945D01*
X84509876Y-121465308D01*
X84027244Y-121040225D01*
X83986193Y-121021219D01*
X125148933Y-121021219D01*
X125303960Y-121202874D01*
X125573849Y-121161023D01*
X125603674Y-121139309D01*
X125703968Y-120905389D01*
X125634794Y-120646674D01*
X125432099Y-120524568D01*
X125338738Y-120556005D01*
X125171174Y-120770292D01*
X125148933Y-121021219D01*
X83986193Y-121021219D01*
X83649051Y-120865128D01*
X83375863Y-120972903D01*
X83184967Y-121373061D01*
X83053650Y-122075113D01*
X83035538Y-122200089D01*
X82915724Y-122620409D01*
X82670138Y-122995874D01*
X82232041Y-123437119D01*
X82088999Y-123581975D01*
X81892958Y-123780501D01*
X81637806Y-124111575D01*
X81565601Y-124316820D01*
X63478303Y-124316820D01*
X63479373Y-123581975D01*
X68203704Y-123581975D01*
X68221393Y-123690167D01*
X68360494Y-123817160D01*
X68432622Y-123790627D01*
X68517284Y-123581975D01*
X68499595Y-123473783D01*
X68360494Y-123346790D01*
X68288366Y-123373324D01*
X68203704Y-123581975D01*
X63479373Y-123581975D01*
X63479664Y-123382165D01*
X63482620Y-122029851D01*
X63486334Y-120853719D01*
X63490606Y-119896537D01*
X67698697Y-119896537D01*
X67711498Y-120375258D01*
X67982780Y-120853907D01*
X68322216Y-121076422D01*
X68859647Y-121131694D01*
X69458025Y-120949762D01*
X69556123Y-120888841D01*
X69771612Y-120600815D01*
X73142592Y-120600815D01*
X73237170Y-120847061D01*
X73481889Y-120979787D01*
X73738201Y-120895831D01*
X73796025Y-120793110D01*
X73848148Y-120487531D01*
X73774681Y-120271226D01*
X73495370Y-120239280D01*
X73271583Y-120322040D01*
X73142592Y-120600815D01*
X69771612Y-120600815D01*
X69829036Y-120524061D01*
X69931349Y-120041881D01*
X69896906Y-119828265D01*
X98777778Y-119828265D01*
X98805148Y-119958085D01*
X98958212Y-120041881D01*
X98969939Y-120048301D01*
X99169753Y-119897407D01*
X99209569Y-119710929D01*
X99109631Y-119522691D01*
X98923734Y-119512128D01*
X98866326Y-119565923D01*
X98777778Y-119828265D01*
X69896906Y-119828265D01*
X69854073Y-119562610D01*
X69730898Y-119397639D01*
X123272968Y-119397639D01*
X123276293Y-119492663D01*
X123459156Y-119583827D01*
X123581167Y-119551561D01*
X123707407Y-119335576D01*
X123616905Y-119164261D01*
X123429028Y-119190587D01*
X123272968Y-119397639D01*
X69730898Y-119397639D01*
X69588225Y-119206554D01*
X69217589Y-119022130D01*
X68703823Y-118980540D01*
X68245595Y-119147117D01*
X67893641Y-119469803D01*
X67698697Y-119896537D01*
X63490606Y-119896537D01*
X63490852Y-119841395D01*
X63496219Y-118980501D01*
X63502481Y-118258664D01*
X63509685Y-117663506D01*
X63513029Y-117467160D01*
X97343148Y-117467160D01*
X97349708Y-117510427D01*
X97511697Y-117672294D01*
X97600692Y-117662297D01*
X97680247Y-117467160D01*
X97654665Y-117337712D01*
X97511697Y-117262027D01*
X97465212Y-117283319D01*
X97343148Y-117467160D01*
X63513029Y-117467160D01*
X63517875Y-117182654D01*
X63527097Y-116803729D01*
X63537398Y-116514358D01*
X63548823Y-116302165D01*
X63561417Y-116154774D01*
X63575227Y-116059808D01*
X63590297Y-116004894D01*
X63606675Y-115977654D01*
X63607829Y-115977178D01*
X63789677Y-115970002D01*
X64270674Y-115962822D01*
X65037286Y-115955675D01*
X66075980Y-115948596D01*
X67373223Y-115941621D01*
X68915481Y-115934786D01*
X70689222Y-115928128D01*
X72680912Y-115921681D01*
X74877019Y-115915483D01*
X77264008Y-115909568D01*
X79828347Y-115903973D01*
X82556504Y-115898733D01*
X85434944Y-115893886D01*
X88450134Y-115889466D01*
X91588543Y-115885509D01*
X94836635Y-115882052D01*
X98180879Y-115879130D01*
X101607740Y-115876779D01*
X105472422Y-115874794D01*
X109540703Y-115873483D01*
X113310662Y-115873186D01*
X116790383Y-115873936D01*
X119987951Y-115875768D01*
X122911452Y-115878714D01*
X125568971Y-115882807D01*
X127968591Y-115888081D01*
X130118399Y-115894570D01*
X132026480Y-115902306D01*
X133700917Y-115911323D01*
X135149797Y-115921655D01*
X136381204Y-115933333D01*
X137403224Y-115946393D01*
X138223940Y-115960867D01*
X138851439Y-115976788D01*
X139293805Y-115994190D01*
X139559123Y-116013106D01*
X139655479Y-116033569D01*
X139664200Y-116130108D01*
X139675490Y-116523031D01*
X139686066Y-117204088D01*
X139688774Y-117467160D01*
X139695893Y-118158605D01*
G37*
G36*
X76983951Y-153362845D02*
G01*
X76980884Y-153442007D01*
X76906820Y-153600354D01*
X76755461Y-153461328D01*
X76734155Y-153404793D01*
X76824603Y-153216889D01*
X76906809Y-153201359D01*
X76983951Y-153362845D01*
G37*
G36*
X76931687Y-152875596D02*
G01*
X76956216Y-152922756D01*
X76827160Y-152980123D01*
X76744156Y-152968808D01*
X76722634Y-152875596D01*
X76745614Y-152856832D01*
X76931687Y-152875596D01*
G37*
G36*
X76953384Y-152274568D02*
G01*
X76953600Y-152311698D01*
X76932578Y-152557146D01*
X76881106Y-152551934D01*
X76852343Y-152423101D01*
X76875296Y-152081564D01*
X76883055Y-152054606D01*
X76930776Y-152031393D01*
X76953384Y-152274568D01*
G37*
G36*
X77140741Y-150706666D02*
G01*
X77062346Y-150785062D01*
X76983951Y-150706666D01*
X77062346Y-150628271D01*
X77140741Y-150706666D01*
G37*
G36*
X82083045Y-140313123D02*
G01*
X81998037Y-140479298D01*
X81745622Y-140797332D01*
X81374304Y-141205371D01*
X81092171Y-141510716D01*
X80077622Y-142801101D01*
X79174594Y-144248399D01*
X78423057Y-145774112D01*
X77862982Y-147299742D01*
X77534337Y-148746790D01*
X77512575Y-148886999D01*
X77398245Y-149474171D01*
X77270945Y-149972419D01*
X77191026Y-150212053D01*
X77089831Y-150417671D01*
X77048552Y-150327037D01*
X77068542Y-149947888D01*
X77151155Y-149287958D01*
X77276236Y-148566622D01*
X77671772Y-147021596D01*
X78219719Y-145490635D01*
X78881980Y-144072802D01*
X79620456Y-142867160D01*
X79901688Y-142499156D01*
X80321930Y-141998364D01*
X80784232Y-141484016D01*
X81239866Y-141006863D01*
X81640102Y-140617657D01*
X81936211Y-140367149D01*
X82079465Y-140306091D01*
X82083045Y-140313123D01*
G37*
G36*
X93515228Y-148635959D02*
G01*
X93437036Y-148782282D01*
X93320404Y-148829334D01*
X93303612Y-148753759D01*
X93427458Y-148548189D01*
X93448107Y-148527931D01*
X93562964Y-148452784D01*
X93515228Y-148635959D01*
G37*
G36*
X87744461Y-141210473D02*
G01*
X87753885Y-141612839D01*
X87745921Y-142025266D01*
X87723109Y-142211820D01*
X87690438Y-142125215D01*
X87663234Y-141695792D01*
X87688838Y-141184474D01*
X87689306Y-141180723D01*
X87721271Y-141055477D01*
X87744461Y-141210473D01*
G37*
G36*
X82699623Y-139821833D02*
G01*
X82706790Y-139966543D01*
X82674749Y-140008915D01*
X82453098Y-140123333D01*
X82400377Y-140111253D01*
X82393210Y-139966543D01*
X82425251Y-139924171D01*
X82646902Y-139809753D01*
X82699623Y-139821833D01*
G37*
G36*
X88908329Y-167887708D02*
G01*
X89135185Y-168031975D01*
X89126050Y-168128408D01*
X88909253Y-168188765D01*
X88718134Y-168158133D01*
X88586420Y-168031975D01*
X88609709Y-167962849D01*
X88812352Y-167875185D01*
X88908329Y-167887708D01*
G37*
G36*
X98649115Y-158375769D02*
G01*
X98556983Y-159045346D01*
X98401602Y-159534755D01*
X98169063Y-159876421D01*
X97559568Y-160387125D01*
X96739506Y-160757293D01*
X96440122Y-160836364D01*
X95530368Y-160901912D01*
X94670400Y-160724218D01*
X93918584Y-160330461D01*
X93333289Y-159747817D01*
X92972881Y-159003464D01*
X92879754Y-158443454D01*
X94413402Y-158443454D01*
X94539223Y-158745766D01*
X94844527Y-159081743D01*
X95031086Y-159249982D01*
X95426288Y-159478893D01*
X95895088Y-159539170D01*
X96545248Y-159454430D01*
X96809138Y-159330620D01*
X97116607Y-158956282D01*
X97299680Y-158437587D01*
X97311057Y-157872260D01*
X97280420Y-157717032D01*
X97003315Y-157099581D01*
X96526215Y-156717301D01*
X95867200Y-156586296D01*
X95532927Y-156605946D01*
X94963003Y-156797293D01*
X94604707Y-157211684D01*
X94431607Y-157872807D01*
X94415748Y-158024568D01*
X94413402Y-158443454D01*
X92879754Y-158443454D01*
X92869065Y-158379179D01*
X92947230Y-157471546D01*
X93269481Y-156626371D01*
X93805443Y-155914081D01*
X94524743Y-155405105D01*
X94713636Y-155308511D01*
X95039910Y-155103197D01*
X95169806Y-154958945D01*
X95069200Y-154907935D01*
X94733730Y-154891552D01*
X94244010Y-154926046D01*
X94007356Y-154949512D01*
X93482047Y-154955827D01*
X93246332Y-154858707D01*
X93293118Y-154651394D01*
X93615313Y-154327131D01*
X93797028Y-154187452D01*
X94251031Y-153978598D01*
X94841597Y-153920864D01*
X94999436Y-153923526D01*
X96215850Y-154106534D01*
X97430319Y-154549522D01*
X98573839Y-155213470D01*
X99577405Y-156059358D01*
X100372012Y-157048165D01*
X100557048Y-157363225D01*
X100776810Y-157962443D01*
X100745904Y-158510249D01*
X100468491Y-159094938D01*
X100122104Y-159643703D01*
X100029698Y-158938148D01*
X99936211Y-158449472D01*
X99571645Y-157586435D01*
X98936593Y-156821481D01*
X98440253Y-156351111D01*
X98569818Y-156821481D01*
X98611767Y-157010116D01*
X98670032Y-157654525D01*
X98663717Y-157872260D01*
X98649115Y-158375769D01*
G37*
G36*
X85452216Y-158310987D02*
G01*
X85227248Y-158800773D01*
X84715850Y-159381124D01*
X84032011Y-159833074D01*
X83255555Y-160091907D01*
X82439067Y-160131063D01*
X81572711Y-159962387D01*
X80811436Y-159603880D01*
X80245500Y-159085714D01*
X80223239Y-159054713D01*
X79975339Y-158490544D01*
X79852915Y-157769927D01*
X79864112Y-157137105D01*
X81300832Y-157137105D01*
X81303134Y-157756667D01*
X81592783Y-158356082D01*
X82002472Y-158696842D01*
X82525253Y-158835095D01*
X83074139Y-158775428D01*
X83581819Y-158548582D01*
X83980983Y-158185299D01*
X84204320Y-157716322D01*
X84184519Y-157172392D01*
X84090275Y-156905345D01*
X83720826Y-156336341D01*
X83223196Y-155999902D01*
X82651257Y-155922437D01*
X82058880Y-156130357D01*
X81571907Y-156564099D01*
X81300832Y-157137105D01*
X79864112Y-157137105D01*
X79866196Y-157019300D01*
X80025409Y-156365099D01*
X80087248Y-156209685D01*
X80199993Y-155858431D01*
X80212531Y-155686070D01*
X80084753Y-155694292D01*
X79802337Y-155868105D01*
X79451836Y-156161291D01*
X79108857Y-156509419D01*
X78849007Y-156848057D01*
X78799397Y-156934011D01*
X78570122Y-157462745D01*
X78411322Y-158026295D01*
X78283624Y-158702963D01*
X77942721Y-157964293D01*
X77820195Y-157690299D01*
X77699063Y-157324601D01*
X77706123Y-157032145D01*
X77829694Y-156680243D01*
X78064483Y-156234154D01*
X78680776Y-155468616D01*
X79509272Y-154761878D01*
X80486973Y-154173373D01*
X80533143Y-154150664D01*
X81833218Y-153601422D01*
X83011787Y-153280725D01*
X84047671Y-153190494D01*
X84919690Y-153332650D01*
X85606662Y-153709112D01*
X85700678Y-153792871D01*
X85965051Y-154101314D01*
X86081436Y-154356334D01*
X86033122Y-154494719D01*
X85803395Y-154453255D01*
X85746579Y-154433409D01*
X85390415Y-154371039D01*
X84842609Y-154318897D01*
X84196296Y-154286641D01*
X83606174Y-154275593D01*
X83257081Y-154287220D01*
X83174343Y-154325978D01*
X83333951Y-154394880D01*
X83775154Y-154548510D01*
X84401134Y-154878030D01*
X84849411Y-155327553D01*
X85208297Y-155971356D01*
X85322411Y-156237362D01*
X85548202Y-156956111D01*
X85587053Y-157604948D01*
X85565783Y-157716322D01*
X85452216Y-158310987D01*
G37*
G36*
X95869017Y-152920299D02*
G01*
X95989359Y-152974596D01*
X96112346Y-153075293D01*
X96068890Y-153133705D01*
X95889178Y-153111892D01*
X95721480Y-152981919D01*
X95707166Y-152909341D01*
X95869017Y-152920299D01*
G37*
G36*
X84781275Y-152401099D02*
G01*
X84808233Y-152408857D01*
X84831446Y-152456578D01*
X84588272Y-152479187D01*
X84551141Y-152479402D01*
X84305693Y-152458380D01*
X84310905Y-152406908D01*
X84439738Y-152378145D01*
X84781275Y-152401099D01*
G37*
G36*
X114770370Y-167483210D02*
G01*
X114691975Y-167561605D01*
X114613580Y-167483210D01*
X114691975Y-167404815D01*
X114770370Y-167483210D01*
G37*
G36*
X114456790Y-166699259D02*
G01*
X114378395Y-166777654D01*
X114300000Y-166699259D01*
X114378395Y-166620864D01*
X114456790Y-166699259D01*
G37*
G36*
X107401234Y-163093086D02*
G01*
X107322839Y-163171481D01*
X107244444Y-163093086D01*
X107322839Y-163014691D01*
X107401234Y-163093086D01*
G37*
G36*
X106617284Y-161838765D02*
G01*
X106538889Y-161917160D01*
X106460494Y-161838765D01*
X106538889Y-161760370D01*
X106617284Y-161838765D01*
G37*
G36*
X105519753Y-157762222D02*
G01*
X105441358Y-157840617D01*
X105362963Y-157762222D01*
X105441358Y-157683827D01*
X105519753Y-157762222D01*
G37*
G36*
X99414131Y-140680418D02*
G01*
X99769190Y-141061464D01*
X100318121Y-141851376D01*
X100874522Y-142864825D01*
X101415440Y-144050093D01*
X101917921Y-145355462D01*
X102359013Y-146729214D01*
X102715762Y-148119629D01*
X102737611Y-148225037D01*
X102841420Y-148999091D01*
X102904982Y-149985676D01*
X102929977Y-151109819D01*
X102918087Y-152296546D01*
X102870992Y-153470884D01*
X102790373Y-154557859D01*
X102677910Y-155482498D01*
X102535286Y-156169826D01*
X102493298Y-156308318D01*
X102378399Y-156619482D01*
X102305696Y-156717095D01*
X102297787Y-156652151D01*
X102314060Y-156334940D01*
X102362925Y-155818590D01*
X102438318Y-155173689D01*
X102582899Y-153629034D01*
X102592421Y-150959375D01*
X102295997Y-148274329D01*
X101692135Y-145554680D01*
X101466087Y-144884811D01*
X101130072Y-144069271D01*
X100726926Y-143196573D01*
X100299414Y-142354973D01*
X99890298Y-141632723D01*
X99542344Y-141118077D01*
X99258173Y-140743792D01*
X99112082Y-140503652D01*
X99162934Y-140478657D01*
X99414131Y-140680418D01*
G37*
D11*
%TO.C,J1*%
X110090000Y-66360000D02*
X110090000Y-62760000D01*
X110090000Y-60860000D02*
X110090000Y-59360000D01*
X110090000Y-59360000D02*
X111440000Y-59360000D01*
X110090000Y-57510000D02*
X111440000Y-57510000D01*
X110090000Y-57510000D02*
X110090000Y-56210000D01*
X110090000Y-56210000D02*
X109590000Y-56210000D01*
X109590000Y-56210000D02*
X109590000Y-54210000D01*
X109590000Y-54210000D02*
X104390000Y-54210000D01*
X104640000Y-68410000D02*
X110090000Y-68410000D01*
X104390000Y-56210000D02*
X103890000Y-56210000D01*
X104390000Y-54210000D02*
X104390000Y-56210000D01*
X103890000Y-66560000D02*
X103890000Y-66860000D01*
X103890000Y-59360000D02*
X103890000Y-64610000D01*
X103890000Y-56210000D02*
X103890000Y-57410000D01*
%TO.C,Q1*%
X87350000Y-74300000D02*
X85890000Y-74300000D01*
X87350000Y-74300000D02*
X87350000Y-75230000D01*
X87350000Y-77460000D02*
X84190000Y-77460000D01*
X87350000Y-77460000D02*
X87350000Y-76530000D01*
%TO.C,D1*%
X111230000Y-77850000D02*
X104220000Y-77850000D01*
X111230000Y-74550000D02*
X111230000Y-77850000D01*
X111230000Y-74550000D02*
X104220000Y-74550000D01*
%TD*%
%LPC*%
D12*
%TO.C,U2*%
X99500000Y-67610000D03*
X96960000Y-67610000D03*
X94420000Y-67610000D03*
X91880000Y-67610000D03*
X89340000Y-67610000D03*
X86800000Y-67610000D03*
X84260000Y-67610000D03*
X81720000Y-67610000D03*
X79180000Y-67610000D03*
X76640000Y-67610000D03*
X74100000Y-67610000D03*
X71560000Y-67610000D03*
X70730000Y-105410000D03*
X73270000Y-105410000D03*
X97790000Y-105410000D03*
X100330000Y-105410000D03*
%TD*%
D13*
%TO.C,U1*%
X123005000Y-57280000D03*
D14*
X123305000Y-60310000D03*
X128155000Y-60310000D03*
D13*
X128455000Y-57280000D03*
D15*
X116840000Y-57150000D03*
X116840000Y-59690000D03*
D16*
X116840000Y-62230000D03*
D15*
X116840000Y-64770000D03*
X116840000Y-67310000D03*
X116840000Y-69850000D03*
X116840000Y-72390000D03*
D16*
X116840000Y-74930000D03*
D15*
X116840000Y-77470000D03*
X116840000Y-80010000D03*
X116840000Y-82550000D03*
X116840000Y-85090000D03*
D16*
X116840000Y-87630000D03*
D15*
X116840000Y-90170000D03*
X116840000Y-92710000D03*
X116840000Y-95250000D03*
X116840000Y-97790000D03*
D16*
X116840000Y-100330000D03*
D15*
X116840000Y-102870000D03*
X116840000Y-105410000D03*
X134620000Y-105410000D03*
X134620000Y-102870000D03*
D16*
X134620000Y-100330000D03*
D15*
X134620000Y-97790000D03*
X134620000Y-95250000D03*
X134620000Y-92710000D03*
X134620000Y-90170000D03*
D16*
X134620000Y-87630000D03*
D15*
X134620000Y-85090000D03*
X134620000Y-82550000D03*
X134620000Y-80010000D03*
X134620000Y-77470000D03*
D16*
X134620000Y-74930000D03*
D15*
X134620000Y-72390000D03*
X134620000Y-69850000D03*
X134620000Y-67310000D03*
X134620000Y-64770000D03*
D16*
X134620000Y-62230000D03*
D15*
X134620000Y-59690000D03*
X134620000Y-57150000D03*
X123190000Y-105180000D03*
D16*
X125730000Y-105180000D03*
D15*
X128270000Y-105180000D03*
%TD*%
D17*
%TO.C,BT1*%
X97790000Y-76200000D03*
D18*
X92990000Y-76200000D03*
%TD*%
D19*
%TO.C,J1*%
X106990000Y-65810000D03*
X106990000Y-58810000D03*
D20*
X110490000Y-61810000D03*
X110490000Y-67310000D03*
X103490000Y-58410000D03*
X110490000Y-58410000D03*
X103490000Y-65610000D03*
X103490000Y-67810000D03*
%TD*%
D21*
%TO.C,Q1*%
X88090000Y-75880000D03*
X85090000Y-76830000D03*
X85090000Y-74930000D03*
%TD*%
D22*
%TO.C,D1*%
X109220000Y-76200000D03*
X104220000Y-76200000D03*
%TD*%
%LPD*%
M02*
